<?xml version="1.0" encoding="UTF-8"?><svg id="a" xmlns="http://www.w3.org/2000/svg" width="406.75" height="72.53" xmlns:xlink="http://www.w3.org/1999/xlink" viewBox="0 0 406.75 72.53"><defs><style>.d{fill:none;}.d,.e,.f{stroke-width:0px;}.g{clip-path:url(#b);}.h{clip-path:url(#c);}.e{fill:#4b1111;}.f{fill:#5d0025;}</style><clipPath id="b"><rect class="d" y="0" width="72.51" height="72.53"/></clipPath><clipPath id="c"><rect class="d" y="0" width="72.51" height="72.53"/></clipPath></defs><path class="e" d="m89.06,24.47c0,1.54,0,2.8.08,3.47.05.46.14.82.62.88.22.03.58.06.72.06.1,0,.13.05.13.1,0,.08-.08.13-.26.13-.88,0-1.89-.05-1.97-.05s-1.09.05-1.57.05c-.18,0-.26-.03-.26-.13,0-.05.03-.1.13-.1.14,0,.34-.03.48-.06.32-.06.4-.42.46-.88.08-.67.08-1.94.08-3.47v-6.77l-2.37.03c-.99.02-1.38.13-1.63.51-.18.27-.22.38-.27.5-.05.13-.1.16-.16.16-.05,0-.08-.05-.08-.14,0-.16.32-1.54.35-1.66.03-.1.1-.3.16-.3.11,0,.27.16.7.19.46.05,1.07.08,1.26.08h6c.51,0,.88-.03,1.14-.08.24-.03.38-.08.45-.08.08,0,.08.1.08.19,0,.48-.05,1.58-.05,1.76,0,.14-.05.21-.11.21-.08,0-.11-.05-.13-.27l-.02-.18c-.05-.48-.43-.85-1.97-.88l-2.02-.03v6.77Z"/><path class="e" d="m105.74,25.15c0,1.31.02,2.38.08,2.95.05.4.08.66.51.72.19.03.51.06.62.06.1,0,.13.06.13.11,0,.06-.08.11-.24.11-.77,0-1.66-.05-1.74-.05-.06,0-.98.05-1.39.05-.16,0-.22-.03-.22-.11,0-.05.03-.11.11-.11.13,0,.29-.03.42-.06.29-.06.34-.34.38-.74.06-.56.06-1.58.06-2.9v-1.36c0-.06-.03-.08-.08-.08h-5.87s-.08.02-.08.08v1.36c0,1.31,0,2.35.06,2.91.05.4.1.66.51.72.21.03.51.06.64.06.08,0,.11.06.11.11,0,.06-.06.11-.22.11-.78,0-1.68-.05-1.75-.05-.08,0-.98.05-1.41.05-.14,0-.22-.03-.22-.11,0-.05.03-.11.11-.11.13,0,.3-.03.43-.06.27-.06.3-.32.37-.72.08-.56.08-1.63.08-2.95v-2.4c0-2.11,0-2.5-.03-2.93-.03-.46-.11-.69-.58-.75-.11-.02-.35-.03-.48-.03-.05,0-.11-.06-.11-.11,0-.08.06-.11.22-.11.64,0,1.54.03,1.62.03.06,0,.96-.03,1.39-.03.16,0,.22.03.22.11,0,.05-.06.11-.11.11-.1,0-.19,0-.35.03-.38.08-.46.27-.5.75-.02.43-.02.85-.02,2.96v.29c0,.08.03.08.08.08h5.87s.08,0,.08-.08v-.29c0-2.11-.02-2.53-.03-2.96-.03-.46-.1-.69-.56-.75-.11-.02-.35-.03-.48-.03-.06,0-.11-.06-.11-.11,0-.08.06-.11.22-.11.62,0,1.54.03,1.6.03.08,0,.98-.03,1.39-.03.16,0,.24.03.24.11,0,.05-.06.11-.13.11-.1,0-.18,0-.35.03-.37.08-.45.27-.48.75-.03.43-.03.82-.03,2.93v2.4Z"/><path class="e" d="m111.49,22.75c0-2.11,0-2.5-.03-2.93-.03-.46-.11-.69-.58-.75-.11-.02-.35-.03-.48-.03-.05,0-.11-.06-.11-.11,0-.08.06-.11.22-.11.64,0,1.55.03,1.63.03.1,0,3.04.02,3.36,0,.27-.02.53-.06.64-.08.06-.02.13-.06.19-.06.05,0,.06.06.06.13,0,.1-.08.26-.11.64-.02.13-.05.74-.08.9-.02.06-.06.14-.13.14-.08,0-.11-.06-.11-.18,0-.1-.02-.32-.08-.48-.1-.22-.24-.32-1.01-.42-.24-.03-1.87-.05-2.03-.05-.06,0-.08.05-.08.14v3.7c0,.1,0,.14.08.14.18,0,2.03,0,2.35-.03.34-.03.54-.05.69-.19.1-.1.16-.18.21-.18s.08.03.08.11-.08.3-.11.75c-.03.27-.06.78-.06.88,0,.11-.03.26-.13.26-.06,0-.1-.05-.1-.13,0-.13,0-.27-.06-.45-.05-.19-.18-.35-.72-.42-.38-.05-1.89-.06-2.13-.06-.08,0-.1.05-.1.1v1.14c0,.46-.02,2.05,0,2.32.03.91.29,1.09,1.68,1.09.37,0,1.04,0,1.41-.14.37-.16.56-.4.64-.94.03-.16.06-.21.14-.21s.1.11.1.21-.11,1.02-.19,1.31c-.1.35-.24.35-.78.35-1.06,0-1.87-.03-2.45-.05-.59-.03-.96-.03-1.17-.03-.03,0-.3,0-.61.02-.27.02-.59.03-.82.03-.14,0-.22-.03-.22-.11,0-.05.03-.11.11-.11.13,0,.3-.05.43-.06.27-.05.3-.32.37-.72.08-.56.08-1.63.08-2.95v-2.4Z"/><path class="e" d="m130.89,24.47c0,1.54,0,2.8.08,3.47.05.46.14.82.62.88.22.03.58.06.72.06.1,0,.13.05.13.1,0,.08-.08.13-.26.13-.88,0-1.89-.05-1.97-.05s-1.09.05-1.57.05c-.18,0-.26-.03-.26-.13,0-.05.03-.1.13-.1.14,0,.34-.03.48-.06.32-.06.4-.42.46-.88.08-.67.08-1.94.08-3.47v-6.77l-2.37.03c-.99.02-1.38.13-1.63.51-.18.27-.22.38-.27.5-.05.13-.1.16-.16.16-.05,0-.08-.05-.08-.14,0-.16.32-1.54.35-1.66.03-.1.1-.3.16-.3.11,0,.27.16.7.19.46.05,1.07.08,1.26.08h6c.51,0,.88-.03,1.14-.08.24-.03.38-.08.45-.08.08,0,.08.1.08.19,0,.48-.05,1.58-.05,1.76,0,.14-.05.21-.11.21-.08,0-.11-.05-.13-.27l-.02-.18c-.05-.48-.43-.85-1.97-.88l-2.02-.03v6.77Z"/><path class="e" d="m138.97,22.75c0-2.11,0-2.5-.03-2.93-.03-.46-.11-.69-.58-.75-.11-.02-.35-.03-.48-.03-.05,0-.11-.06-.11-.11,0-.08.06-.11.22-.11.64,0,1.55.03,1.63.03.1,0,3.04.02,3.36,0,.27-.02.53-.06.64-.08.06-.02.13-.06.19-.06.05,0,.06.06.06.13,0,.1-.08.26-.11.64-.02.13-.05.74-.08.9-.02.06-.06.14-.13.14-.08,0-.11-.06-.11-.18,0-.1-.02-.32-.08-.48-.1-.22-.24-.32-1.01-.42-.24-.03-1.87-.05-2.03-.05-.06,0-.08.05-.08.14v3.7c0,.1,0,.14.08.14.18,0,2.03,0,2.35-.03.34-.03.54-.05.69-.19.1-.1.16-.18.21-.18s.08.03.08.11-.08.3-.11.75c-.03.27-.06.78-.06.88,0,.11-.03.26-.13.26-.06,0-.1-.05-.1-.13,0-.13,0-.27-.06-.45-.05-.19-.18-.35-.72-.42-.38-.05-1.89-.06-2.13-.06-.08,0-.1.05-.1.1v1.14c0,.46-.02,2.05,0,2.32.03.91.29,1.09,1.68,1.09.37,0,1.04,0,1.41-.14.37-.16.56-.4.64-.94.03-.16.06-.21.14-.21s.1.11.1.21-.11,1.02-.19,1.31c-.1.35-.24.35-.78.35-1.06,0-1.87-.03-2.45-.05-.59-.03-.96-.03-1.17-.03-.03,0-.3,0-.61.02-.27.02-.59.03-.82.03-.14,0-.22-.03-.22-.11,0-.05.03-.11.11-.11.13,0,.3-.05.43-.06.27-.05.3-.32.37-.72.08-.56.08-1.63.08-2.95v-2.4Z"/><path class="e" d="m150.36,23.84l-2.24-3.65c-.32-.53-.59-.91-1.07-1.06-.22-.06-.51-.1-.59-.1s-.13-.08-.13-.13c0-.06.06-.1.24-.1.4,0,1.54.03,1.65.03.13,0,.9-.03,1.38-.03.19,0,.24.03.24.1s-.05.13-.13.13c-.1,0-.27,0-.38.03-.13.02-.18.11-.18.21,0,.13.06.3.14.45.59,1.07,1.12,2.05,1.86,3.22.42-.59,1.91-2.88,2.03-3.17.11-.19.14-.32.14-.48,0-.1-.1-.18-.24-.22-.14-.03-.3-.03-.38-.03s-.13-.06-.13-.13.06-.1.24-.1c.53,0,1.12.03,1.25.03s.7-.03,1.18-.03c.16,0,.22.03.22.1,0,.05-.05.13-.14.13-.11,0-.32.02-.48.06-.4.13-.66.48-1.06,1.07l-2.26,3.3c.27.42,2.67,4.37,2.98,4.74.22.29.38.48.8.59.19.05.4.08.48.08s.11.05.11.11-.06.11-.19.11c-.86,0-1.54,0-2.3-.03-.37-.02-.43-.05-.43-.11,0-.05.03-.1.08-.11.08-.02.21-.16.08-.38-.77-1.33-1.54-2.64-2.38-4.02l-2.16,3.57c-.13.22-.18.46-.18.61,0,.13.1.19.22.22.08.02.19.03.26.03.08,0,.13.06.13.13s-.08.1-.18.1c-.34,0-1.26-.05-1.39-.05-.11,0-.82.05-1.28.05-.11,0-.13-.05-.13-.1,0-.06.03-.13.11-.13.11,0,.32-.03.53-.08.42-.11.7-.37,1.15-1.06l2.53-3.91Z"/><path class="e" d="m161.3,19.09c.18-.45.24-.53.34-.53.14,0,.19.19.34.5.26.58,2.51,6.19,3.38,8.26.51,1.22.9,1.39,1.2,1.49.21.06.42.08.56.08.08,0,.18.03.18.11s-.16.11-.32.11c-.21,0-1.25,0-2.22-.03-.27-.02-.5-.02-.5-.1,0-.06.03-.06.1-.1.08-.03.22-.14.13-.37l-1.26-3.12c-.03-.06-.05-.08-.13-.08h-3.25c-.06,0-.11.03-.14.11l-.8,2.18c-.13.34-.21.67-.21.91,0,.27.24.37.48.37h.13c.11,0,.14.05.14.11,0,.08-.08.11-.21.11-.34,0-1.1-.05-1.26-.05-.14,0-.85.05-1.42.05-.18,0-.27-.03-.27-.11,0-.06.06-.11.13-.11.1,0,.3-.02.42-.03.64-.08.91-.56,1.18-1.25l3.31-8.51Zm1.57,5.67c.06,0,.06-.03.05-.1l-1.39-3.73c-.08-.21-.16-.21-.24,0l-1.31,3.73c-.02.06,0,.1.05.1h2.85Z"/><path class="e" d="m168.76,28.92c-.19-.1-.21-.14-.21-.51,0-.67.06-1.22.08-1.44,0-.14.03-.22.11-.22s.13.05.13.16,0,.3.05.5c.22.99,1.28,1.34,2.22,1.34,1.39,0,2.11-.78,2.11-1.81s-.53-1.44-1.78-2.37l-.64-.48c-1.52-1.14-2.02-1.97-2.02-2.91,0-1.6,1.26-2.56,3.12-2.56.56,0,1.12.08,1.46.16.27.06.38.06.5.06s.14.02.14.1c0,.06-.06.51-.06,1.44,0,.21-.02.3-.11.3s-.11-.06-.13-.18c-.02-.16-.13-.53-.21-.67-.1-.16-.56-.67-1.82-.67-1.02,0-1.87.51-1.87,1.47,0,.86.43,1.36,1.82,2.3l.4.27c1.71,1.17,2.3,2.11,2.3,3.28,0,.8-.3,1.67-1.31,2.32-.59.38-1.47.48-2.24.48-.66,0-1.47-.1-2.05-.37Z"/><path class="e" d="m187.8,17.41c.19-.53.26-.62.35-.62s.16.08.35.58c.24.61,2.75,7.22,3.73,9.65.58,1.42,1.04,1.68,1.38,1.78.24.08.48.1.64.1.1,0,.16.02.16.1,0,.1-.14.13-.32.13-.24,0-1.41,0-2.51-.03-.3-.02-.48-.02-.48-.11,0-.06.05-.1.11-.11.1-.03.19-.18.1-.43l-1.49-3.94c-.03-.06-.06-.1-.14-.1h-3.44c-.08,0-.13.05-.16.13l-.96,2.83c-.14.4-.22.78-.22,1.07,0,.32.34.46.61.46h.16c.11,0,.16.03.16.1,0,.1-.1.13-.24.13-.38,0-1.07-.05-1.25-.05s-1.06.05-1.81.05c-.21,0-.3-.03-.3-.13,0-.06.06-.1.14-.1.11,0,.34-.02.46-.03.74-.1,1.06-.7,1.34-1.5l3.63-9.94Zm1.66,6.4c.08,0,.08-.05.06-.11l-1.52-4.32c-.08-.24-.16-.24-.24,0l-1.41,4.32c-.03.08,0,.11.05.11h3.06Z"/><path class="e" d="m195.44,25.79c0-1.87,1.2-3.12,2.45-3.86-.59-.83-.78-1.49-.78-2.21,0-1.26,1.3-2.95,3.44-2.95.82,0,1.5.16,1.94.4.19.11.21.21.21.4,0,.48-.06,1.6-.11,1.84s-.1.27-.16.27c-.08,0-.1-.06-.1-.3,0-.42-.1-.94-.5-1.36-.35-.37-.9-.7-1.6-.7-.96,0-2.03.59-2.03,2.1,0,1.25.86,2.29,2.53,4.1.54.59,2.51,2.43,3.03,2.87.45-.61.82-1.68.82-2.66,0-.24-.06-.54-.3-.78-.21-.21-.54-.26-.78-.26-.1,0-.19-.03-.19-.11s.13-.11.26-.11c.38,0,1.02.02,1.92.11.24.03.29.16.29.32,0,1.3-.88,2.91-1.58,3.78,1.06.9,1.76,1.33,2.21,1.58.51.3,1.33.62,1.91.62.14,0,.22.02.22.11,0,.06-.13.11-.27.11h-1.57c-1.18,0-1.57-.11-3.33-1.5-.37.37-1.63,1.73-4,1.73-2.8,0-3.89-2.15-3.89-3.54Zm7.47,1.5c-.9-.74-2.48-2.26-2.9-2.71s-1.44-1.58-1.89-2.24c-.83.54-1.44,1.41-1.44,2.69,0,2,1.41,3.44,3.2,3.44,1.49,0,2.48-.62,3.03-1.18Z"/><path class="e" d="m222.6,27.04c.06.58.18,1.47.86,1.7.46.14.88.14,1.04.14.08,0,.13.02.13.08,0,.1-.14.14-.34.14-.35,0-2.08-.05-2.67-.1-.37-.03-.45-.08-.45-.16,0-.06.03-.1.11-.11.08-.02.1-.29.06-.58l-.77-8.26h-.05l-3.92,8.32c-.34.7-.38.85-.53.85-.11,0-.19-.16-.5-.74-.42-.78-1.79-3.55-1.87-3.71-.14-.29-1.94-4.13-2.11-4.56h-.06l-.64,7.43c-.02.26-.02.54-.02.82,0,.24.18.45.42.5.27.06.51.08.61.08.06,0,.13.03.13.08,0,.11-.1.14-.29.14-.59,0-1.36-.05-1.49-.05-.14,0-.91.05-1.34.05-.16,0-.27-.03-.27-.14,0-.05.08-.08.16-.08.13,0,.24,0,.48-.05.53-.1.58-.72.64-1.33l1.15-10.44c.02-.18.08-.29.18-.29s.16.06.24.24l4.9,10.07,4.71-10.05c.06-.14.13-.26.24-.26s.16.13.19.43l1.07,9.83Z"/><path class="e" d="m233.36,21.65c0-2.5,0-2.95-.03-3.46-.03-.54-.16-.8-.69-.91-.13-.03-.4-.05-.54-.05-.06,0-.13-.03-.13-.1,0-.1.08-.13.26-.13.72,0,1.7.05,1.84.05s1.1-.05,1.58-.05c.18,0,.26.03.26.13,0,.06-.06.1-.13.1-.11,0-.21.02-.4.05-.43.06-.56.35-.59.91-.03.51-.03.96-.03,3.46v2.24c0,2.3.51,3.3,1.2,3.95.78.74,1.5.88,2.42.88.98,0,1.94-.46,2.51-1.15.74-.91.93-2.27.93-3.92v-2c0-2.5,0-2.95-.03-3.46-.03-.54-.16-.8-.69-.91-.13-.03-.4-.05-.54-.05-.06,0-.13-.03-.13-.1,0-.1.08-.13.26-.13.72,0,1.6.05,1.7.05.11,0,.86-.05,1.34-.05.18,0,.26.03.26.13,0,.06-.06.1-.13.1-.11,0-.21.02-.4.05-.43.1-.56.35-.59.91-.03.51-.03.96-.03,3.46v1.71c0,1.73-.19,3.65-1.47,4.79-1.15,1.02-2.35,1.18-3.3,1.18-.54,0-2.16-.06-3.3-1.14-.78-.75-1.39-1.87-1.39-4.21v-2.34Z"/><path class="e" d="m248.6,27.25c.03,1.12.16,1.46.54,1.55.26.06.58.08.7.08.06,0,.11.05.11.11,0,.08-.1.11-.26.11-.8,0-1.36-.05-1.49-.05s-.72.05-1.36.05c-.14,0-.22-.02-.22-.11,0-.06.05-.11.11-.11.11,0,.37-.02.58-.08.35-.1.4-.46.4-1.7v-7.79c0-.54.08-.69.19-.69.16,0,.4.27.54.42.22.22,2.27,2.4,4.45,4.64,1.39,1.44,2.9,3.06,3.33,3.5l-.14-6.82c-.02-.88-.1-1.18-.53-1.26-.26-.05-.58-.06-.69-.06-.1,0-.11-.08-.11-.13,0-.08.11-.1.27-.1.64,0,1.31.03,1.47.03s.62-.03,1.2-.03c.14,0,.26.02.26.1,0,.05-.06.13-.16.13-.06,0-.18,0-.34.03-.46.1-.5.37-.5,1.18l-.03,7.97c0,.9-.02.98-.11.98-.14,0-.29-.11-1.07-.83-.14-.13-2.18-2.13-3.67-3.68-1.63-1.71-3.22-3.38-3.65-3.86l.16,6.42Z"/><path class="e" d="m263.41,25.15c0,1.31,0,2.38.06,2.95.05.4.1.66.51.72.21.03.51.06.64.06.08,0,.11.06.11.11,0,.06-.06.11-.22.11-.78,0-1.7-.05-1.76-.05-.08,0-.96.05-1.39.05-.14,0-.22-.03-.22-.11,0-.05.03-.11.11-.11.13,0,.3-.03.43-.06.27-.06.32-.32.37-.72.06-.56.08-1.63.08-2.95v-2.4c0-2.11,0-2.5-.03-2.93-.03-.46-.14-.67-.45-.74-.16-.03-.34-.05-.43-.05-.06,0-.11-.06-.11-.11,0-.08.06-.11.22-.11.46,0,1.34.03,1.42.03.06,0,.98-.03,1.41-.03.16,0,.22.03.22.11,0,.05-.06.11-.11.11-.1,0-.19,0-.35.03-.38.08-.46.27-.5.75-.02.43-.02.82-.02,2.93v2.4Z"/><path class="e" d="m272.25,27.33c.82-1.83,2.66-6.47,2.96-7.44.06-.21.13-.4.13-.51s-.05-.24-.19-.29c-.16-.05-.32-.05-.48-.05-.08,0-.16-.05-.16-.11,0-.08.1-.11.32-.11.56,0,1.2.03,1.38.03.08,0,.69-.03,1.1-.03.14,0,.22.03.22.1s-.05.13-.16.13c-.1,0-.42,0-.67.16-.19.13-.42.32-.79,1.25-.16.38-.85,2.02-1.57,3.68-.86,1.98-1.49,3.46-1.81,4.13-.38.82-.46,1.02-.61,1.02-.16,0-.26-.18-.53-.83l-3.46-8.34c-.32-.77-.51-.91-.98-1.02-.22-.05-.46-.05-.54-.05s-.11-.08-.11-.13c0-.08.14-.1.37-.1.67,0,1.47.03,1.65.03.14,0,.77-.03,1.31-.03.26,0,.38.03.38.1s-.05.13-.14.13c-.16,0-.38.02-.51.06-.14.06-.16.14-.16.24,0,.18.18.59.38,1.14l2.66,6.85Z"/><path class="e" d="m280.4,22.75c0-2.11,0-2.5-.03-2.93-.03-.46-.11-.69-.58-.75-.11-.02-.35-.03-.48-.03-.05,0-.11-.06-.11-.11,0-.08.06-.11.22-.11.64,0,1.55.03,1.63.03.1,0,3.04.02,3.36,0,.27-.02.53-.06.64-.08.06-.02.13-.06.19-.06.05,0,.06.06.06.13,0,.1-.08.26-.11.64-.02.13-.05.74-.08.9-.02.06-.06.14-.13.14-.08,0-.11-.06-.11-.18,0-.1-.02-.32-.08-.48-.1-.22-.24-.32-1.01-.42-.24-.03-1.87-.05-2.03-.05-.06,0-.08.05-.08.14v3.7c0,.1,0,.14.08.14.18,0,2.03,0,2.35-.03.34-.03.54-.05.69-.19.1-.1.16-.18.21-.18s.08.03.08.11-.08.3-.11.75c-.03.27-.06.78-.06.88,0,.11-.03.26-.13.26-.06,0-.1-.05-.1-.13,0-.13,0-.27-.06-.45-.05-.19-.18-.35-.72-.42-.38-.05-1.89-.06-2.13-.06-.08,0-.1.05-.1.1v1.14c0,.46-.02,2.05,0,2.32.03.91.29,1.09,1.68,1.09.37,0,1.04,0,1.41-.14.37-.16.56-.4.64-.94.03-.16.06-.21.14-.21s.1.11.1.21-.11,1.02-.19,1.31c-.1.35-.24.35-.78.35-1.06,0-1.87-.03-2.45-.05-.59-.03-.96-.03-1.17-.03-.03,0-.3,0-.61.02-.27.02-.59.03-.82.03-.14,0-.22-.03-.22-.11,0-.05.03-.11.11-.11.13,0,.3-.05.43-.06.27-.05.3-.32.37-.72.08-.56.08-1.63.08-2.95v-2.4Z"/><path class="e" d="m290.02,22.75c0-2.11,0-2.5-.03-2.93-.03-.46-.11-.69-.58-.75-.11-.02-.35-.03-.48-.03-.05,0-.11-.06-.11-.11,0-.08.06-.11.22-.11.64,0,1.58.03,1.66.03.14,0,1.33-.03,1.76-.03.9,0,1.89.08,2.62.59.35.26.98.91.98,1.86,0,1.01-.42,1.98-1.73,3.11,1.15,1.44,2.13,2.67,2.95,3.52.75.77,1.22.9,1.57.95.27.05.42.05.5.05s.13.06.13.11c0,.08-.08.11-.34.11h-.88c-.8,0-1.15-.08-1.5-.27-.61-.32-1.12-.98-1.92-2-.59-.74-1.22-1.62-1.52-1.99-.06-.06-.1-.08-.19-.08l-1.79-.03c-.06,0-.1.03-.1.11v.32c0,1.31,0,2.37.06,2.93.05.4.13.66.56.72.19.03.5.06.62.06.1,0,.11.06.11.11,0,.06-.06.11-.22.11-.77,0-1.67-.05-1.73-.05-.02,0-.96.05-1.39.05-.14,0-.22-.03-.22-.11,0-.05.03-.11.11-.11.13,0,.3-.03.43-.06.27-.06.3-.32.37-.72.08-.56.08-1.63.08-2.95v-2.4Zm1.22,1.15c0,.08.03.13.1.18.21.11.93.21,1.55.21.34,0,.72-.02,1.06-.24.48-.32.85-1.04.85-2.08,0-1.7-.93-2.67-2.43-2.67-.42,0-.87.05-1.01.08-.06.03-.11.08-.11.16v4.37Z"/><path class="e" d="m300.39,28.92c-.19-.1-.21-.14-.21-.51,0-.67.06-1.22.08-1.44,0-.14.03-.22.11-.22s.13.05.13.16,0,.3.05.5c.22.99,1.28,1.34,2.22,1.34,1.39,0,2.11-.78,2.11-1.81s-.53-1.44-1.78-2.37l-.64-.48c-1.52-1.14-2.02-1.97-2.02-2.91,0-1.6,1.26-2.56,3.12-2.56.56,0,1.12.08,1.46.16.27.06.38.06.5.06s.14.02.14.1c0,.06-.06.51-.06,1.44,0,.21-.02.3-.11.3s-.11-.06-.13-.18c-.02-.16-.13-.53-.21-.67-.1-.16-.56-.67-1.82-.67-1.02,0-1.87.51-1.87,1.47,0,.86.43,1.36,1.82,2.3l.4.27c1.71,1.17,2.3,2.11,2.3,3.28,0,.8-.3,1.67-1.31,2.32-.59.38-1.47.48-2.24.48-.66,0-1.47-.1-2.05-.37Z"/><path class="e" d="m312.04,25.15c0,1.31,0,2.38.06,2.95.05.4.1.66.51.72.21.03.51.06.64.06.08,0,.11.06.11.11,0,.06-.06.11-.22.11-.78,0-1.7-.05-1.76-.05-.08,0-.96.05-1.39.05-.14,0-.22-.03-.22-.11,0-.05.03-.11.11-.11.13,0,.3-.03.43-.06.27-.06.32-.32.37-.72.06-.56.08-1.63.08-2.95v-2.4c0-2.11,0-2.5-.03-2.93-.03-.46-.14-.67-.45-.74-.16-.03-.34-.05-.43-.05-.06,0-.11-.06-.11-.11,0-.08.06-.11.22-.11.46,0,1.34.03,1.42.03.06,0,.98-.03,1.41-.03.16,0,.22.03.22.11,0,.05-.06.11-.11.11-.1,0-.19,0-.35.03-.38.08-.46.27-.5.75-.02.43-.02.82-.02,2.93v2.4Z"/><path class="e" d="m320.85,25.15c0,1.31,0,2.38.06,2.95.05.4.11.66.54.72.19.03.51.06.64.06.1,0,.11.06.11.11,0,.06-.06.11-.22.11-.77,0-1.66-.05-1.74-.05-.06,0-1.04.05-1.46.05-.16,0-.22-.03-.22-.11,0-.05.03-.1.11-.1.13,0,.29-.03.42-.06.29-.06.37-.34.42-.74.06-.56.06-1.63.06-2.95v-5.71l-2.03.03c-.88.02-1.22.11-1.42.43-.16.24-.18.34-.22.43-.03.11-.08.13-.14.13-.03,0-.1-.03-.1-.11,0-.14.29-1.36.3-1.47.03-.08.1-.26.14-.26.1,0,.24.11.62.16.4.05.94.06,1.1.06h5.31c.46,0,.79-.03,1.01-.06.21-.03.34-.06.4-.06s.06.08.06.16c0,.42-.05,1.39-.05,1.55,0,.11-.06.18-.13.18s-.1-.05-.11-.24l-.02-.14c-.05-.42-.35-.72-1.7-.75l-1.76-.03v5.71Z"/><path class="e" d="m329.94,25.57c0-.74-.1-1.01-.3-1.39-.11-.21-2.02-3.23-2.5-3.95-.34-.51-.67-.82-.93-.99-.21-.13-.48-.19-.59-.19-.08,0-.14-.06-.14-.13s.05-.1.18-.1c.27,0,1.33.03,1.39.03.1,0,.67-.03,1.22-.03.16,0,.19.03.19.1,0,.05-.1.1-.22.14-.11.05-.18.11-.18.22,0,.19.1.35.19.53l2.56,4.24c.29-.58,2.05-3.49,2.3-3.94.18-.3.24-.53.24-.71,0-.19-.06-.3-.22-.35-.13-.03-.21-.1-.21-.16,0-.05.08-.08.22-.08.37,0,.86.03.98.03.1,0,1.1-.03,1.38-.03.1,0,.18.03.18.08,0,.06-.06.14-.18.14-.16,0-.43.05-.66.18-.27.16-.4.3-.7.67-.46.54-2.45,3.75-2.74,4.32-.24.48-.18.91-.18,1.36v1.17c0,.22,0,.8.05,1.36.03.4.13.66.54.72.19.03.51.06.64.06.08,0,.11.06.11.11,0,.06-.08.11-.22.11-.78,0-1.7-.05-1.78-.05-.06,0-.96.05-1.38.05-.16,0-.22-.03-.22-.11,0-.05.03-.11.11-.11.13,0,.29-.03.42-.06.29-.06.38-.32.42-.72.03-.56.03-1.14.03-1.36v-1.17Z"/><path class="e" d="m343.7,28.9c-.22-.11-.24-.18-.24-.61,0-.8.06-1.44.08-1.7.02-.18.05-.26.13-.26.1,0,.11.05.11.18,0,.14,0,.37.05.59.24,1.18,1.3,1.63,2.37,1.63,1.54,0,2.29-1.1,2.29-2.13,0-1.1-.46-1.74-1.84-2.88l-.72-.59c-1.7-1.39-2.08-2.38-2.08-3.47,0-1.71,1.28-2.88,3.31-2.88.62,0,1.09.06,1.49.16.3.06.43.08.56.08s.16.03.16.11-.06.61-.06,1.7c0,.26-.03.37-.11.37-.1,0-.11-.08-.13-.21-.02-.19-.11-.62-.21-.8-.1-.18-.53-.85-2-.85-1.1,0-1.97.69-1.97,1.86,0,.91.42,1.49,1.95,2.69l.45.35c1.89,1.49,2.34,2.48,2.34,3.76,0,.66-.26,1.87-1.36,2.66-.69.48-1.55.67-2.42.67-.75,0-1.49-.11-2.14-.43Z"/><path class="e" d="m355.88,25.57c0-.74-.1-1.01-.3-1.39-.11-.21-2.02-3.23-2.5-3.95-.34-.51-.67-.82-.93-.99-.21-.13-.48-.19-.59-.19-.08,0-.14-.06-.14-.13s.05-.1.18-.1c.27,0,1.33.03,1.39.03.1,0,.67-.03,1.22-.03.16,0,.19.03.19.1,0,.05-.1.1-.22.14-.11.05-.18.11-.18.22,0,.19.1.35.19.53l2.56,4.24c.29-.58,2.05-3.49,2.3-3.94.18-.3.24-.53.24-.71,0-.19-.06-.3-.22-.35-.13-.03-.21-.1-.21-.16,0-.05.08-.08.22-.08.37,0,.86.03.98.03.1,0,1.1-.03,1.38-.03.1,0,.18.03.18.08,0,.06-.06.14-.18.14-.16,0-.43.05-.66.18-.27.16-.4.3-.7.67-.46.54-2.45,3.75-2.74,4.32-.24.48-.18.91-.18,1.36v1.17c0,.22,0,.8.05,1.36.03.4.13.66.54.72.19.03.51.06.64.06.08,0,.11.06.11.11,0,.06-.08.11-.22.11-.78,0-1.7-.05-1.78-.05-.06,0-.96.05-1.38.05-.16,0-.22-.03-.22-.11,0-.05.03-.11.11-.11.13,0,.29-.03.42-.06.29-.06.38-.32.42-.72.03-.56.03-1.14.03-1.36v-1.17Z"/><path class="e" d="m363.11,28.92c-.19-.1-.21-.14-.21-.51,0-.67.06-1.22.08-1.44,0-.14.03-.22.11-.22s.13.05.13.16,0,.3.05.5c.22.99,1.28,1.34,2.22,1.34,1.39,0,2.11-.78,2.11-1.81s-.53-1.44-1.78-2.37l-.64-.48c-1.52-1.14-2.02-1.97-2.02-2.91,0-1.6,1.26-2.56,3.12-2.56.56,0,1.12.08,1.46.16.27.06.38.06.5.06s.14.02.14.1c0,.06-.06.51-.06,1.44,0,.21-.02.3-.11.3s-.11-.06-.13-.18c-.02-.16-.13-.53-.21-.67-.1-.16-.56-.67-1.82-.67-1.02,0-1.87.51-1.87,1.47,0,.86.43,1.36,1.82,2.3l.4.27c1.71,1.17,2.3,2.11,2.3,3.28,0,.8-.3,1.67-1.31,2.32-.59.38-1.47.48-2.24.48-.66,0-1.47-.1-2.05-.37Z"/><path class="e" d="m376.55,25.15c0,1.31,0,2.38.06,2.95.05.4.11.66.54.72.19.03.51.06.64.06.1,0,.11.06.11.11,0,.06-.06.11-.22.11-.77,0-1.66-.05-1.74-.05-.06,0-1.04.05-1.46.05-.16,0-.22-.03-.22-.11,0-.05.03-.1.11-.1.13,0,.29-.03.42-.06.29-.06.37-.34.42-.74.06-.56.06-1.63.06-2.95v-5.71l-2.03.03c-.88.02-1.22.11-1.42.43-.16.24-.18.34-.22.43-.03.11-.08.13-.14.13-.03,0-.1-.03-.1-.11,0-.14.29-1.36.3-1.47.03-.08.1-.26.14-.26.1,0,.24.11.62.16.4.05.94.06,1.1.06h5.31c.46,0,.79-.03,1.01-.06.21-.03.34-.06.4-.06s.06.08.06.16c0,.42-.05,1.39-.05,1.55,0,.11-.06.18-.13.18s-.1-.05-.11-.24l-.02-.14c-.05-.42-.35-.72-1.7-.75l-1.76-.03v5.71Z"/><path class="e" d="m384.03,22.75c0-2.11,0-2.5-.03-2.93-.03-.46-.11-.69-.58-.75-.11-.02-.35-.03-.48-.03-.05,0-.11-.06-.11-.11,0-.08.06-.11.22-.11.64,0,1.55.03,1.63.03.1,0,3.04.02,3.36,0,.27-.02.53-.06.64-.08.06-.02.13-.06.19-.06.05,0,.06.06.06.13,0,.1-.08.26-.11.64-.02.13-.05.74-.08.9-.02.06-.06.14-.13.14-.08,0-.11-.06-.11-.18,0-.1-.02-.32-.08-.48-.1-.22-.24-.32-1.01-.42-.24-.03-1.87-.05-2.03-.05-.06,0-.08.05-.08.14v3.7c0,.1,0,.14.08.14.18,0,2.03,0,2.35-.03.34-.03.54-.05.69-.19.1-.1.16-.18.21-.18s.08.03.08.11-.08.3-.11.75c-.03.27-.06.78-.06.88,0,.11-.03.26-.13.26-.06,0-.1-.05-.1-.13,0-.13,0-.27-.06-.45-.05-.19-.18-.35-.72-.42-.38-.05-1.89-.06-2.13-.06-.08,0-.1.05-.1.1v1.14c0,.46-.02,2.05,0,2.32.03.91.29,1.09,1.68,1.09.37,0,1.04,0,1.41-.14.37-.16.56-.4.64-.94.03-.16.06-.21.14-.21s.1.11.1.21-.11,1.02-.19,1.31c-.1.35-.24.35-.78.35-1.06,0-1.87-.03-2.45-.05-.59-.03-.96-.03-1.17-.03-.03,0-.3,0-.61.02-.27.02-.59.03-.82.03-.14,0-.22-.03-.22-.11,0-.05.03-.11.11-.11.13,0,.3-.05.43-.06.27-.05.3-.32.37-.72.08-.56.08-1.63.08-2.95v-2.4Z"/><path class="e" d="m404.2,27.35c.05.48.14,1.22.72,1.41.4.13.77.13.91.13.06,0,.11.03.11.1,0,.08-.13.13-.29.13-.32,0-1.89-.03-2.4-.08-.34-.03-.4-.08-.4-.14,0-.05.03-.1.1-.11.08-.02.1-.22.06-.48l-.67-6.88h-.03l-3.39,6.95c-.29.59-.37.72-.5.72s-.21-.13-.48-.62c-.37-.67-1.3-2.42-1.65-3.15-.42-.86-1.55-3.15-1.79-3.71h-.06l-.54,6.15c-.02.21-.02.46-.02.69,0,.21.13.34.34.38.24.06.45.08.54.08.05,0,.11.05.11.1,0,.1-.1.13-.26.13-.53,0-1.2-.05-1.31-.05-.13,0-.8.05-1.18.05-.14,0-.24-.03-.24-.13,0-.05.06-.1.14-.1.11,0,.21-.02.42-.05.46-.08.48-.58.54-1.09l1.02-8.88c.02-.14.08-.24.16-.24.1,0,.21.05.29.21l4.26,8.45,4.1-8.44c.06-.13.13-.22.22-.22s.18.11.21.37l.96,8.36Z"/><path class="e" d="m96,49.08l4.65,1.41c-.31,1.3-.8,2.39-1.48,3.27s-1.51,1.54-2.5,1.98-2.26.67-3.8.67c-1.87,0-3.39-.27-4.58-.81-1.18-.54-2.21-1.5-3.06-2.86s-1.29-3.12-1.29-5.25c0-2.84.76-5.03,2.27-6.55,1.51-1.53,3.65-2.29,6.42-2.29,2.16,0,3.87.44,5.1,1.31s2.16,2.22,2.76,4.03l-4.69,1.04c-.16-.52-.34-.91-.52-1.15-.3-.41-.66-.72-1.09-.94s-.91-.33-1.44-.33c-1.2,0-2.12.48-2.77,1.45-.48.72-.73,1.85-.73,3.38,0,1.9.29,3.21.87,3.92s1.39,1.06,2.44,1.06,1.78-.29,2.3-.86.9-1.4,1.13-2.48Z"/><path class="e" d="m101.5,38.93h5.9l3.46,5.8,3.47-5.8h5.87l-6.68,9.98v7.2h-5.32v-7.2l-6.69-9.98Z"/><path class="e" d="m121.91,38.93h9.94c1.66,0,2.93.41,3.81,1.23s1.33,1.84,1.33,3.05c0,1.02-.32,1.89-.95,2.61-.42.48-1.04.87-1.85,1.15,1.23.3,2.14.81,2.72,1.53s.87,1.63.87,2.72c0,.89-.21,1.69-.62,2.4s-.98,1.27-1.7,1.69c-.45.26-1.12.45-2.02.56-1.2.16-1.99.23-2.38.23h-9.16v-17.18Zm5.36,6.74h2.31c.83,0,1.4-.14,1.73-.43s.49-.7.49-1.24c0-.5-.16-.89-.49-1.17s-.89-.42-1.69-.42h-2.34v3.26Zm0,6.75h2.71c.91,0,1.56-.16,1.93-.49s.56-.76.56-1.31c0-.51-.19-.92-.56-1.22s-1.02-.46-1.95-.46h-2.7v3.48Z"/><path class="e" d="m140.55,38.93h14.23v3.67h-8.91v2.73h8.26v3.5h-8.26v3.39h9.16v3.89h-14.48v-17.18Z"/><path class="e" d="m157.97,56.11v-17.18h8.85c1.64,0,2.89.14,3.76.42s1.57.8,2.1,1.56.8,1.69.8,2.78c0,.95-.2,1.78-.61,2.47-.41.69-.97,1.25-1.68,1.68-.45.27-1.08.5-1.86.68.63.21,1.09.42,1.38.63.19.14.48.44.85.9.37.46.62.82.74,1.07l2.57,4.98h-6l-2.84-5.25c-.36-.68-.68-1.12-.96-1.32-.38-.27-.82-.4-1.3-.4h-.47v6.97h-5.33Zm5.33-10.22h2.24c.24,0,.71-.08,1.41-.23.35-.07.64-.25.86-.54s.33-.62.33-1c0-.55-.18-.98-.53-1.28s-1.01-.45-1.98-.45h-2.33v3.49Z"/><path class="e" d="m175.64,50.43l5.05-.32c.11.82.33,1.45.67,1.88.55.7,1.33,1.04,2.34,1.04.76,0,1.34-.18,1.75-.53s.62-.77.62-1.24-.2-.84-.59-1.2-1.3-.68-2.72-1c-2.33-.52-3.99-1.22-4.98-2.09-1-.87-1.5-1.97-1.5-3.32,0-.88.26-1.72.77-2.5s1.28-1.4,2.31-1.85,2.44-.67,4.22-.67c2.2,0,3.87.41,5.02,1.22s1.84,2.12,2.06,3.9l-5,.29c-.13-.77-.41-1.34-.84-1.69s-1.01-.53-1.76-.53c-.62,0-1.08.13-1.39.39s-.47.58-.47.96c0,.27.13.52.39.74.25.23.84.44,1.78.63,2.32.5,3.98,1.01,4.99,1.52s1.73,1.15,2.19,1.9.69,1.61.69,2.54c0,1.1-.3,2.12-.91,3.05s-1.46,1.63-2.55,2.12-2.47.72-4.14.72c-2.92,0-4.95-.56-6.07-1.69s-1.76-2.55-1.91-4.29Z"/><path class="e" d="m193.89,38.93h14.23v3.67h-8.91v2.73h8.26v3.5h-8.26v3.39h9.16v3.89h-14.48v-17.18Z"/><path class="e" d="m222.67,49.08l4.65,1.41c-.31,1.3-.8,2.39-1.48,3.27s-1.51,1.54-2.5,1.98-2.26.67-3.8.67c-1.87,0-3.39-.27-4.58-.81-1.18-.54-2.21-1.5-3.06-2.86s-1.29-3.12-1.29-5.25c0-2.84.76-5.03,2.27-6.55,1.51-1.53,3.65-2.29,6.42-2.29,2.16,0,3.87.44,5.1,1.31s2.16,2.22,2.76,4.03l-4.69,1.04c-.16-.52-.34-.91-.52-1.15-.3-.41-.66-.72-1.09-.94s-.91-.33-1.44-.33c-1.2,0-2.12.48-2.77,1.45-.48.72-.73,1.85-.73,3.38,0,1.9.29,3.21.87,3.92s1.39,1.06,2.44,1.06,1.78-.29,2.3-.86.9-1.4,1.13-2.48Z"/><path class="e" d="m241.08,38.93h5.3v10.24c0,1.01-.16,1.97-.47,2.88s-.81,1.69-1.49,2.37c-.68.67-1.38,1.15-2.13,1.42-1.03.38-2.27.57-3.71.57-.84,0-1.75-.06-2.74-.18s-1.81-.35-2.48-.7c-.66-.35-1.27-.84-1.82-1.48-.55-.64-.93-1.3-1.13-1.98-.33-1.09-.49-2.06-.49-2.9v-10.24h5.3v10.48c0,.94.26,1.67.78,2.2.52.53,1.24.79,2.16.79s1.63-.26,2.15-.78c.52-.52.78-1.25.78-2.21v-10.48Z"/><path class="e" d="m249.96,56.11v-17.18h8.85c1.64,0,2.89.14,3.76.42s1.57.8,2.1,1.56.8,1.69.8,2.78c0,.95-.2,1.78-.61,2.47-.41.69-.97,1.25-1.68,1.68-.45.27-1.08.5-1.86.68.63.21,1.09.42,1.38.63.19.14.48.44.85.9.37.46.62.82.74,1.07l2.57,4.98h-6l-2.84-5.25c-.36-.68-.68-1.12-.96-1.32-.38-.27-.82-.4-1.3-.4h-.47v6.97h-5.33Zm5.33-10.22h2.24c.24,0,.71-.08,1.41-.23.35-.07.64-.25.86-.54s.33-.62.33-1c0-.55-.18-.98-.53-1.28s-1.01-.45-1.98-.45h-2.33v3.49Z"/><path class="e" d="m268.77,38.93h5.32v17.18h-5.32v-17.18Z"/><path class="e" d="m276.69,38.93h16.14v4.24h-5.41v12.94h-5.31v-12.94h-5.41v-4.24Z"/><path class="e" d="m293.5,38.93h5.9l3.46,5.8,3.47-5.8h5.87l-6.68,9.98v7.2h-5.32v-7.2l-6.69-9.98Z"/><g class="g"><g class="h"><path class="f" d="m28.13,43.5h4.22v-2.17h-1.17l-2.9-6.73h.56v-2.17h-4.66v2.17h.64l-2.9,6.73h-1.2v2.17h4.22v-2.17h-.62l.48-1.12h3.48l.48,1.12h-.65v2.17Zm-2.38-5.45l.81-1.88.81,1.88h-1.62Zm12.83-9.7h4.98v2.64h4.73v-6.93h-24.14v6.96h4.71v-2.67h5.01v16.62h-2.66v4.73h10.01v-4.73h-2.65v-16.62Zm.67,18.58l.99-1.03v2.82l-.99-.95v-.84Zm8.09-16.85l-.99-.95v-2.54l.99-1.03v4.52Zm-21.23-4.05l-1.02-1h21.73l-1.28,1h-19.42Zm11.49,19.95l-.99.98v-20.57l.99,1v18.59Zm13.34-11.34v6.7h.86v2.17h-3.92v-2.17h.84v-4.77l-2.78,5.72-2.75-5.71v4.76h.86v2.17h-3.92v-2.17h.84v-6.7h-.79v-2.17h3.44l2.32,4.84,2.32-4.84h3.55v2.17h-.86Zm12.73,2.42l-.19-.04s-1.31,2.8-2.47,4.36c-.24.32-.56,1.29-.87,2.23-.2.6-.4,1.21-.54,1.49-.27.29-.44.47-.45.47h0s-.07.06-.1.09c.37-.85,1.35-3.26,1.48-5.06.04-.64.21-2.42.23-2.7.27-.25,2.16-2.01,2.64-3.87.54-2.14-.78-5.75-.83-5.9l-.13-.35-.06.37s-.32,1.92-1.38,4.31c-.32.73-.15,2.26-.03,3.27.04.34.08.7.06.76-.04.09-.1.18-.17.25-.1-.9-.47-4.46-.65-5.38-.2-1.02-.05-2.18-.05-2.19l.12-1.03c.09-.17.72-1.45.79-2.97.11-2.09-2.26-5.08-2.36-5.21l-.22-.28.05.35s.36,2.72.37,3.41c.02.86-.13,1.92-.13,1.94,0,1.01.82,2.78.93,3.04l-.05.31c-.29-.83-.98-2.78-1.31-3.37-.42-.74-1.33-1.99-1.5-2.22.06-.24.32-1.35.35-2.91.03-2.2-3.09-5.04-3.22-5.16l-.16.11s.59,1.36.63,2.93c.03,1.15.85,2.24.89,2.29,0,.01.94,1.09,1.08,1.5.08.24,0,.42-.07.52-.3-.44-1.45-2.08-1.62-2.25-.02-.02-.05-.05-.08-.08v-.05s-.19-.92-.46-1.47c.08-.1.13-.25.13-.41,0-.32-.2-.58-.45-.58-.25,0-.45.25-.45.58,0,.32.19.58.44.58.06,0,.11-.01.16-.04.16.34.28.82.35,1.12-.44-.46-1.13-1.21-1.26-1.35-.05-.3-.44-2.55-.75-3.43-.64-1.83-4.05-3.47-4.2-3.54l-.28-.13.15.27s1.28,2.29,1.5,3.08c.21.78,1.19,1.56,1.84,2.07.28.22.52.41.57.5.1.16.19.36.25.53l-2.21-1.78-1.42-.83c-.11-.36-.88-2.92-1.36-3.59-.81-1.13-3.85-1.72-3.98-1.74l-.07.18s.93.6,1.15,1.15c.19.47.58,1.35,1.09,1.9.45.48,1.96,1.45,2.15,1.57l.13.19-2.82-1.33-1.61-1.19c-.24-.25-1.35-.76-2.86-.8h-.07c-1.48,0-3.24.93-3.32.97l-.31.16.35.02c.65.05,1.74.21,1.93.46.44.57,2.23,1.2,3.56,1.24.55.02,1.02-.04,1.38-.09.25-.03.45-.06.59-.05.19.02.84.23,1.4.43-.47-.04-1.06-.07-1.49-.07h-.08c-2.11.03-4.59.69-4.62.7l-.26.07.24.12c.11.05,2.59,1.21,3.5,1.21h.03c.77-.02,1.55-.42,2.23-.78.49-.25.91-.47,1.18-.47.05,0,.09,0,.12.02.6.23,2.26.9,2.27.9l1.82,1.33h-.25c-.23-.16-2.06-1.3-3.02-1.33-.98-.03-3.16.47-3.25.49l-.26.06.24.12c.14.07,3.38,1.73,4.34,1.77.75.03,1.33-.16,1.79-.31.35-.11.63-.2.79-.13.44.18,1.68,1.29,1.69,1.3.54.53,1.58,1.59,2.14,2.16l-.14-.06c-.14-.18-1.18-1.46-2.32-1.86-1.19-.41-4.03-.67-4.15-.68l-.33-.03.25.21c.15.13,3.84,3.1,4.86,3.01.2-.02.36-.04.5-.05.17-.02.31-.04.43-.04.23,0,.42.05.85.34,1.19.8,3.41,3.82,3.5,5.38v.04c-.01-.06-.03-.13-.04-.19-.03-.09-.64-2.2-1.71-3.06-.7-.56-4.05-2.06-4.19-2.13l-.29-.13.17.27s1.64,2.66,2.39,3.92c.45.74,2.81,1.58,3.08,1.68l.7.67c.05.11.31.74.55,1.66-.11-.12-.22-.21-.29-.26.05-.09.07-.2.08-.32,0-.32-.2-.58-.45-.58-.25,0-.45.25-.45.58,0,.32.19.58.44.58.03,0,.06,0,.09-.01-.2.06-.35.29-.35.56,0,.15.04.28.11.38-.83-.99-1.94-2.11-2.01-2.18l-.23-.23.06.32s.71,3.58.81,4.1c.19,1,1.09,1.77,1.74,2.33.1.08.19.16.27.24.16.15.28.23.38.29.19.13.25.17.34.54.14.56-.08,3.01-.24,4.02-.17,1.04-.57,3.47-1.07,3.82-.03.02-.05.03-.07.04,0-.09.06-.35.16-.6.02-.08.6-2.08.69-2.97.03-.35-.18-1.57-.52-2.48-.33-.85-1.19-2.51-1.2-2.53l-.14-.27-.05.3s-.61,4.01-.68,4.72c-.18,1.75.96,3.78,1.1,4.01l.07.81c-.11.2-.81,1.41-1.24,2.27-.36.71-1.55,2.38-2.07,3.1l.02-.12c.19-.23,1.7-2.09,1.78-3.83.09-1.8-.11-3.81-.11-3.83l-.03-.31-.15.27c-.09.15-2.1,3.73-2.29,4.95-.19,1.21-.09,2.18.08,3.52.01.1-.08.54-1.74,2.09-1,.93-2.16,1.65-2.65,1.94l.03-.08c.26-.14,1.84-1.01,2.37-2.04.56-1.08.9-3.74.92-3.86l.04-.28-.2.2s-1.71,1.66-2.81,2.38c-.97.63-1.12,3.35-1.13,3.46v.02s0,.02,0,.02c0,.01.11.3-.19.66-.2.23-.84.61-1.91,1.12l-.1.05c-.43.21-1.27.61-1.92.91.63-.46,1.46-1.09,1.97-1.54.91-.79,1.94-3.08,1.98-3.18l.11-.24-.24.11c-.12.06-2.99,1.37-4.11,2.14-1.02.71-1.25,3.04-1.22,3.4.02.21-.51.4-.77.46l-.07.02-.02.76h.11s.22-.04.76.06c.5.09.82.57.82.57l.84.54h.03s.9.23,1.59.23c.16,0,.3-.01.42-.03,1.78-.35,3.77-1.93,3.85-2l.2-.16-.26-.02s-2.03-.12-2.62-.22c-.58-.1-.71-.11-.71-.1-.02,0-.47-.11-.98-.11-.25,0-.48.03-.67.08-.48.13-1.54.64-1.75.8-.1.07-.21.1-.31.09.68-.38,3.01-1.64,4.07-1.71.1,0,.2,0,.31,0,.32,0,.61.02.61.02.01,0,.45.11,1.7.4.07.02.16.02.26.02.77,0,2.47-.45,3.67-1.29,1.59-1.12,2.57-2.84,2.58-2.86l.14-.25-.26.11s-1.29.54-3.24.8c-.31.04-1.38.44-1.9.75-.65.4-1.18.82-1.56,1.12-.29.23-.52.41-.65.46-.23.09-.52.07-.69.01l2.9-1.76s2.33-2.11,2.63-2.37c.14-.12.61-.21,1.16-.31,1.17-.23,2.77-.53,3.45-1.47,1.07-1.48,2.3-4.42,2.31-4.45l.12-.28-.26.16s-2.34,1.45-3.53,2.35c-.91.69-1.28,1.25-1.85,2.08-.18.27-.39.58-.63.93-.08.11-.19.2-.3.26.64-.94,2.67-3.9,2.9-4.26.12-.19,1.15-1.96,1.28-2.2l1.11-.61c.15-.03,1.27-.32,2.43-1.67,1.45-1.7,1.4-4.01,1.4-4.11l.03-3.08Zm-9.59-18.7s-.06-.09-.09-.12l-.07-.07-.14.14.07.07s.06.08.09.13c-.02,0-.04.01-.06.01-.13,0-.25-.17-.25-.38,0-.21.11-.38.25-.38.13,0,.25.18.25.38,0,.08-.02.16-.05.22m6.25,25.31c.29-.88.63-1.88.84-2.17.68-.92,1.41-2.24,1.9-3.2-.12.82-.42,2.44-1.03,3.54-.57,1.04-1.42,2.09-2.05,2.82.1-.28.22-.62.34-.99m2.43-14.32c.36,1.26.8,3.27.46,4.62-.32,1.26-1.34,2.5-2.01,3.21.27-.8,1.07-3.18,1.26-4.07.25-1.19.29-2.88.29-3.76m-1.57,3.17c.8-1.8,1.18-3.33,1.32-4,.02.06.04.13.06.2,0,.02-.02.03-.02.05,0,.03.06,2.65-.28,4.28-.15.7-.69,2.37-1.04,3.41,0-.11-.01-.33-.07-.78-.11-.93-.29-2.49.01-3.17m-1.48-4.63c-.27-.64-.73-1.82-.73-2.53,0-.01.15-1.08.14-1.96-.01-.54-.21-2.2-.32-3,.42.66.71,2.21.86,3,.03.17.06.32.08.43.39,1.81.05,3.66-.03,4.05m-4.21-7.64s-.82-1.08-.85-2.17c-.03-1.09-.31-2.07-.49-2.6.03.03.06.06.09.09,0,.02,0,.05.01.07.02.03,2.02,3.12,2.2,4.37.11.77.07,1.27.02,1.54-.3-.51-.96-1.28-.99-1.31m-3.36-3.09c-.08-.12-.31-.3-.62-.55-.63-.5-1.58-1.25-1.77-1.97-.16-.59-.86-1.93-1.25-2.65.52.45,1.84,1.6,2.25,2.28.64,1.05,1.3,2.3,1.45,2.98-.02-.03-.03-.06-.05-.09m-6.57-4.2c-.49-.53-.87-1.38-1.05-1.84-.14-.36-.53-.72-.84-.96.07.02.16.04.25.06,0,.01.02.03.04.04.02,0,1.61.84,2.25,1.82.47.72,1.09,1.81,1.41,2.39-.32-.2-1.66-1.08-2.06-1.51m-5.22-1.22h.07c1.48.03,2.53.53,2.73.75l1.58,1.17c-1.55-.59-3.46-1.16-4.09-1.28-.52-.1-2.29.02-3.01.07.63-.28,1.76-.71,2.72-.71m4.2,2.32c-.16-.01-.38.02-.63.05-.36.05-.81.11-1.35.09-1.26-.04-3.01-.64-3.41-1.16-.16-.21-.65-.34-1.11-.42.83-.06,2.14-.12,2.56-.05.92.17,4.75,1.36,5.89,2.11-.48-.18-1.65-.6-1.95-.62m-.18.75h.08c.56,0,1.4.07,1.87.11-.71.18-2.47.6-3.03.53-.47-.07-2.19-.08-2.93-.08.85-.2,2.52-.54,4.01-.55m3.25,1.76c.75.02,2.14.82,2.7,1.15-.87-.03-1.67-.06-1.71-.05-.71.09-2.86-.52-3.6-.74.73-.15,1.96-.38,2.61-.36m4.96,3.54c.89.31,1.73,1.21,2.08,1.61-.44-.15-1.16-.41-1.77-.74-.8-.43-2.75-1.13-3.71-1.47.94.11,2.59.32,3.4.6m4.12,4.9c1.02.82,1.64,2.94,1.64,2.95.01.06.02.12.03.17-.5-.55-1.79-1.95-2.29-2.45-.48-.49-2.14-1.86-2.89-2.47,1.04.48,3,1.41,3.5,1.8m2.66,6.4l.02.07c.03.15.06.31.09.48-.11-.15-.23-.29-.31-.38.02-.07.04-.15.04-.23,0-.33-.19-.58-.45-.58-.03,0-.06,0-.09.01.06-.02.11-.04.15-.08.14.1.46.37.55.72m-.8-.82c-.13,0-.25-.18-.25-.38s.11-.38.25-.38c.13,0,.25.17.25.38,0,.08-.02.15-.05.21h0s-.05.08-.05.08c-.04.05-.09.08-.15.08m.18.37c.13,0,.25.18.25.38,0,.04,0,.07-.01.11-.02,0-.04,0-.06.02-.04.04-.04.1,0,.14-.04.07-.11.11-.17.11v.1-.1c-.13,0-.25-.17-.25-.38,0-.21.11-.38.25-.38m0,.96h0c.12,0,.23-.06.31-.16.14.16.36.42.44.6,0,.02.02.03.03.04.22,1.8.36,3.3.41,3.91l-.25-.28c.04-.25.16-1.35-.41-3.04-.09-.27-.4-.7-.78-1.17.07.06.16.1.25.1m.35,1.13c.46,1.37.46,2.35.42,2.77-.3-.42-1.15-1.63-1.51-2.35-.36-.72-1.12-2.71-1.38-3.41.72.74,2.25,2.37,2.46,2.99m-1.3,11.78c-.33-.63-1.07-2.25-.93-3.63.06-.53.41-2.92.59-4.08.18.94.57,3.11.55,4.33-.01,1.23-.15,2.73-.21,3.38m-1.72-.6c.05.73.12,2,.06,3.17-.07,1.37-1.09,2.86-1.54,3.46.12-.75.36-2.26.49-3.15.12-.81.75-2.73,1-3.48m-9.69,12.69c-.69.61-1.99,1.55-2.53,1.94.2-.5.71-1.73,1.08-2.06.41-.36,2.51-2.06,3.21-2.62-.34.69-1.1,2.16-1.76,2.73m-.76,2.65c.17-.05.38-.07.62-.07.49,0,.93.1.95.11,0,0,.13,0,.7.1.43.08,1.59.16,2.22.2-.64.31-2.31.73-3.63.75-1.09.02-2.07-.22-2.5-.35.26-.17,1.22-.63,1.65-.74m4.37-2.03c.38-.3.9-.71,1.54-1.1.52-.32,1.57-.69,1.82-.73,1.1-.15,2-.39,2.57-.57-.75.56-2.28,1.64-3.47,2.17-1.02.46-2.22.58-2.96.6.13-.09.3-.22.5-.37m5.64-5.63c.55-.82.91-1.37,1.8-2.04.84-.63,2.25-1.54,3-2.02-.48.67-1.57,2.15-2.4,3.01-.76.79-2.21,1.54-3.01,1.92.23-.33.43-.62.6-.88m6.47-7.79c-1.17,1.37-2.32,1.61-2.33,1.61l-1.2.65v.02s-1.19,2.01-1.31,2.21c-.26.42-3.06,4.49-3.08,4.53l-.15.22.26-.07s.11-.03.24-.09v.02c.11-.04,2.56-1.08,3.66-2.23.79-.82,1.8-2.18,2.32-2.9-.43.96-1.25,2.7-1.99,3.72-.64.88-2.19,1.18-3.33,1.4-.62.12-1.07.21-1.25.36-.3.26-2.54,2.29-2.62,2.37l-3.2,1.94.15.08s.22.12.51.14h0s.17.02.42.02c.69,0,2.12-.08,3.35-.63,1.36-.61,3.16-1.93,3.76-2.38-.37.56-1.17,1.65-2.29,2.43-1.16.82-2.81,1.25-3.56,1.25-.09,0-.16,0-.22-.02-1.26-.29-1.7-.4-1.71-.4-.02,0-.53-.05-.96-.02-1.28.09-4.22,1.77-4.34,1.84l-.14.08.13.09s.15.1.35.1c.06,0,.11,0,.17-.03.26.08,1.36.42,2.63.42.04,0,.08,0,.13,0,1.09-.02,2.47-.31,3.31-.61-.74.51-1.97,1.25-3.08,1.46-.11.02-.23.03-.38.03-.62,0-1.41-.18-1.53-.21l-.78-.49c-.07-.1-.4-.54-.94-.64-.34-.06-.57-.08-.7-.08v-.39c.24-.06.89-.27.86-.65-.03-.44.26-2.62,1.14-3.22.75-.51,2.35-1.3,3.3-1.76-.88.71-2.51,2.03-2.88,2.35-.51.45-1.19,2.28-1.22,2.36h.04s-.02.03-.02.03l.1.17s2.08-.95,2.85-1.34l.1-.05c.41-.2,1.64-.79,1.97-1.17.34-.39.26-.74.23-.84.01-.24.19-2.74,1.03-3.29.65-.42,1.51-1.17,2.11-1.72-.35.5-.86,1.2-1.3,1.82-.9,1.27-1.75,3.57-1.76,3.6l.19.07s.85-2.3,1.74-3.55c.62-.88,1.36-1.92,1.64-2.31-.12.8-.43,2.58-.84,3.39-.53,1.04-2.3,1.96-2.31,1.97l-.03.02-.26.67.24-.13s1.61-.89,2.93-2.11c1.24-1.16,1.85-1.92,1.81-2.26-.19-1.51-.25-2.37-.08-3.46.13-.87,1.28-3.07,1.89-4.2-.28.84-.84,2.57-.95,3.35-.17,1.21-.55,3.58-.56,3.6h.01s-.07.45-.07.45l.18.07c.08-.1,1.86-2.53,2.32-3.46.46-.92,1.24-2.27,1.25-2.28l.02-.03-.07-.88c.01-.11.22-2.14.24-3.71.01-1.25-.38-3.44-.56-4.39.28.56.7,1.42.91,1.95.35.91.54,2.1.51,2.39-.09.87-.68,2.91-.68,2.92-.08.19-.24.64-.14.8.06.09.18.1.34,0,.41-.28.74-1.42,1.15-3.95.14-.87.39-3.45.24-4.1-.1-.43-.2-.51-.42-.65-.09-.06-.21-.14-.36-.27-.09-.08-.18-.16-.28-.24-.63-.54-1.5-1.28-1.68-2.22-.07-.34-.39-1.98-.61-3.08.34.89.9,2.33,1.21,2.94.45.89,1.58,2.46,1.63,2.53h.02s0,0,0,0l.71.8-.02-.29s-.15-1.87-.44-4.25c-.04-.31-.09-.6-.14-.88h0s0-.03,0-.03c-.28-1.4-.72-2.37-.72-2.39l-.75-.73-.04-.02s-2.57-.89-2.99-1.6c-.55-.91-1.55-2.55-2.07-3.39.71.58,2.46,2.03,2.95,2.52.61.62,2.47,2.65,2.49,2.67.01.01.03.02.05.03.04.08.08.08.12.08.13,0,.15-.14.16-.55-.1-1.65-2.35-4.71-3.59-5.54-.61-.41-.83-.41-1.42-.34-.14.02-.3.04-.49.05h-.03c-.77,0-3.07-1.71-4.13-2.53.96.34,2.92,1.04,3.69,1.46.97.53,2.21.88,2.23.89h.03s.02,0,.02,0l.43.2.11-.16s-1.75-1.81-2.51-2.55c-.05-.05-1.28-1.14-1.75-1.33-.23-.09-.54,0-.93.13-.44.15-1,.33-1.72.3-.71-.03-2.84-1.05-3.79-1.52.69.21,2.96.87,3.72.77.07,0,1.5.04,2.44.08h0s.05-.01.07-.03l.4.02-2.38-1.73s-1.69-.68-2.29-.91c-.31-.12-.84.14-1.46.46-.67.34-1.43.74-2.17.76-.61,0-2.06-.6-2.86-.95.74,0,2.44.01,2.89.08.05,0,.11.01.18.01.91,0,3.13-.59,3.23-.62.05-.01.08-.07.07-.12,0-.03-.03-.05-.05-.06l.02-.09s0,0,0,0c.01,0,.02-.01.03-.03.03-.04.02-.08,0-.12l1.54.73-.3-.45h0s.07-.09.04-.14c0-.02-.98-1.78-1.64-2.8-.42-.65-1.2-1.21-1.74-1.55.92.28,2.02.72,2.44,1.3.48.67,1.34,3.54,1.34,3.56v.04s1.48.86,1.48.86l2.71,2.19-.09-.31s-.05-.18-.14-.38c0-.01.02-.02.02-.04.16-.76-1.33-3.2-1.5-3.48-.37-.6-1.39-1.54-2.01-2.08,1.07.6,2.87,1.78,3.3,3,.32.91.74,3.41.74,3.43v.03s.03.02.03.02c.06.06,1.44,1.54,1.63,1.73.15.15,1.26,1.73,1.67,2.33l.06.09.08-.07s.35-.31.21-.78c.05-.13.21-.71.04-1.86-.14-.94-1.2-2.78-1.81-3.78.93,1.03,2.17,2.66,2.15,3.99-.03,1.73-.35,2.9-.35,2.91v.05s.02.04.02.04c.01.01,1.06,1.44,1.51,2.24.41.72,1.41,3.68,1.42,3.71l.19-.02.12-.76v-.03s-.06-.1-.12-.24c.04,0,.08-.03.09-.07,0-.02.5-2.15.05-4.22-.02-.1-.05-.25-.08-.42-.12-.61-.29-1.53-.54-2.27.7,1.07,1.64,2.75,1.58,4.03-.08,1.55-.77,2.89-.78,2.91l-.13,1.08s-.15,1.2.05,2.25c.2,1.04.67,5.52.67,5.57l.02.18.14-.12s.22-.18.33-.39c-.15.44-.25.74-.25.75,0,.03,0,.06,0,.08-.2.2-.32.31-.33.32l-.03.03v.04s-.19,2.05-.24,2.75c-.15,2.17-1.58,5.27-1.6,5.31l-.13.28.27-.16s.5-.29.8-.67c.02-.03.05-.08.08-.14.63-.69,1.74-1.99,2.45-3.27.86-1.56,1.11-4.03,1.12-4.14h-.01c.05-.11.1-.21.15-.29l-.03,2.64s.05,2.33-1.35,3.97M29.28,13.26c1.17-.19,3.47-.78,3.5-.79.05-.01.11.02.12.07.01.05-.02.11-.07.12-.11.03-2.45.63-3.6.81.21.15.91.39,1.55.56.05.01.08.07.07.12-.01.04-.05.07-.1.07h-.02c-.72-.19-1.55-.46-1.72-.72,0,0-.02,0-.03,0-.44.05-1.01.26-1.51.48.18.12.49.3.8.34.05,0,.09.06.08.11,0,.05-.05.09-.1.09h-.01c-.43-.06-.82-.33-.99-.45-.51.24-.9.45-.91.46h-.05s-.07,0-.09-.04c-.03-.05,0-.11.04-.13.03-.02.41-.23.9-.46,0-.01,0-.02.02-.03.03-.03.07-.04.11-.03.54-.24,1.18-.49,1.68-.54.01,0,.03,0,.05,0,.17-.31.96-.76,1.33-.96.05-.03.11,0,.13.04.03.05,0,.11-.04.13-.5.27-.94.56-1.14.74m-10.74,7.8c0-.05.04-.1.09-.1.18,0,.42-.07.68-.16l.05-.06s.65-.78.93-.99c.04-.03.11-.02.14.02.03.04.02.11-.02.14-.18.13-.51.51-.72.75.33-.14.68-.3.97-.43.37-.17.67-.31.84-.36.09-.02.22-.08.36-.16l.04-.1s.27-.75.5-.98c.04-.04.1-.04.14,0,.04.04.04.1,0,.14-.13.13-.3.52-.4.76.02,0,.04,0,.06,0,.58-.34,1.26-.8,1.27-.8.05-.03.11-.02.14.03.03.05.02.11-.03.14-.03.02-.41.28-.85.55.24-.05.46-.12.55-.21.04-.04.1-.03.14,0s.03.1,0,.14c-.22.2-.81.3-1.16.34-.29.17-.55.3-.71.35-.16.04-.46.18-.81.35-.28.13-.58.27-.87.39.32.06.65.11.75.07.05-.02.11,0,.13.06.02.05,0,.11-.06.13-.05.02-.11.02-.19.02-.29,0-.73-.1-.96-.15-.33.13-.65.22-.9.23h0c-.05,0-.1-.04-.1-.09m-4.27,2.67c-.01.47-.02.82-.02.83,0,.05-.04.1-.1.1h0c-.05,0-.1-.05-.1-.1,0-.03,0-.37.02-.81h0c-.14-.31-.57-1.3-.46-1.55.02-.05.08-.07.13-.05.05.02.07.08.05.13-.04.09.11.54.3,1.01.02-.54.05-1.12.09-1.48.02-.14.07-.32.15-.53-.19-.28-.06-1.1.01-1.46.01-.05.06-.09.12-.08.05.01.09.06.08.12-.09.47-.12.92-.1,1.16.43-1,1.24-2.35,1.28-2.42.03-.05.09-.06.14-.03.05.03.06.09.03.14-.01.02-.9,1.51-1.32,2.5.25.02.81-.26,1.05-.46.04-.03.1-.03.14.01.03.04.03.1-.01.14-.2.17-.78.5-1.15.5-.03,0-.06,0-.09,0-.06.17-.11.33-.13.45-.05.39-.08,1.04-.1,1.62.27-.27.52-.56.52-.64,0-.05.05-.09.11-.09.05,0,.1.05.09.11-.02.22-.52.71-.73.91m19.38-11.21c-.06-.04-1.4-.89-1.87-1.01-.3-.08-.43.06-.55.2-.09.11-.19.23-.43.32-.1.04-.13.05-.2-.07-.05-.08-.12-.19-.28-.19-.13,0-.36.06-.98.57-.42.34-.59.39-.65.39-.04,0-.05-.01-.08-.15-.02-.1-.08-.28-.26-.24l.04-.05c.16-.21.05-.33-.05-.44-.07-.07-.14-.16-.18-.3-.04-.12.09-.27.21-.41.13-.15.25-.29.23-.45,0-.08-.05-.15-.12-.22-.02-.02-.07-.06-.41-.06-.01,0-1.47.01-1.63.38-.05.11-.23.18-.49.18-.19,0-.4-.03-.59-.09h-.07c-.28-.01-.42.46-.58,1.02-.1.36-.25.86-.38.9-.04.01-.07.02-.09.02h0s-.03,0-.06-.08c-.03-.09-.08-.26-.35-.26h0c-.32.01-.47.69-.64,1.65-.04.24-.09.51-.12.56-.1.17-1,1.26-1.6,1.69-.02.01-.02.02-.14.15-1.39,1.56-1.91,1.88-2.1,1.88-.03,0-.04,0-.05-.03-.12-.26.97-1.17,1.49-1.6.52-.44.71-.6.73-.71.01-.05,0-.09-.03-.13-.07-.1-.25-.11-.54-.12-.03,0-.06,0-.09,0,.03-.01.06-.03.11-.05.69-.29,1.12-.62,1.14-.89,0-.09-.03-.17-.11-.22l-.03-.02c0-.05.17-.21.29-.31.34-.3.85-.75.93-1.44v-.05s-.03-.03-.03-.03c-.08-.09-.52-.09-.54-.09-.3,0-.72.05-.97.29-.34.33-.47.41-.52.42v-.05c-.03-.1-.06-.32-.32-.27-.46.09-.56.69-.64,1.22-.05.3-.09.61-.2.74-.07.09-.13.1-.16.1-.08,0-.18-.05-.28-.11-.16-.09-.35-.2-.58-.17-.36.05-.37.93-.25,2.64.02.29.04.59.03.64-.01.05,0,.11,0,.16.02.2.07.58-.79,1.67v-.02c.11-.45-.1-1.1-.35-1.48-.11-.16-.21-.26-.3-.27h-.03c-.24,0-.49.41-.6.64-.13-.08-.1-.41-.08-.7.03-.33.05-.65-.12-.78-.05-.04-.13-.06-.21-.06-.11,0-.41.05-.7.5-.03.04-.05.1-.07.17-.08.23-.17.51-.64.51-.25,0-.33.26-.41.52-.09.31-.17.51-.37.51-.11,0-.17.05-.2.1-.14.19-.04.6.07,1.04.06.24.16.65.11.71,0,0-.02,0-.05-.01-.41-.15-.64-.18-.79-.02-.13.13-.17.39-.15.86.03.65.43,1.59.73,2.28.16.37.34.79.33.87-.03.08-.09.28-.17.54-.15.51-.39,1.28-.62,1.95-.19.53-.45,1.48-.69,2.32-.17.6-.36,1.27-.46,1.56-.09-.24-.21-.73-.14-1.06.03-.13.08-.21.15-.25.48-.22.67-1.1.65-1.36,0-.08-.04-.13-.09-.15-.04-.01-.1-.02-.15-.03-.05,0-.15-.02-.16-.04,0,0-.01-.06.17-.27.01-.01.99-1.25.86-1.54-.04-.09-.14-.12-.3-.05-.24.11-.31.08-.32.08-.02-.03,0-.15.09-.29.11-.18.24-.76.13-.96-.06-.11-.19-.12-.32,0l-.02.02c-.1-.02-.26-.57-.33-.81-.07-.24-.13-.45-.19-.55-.05-.08-.19-.27-.4-.27-.36,0-.62.55-.8,1.67-.14.88-.31.97-.37.97-.04,0-.08-.02-.12-.04-.11-.05-.24-.06-.31.05-.13.21-.02.5.13.89.12.32.27.71.34,1.18.05.35.02.45,0,.47,0,0-.01.02-.06.02-.02,0-.05,0-.08,0-.03,0-.07,0-.1,0-.06,0-.24,0-.34.21-.31.62.71,1.35,1.09,1.63l.02.02c.29.21.5.83.53.93,0,.22.08,2.99.07,3.56-.01.53.21,3.98.27,4.87-.18-.14-.44-.43-.43-.87,0-.34.09-.61.15-.84.07-.26.13-.45.03-.59-.05-.08-.14-.11-.24-.11-.08,0-.15.02-.23.04-.07.02-.13.03-.19.03-.04,0-.06-.01-.07-.02-.05-.04-.1-.21-.1-.43,0-.22.05-.4.12-.47.23-.2.75-1.05.41-1.48-.08-.1-.16-.19-.27-.19-.06,0-.1.03-.14.05-.08.04-.18.07-.34.02-.04-.01-.05-.03-.06-.05-.05-.11.09-.41.2-.65.17-.37.33-.73.15-.92-.09-.1-.18-.15-.29-.15-.09,0-.16.03-.21.06l-.05.03s0,0-.02-.04l-.03-.09c-.12-.39-.25-.74-.48-.74-.16,0-.28.16-.41.52-.18.51-.33.51-.42.51h-.06c-.16,0-.28.06-.35.37-.12.61.06,1.19.2,1.61.06.18.13.42.11.48l-.06-.05c-.06-.06-.15-.14-.29-.14-.06,0-.12.02-.18.05-.08.04-.13.12-.14.22-.04.34.43.93.69,1.17.26.24.47.94.48,1.25-.03-.03-.06-.05-.09-.08-.13-.12-.25-.23-.37-.23-.05,0-.09.02-.13.06-.06.07-.08.19-.06.41.07.71.96,1.05,1.68,1.32.25.1.47.18.6.26.1.06.19.11.27.16.39.22.62.35.73.71.1.34.28,1.17.39,1.66.04.2.08.35.09.38.08.31.33.98.61,1.68-.03-.04-.07-.07-.12-.08-.22-.05-.39.04-.51.11-.07.04-.12.08-.18.08h0c-.06-.09-.1-.57-.13-.9-.05-.68-.1-1.1-.25-1.22-.07-.06-.15-.08-.24-.08-.14,0-.28.08-.39.14-.03.02-.06.03-.08.05-.04-.03-.11-.13-.16-.2-.14-.19-.28-.4-.46-.4-.06,0-.12.02-.17.07-.19.18-.11.52-.03.85.05.2.1.42.05.5-.02.04-.04.06-.13.06-.03,0-.06,0-.09,0-.03,0-.07,0-.1,0-.16,0-.26.08-.28.23-.12.69.53,1.31.96,1.72.15.14.36.34.37.39-.04.04-.06.05-.06.05h-.04s-.08-.05-.14-.05c-.09,0-.18.05-.3.15-.05.05-.07.1-.07.17.01.24.39.53.98.96.25.18.59.43.62.49,0,0-.09,0-.17-.01-.06-.01-.12-.02-.18-.02-.16,0-.25.09-.26.24-.01.28.3.49.62.7.15.1.31.21.44.32.15.13.55.15,1.2.17.42.01,1,.03,1.09.12,1.04,1,3.43,3.34,4.16,4.18l.03.04h-.01c-.32-.08-.38-.06-.57-.02-.05.01-.11.03-.19.04-.11,0-.32-.51-.43-.78-.23-.56-.38-.9-.62-.9-.26,0-.28.23-.29.33v.05s-.06-.03-.11-.06c-.2-.14-.37-.57-.52-.95-.17-.43-.3-.78-.51-.81-.25-.03-.3.13-.33.23-.04.1-.07.19-.22.24-.04,0-.17-.09-.25-.15-.16-.11-.33-.23-.48-.23-.07,0-.12.02-.17.06-.17.14-.06.4.04.67.08.2.17.43.12.56-.03.09-.06.09-.08.09-.03,0-.06-.01-.1-.02-.11-.03-.25-.04-.33.06-.04.05-.08.13-.05.27.06.25.34.62.73.81l.12.05c.33.16,1.22.57,1.27.75,0,0-.11,0-.2-.03-.13-.03-.22-.04-.27.01-.05.05-.07.12-.06.2.04.29.53.63.66.71.18.1.58.19.97.26.19.04.37.08.5.11.07.02.08.04.08.04,0,.04-.09.15-.14.2-.06.07-.12.14-.16.22-.02.03-.03.1.02.18.11.19.48.39.93.39h.04c.33,0,.42-.06.47-.17,0,0,.01,0,.07,0h0c.13,0,.16.02.22.06.05.04.12.09.28.14.03.01.06.02.09.02.16,0,.25-.13.33-.25.11-.16.18-.24.34-.18.29.11,1.02.16,1.61.2l.24.02c.38.03,1.13.45,1.8.82.35.19.68.38.95.51.56.26,2.02.86,2.85,1.21-.09.01-.18.02-.27.03-.24.03-.5.07-.61.05-.08-.01-.17-.12-.26-.22-.15-.17-.33-.39-.63-.39-.35,0-.63.09-.88.17-.07.02-.14.05-.21.07-.13,0-.44-.34-.65-.57-.31-.34-.5-.53-.67-.53h0c-.23.01-.27.2-.3.35-.01.07-.03.14-.07.22v-.02c-.08-.18-.22-.51-.61-.51-.06,0-.12,0-.18.02l-.09.02c-.96.22-1.46.34-1.55.55-.12.28.64,1.06,1.35,1.51.21.14.42.2.61.2.17,0,.3-.06.39-.09l.05-.02s0,.03.01.06c.06.45.43.99,1.15,1.17.07.02.15.03.22.03.33,0,.63-.16.88-.29.14-.07.29-.15.36-.14.04.03.04.03-.02.14-.06.09-.13.22-.11.4.04.26.19.39.48.39.13,0,.28-.02.49-.07.41-.1.78-.54,1.17-1,.35-.41.72-.84,1.1-1,.04-.02.09-.03.15-.03.47,0,1.24.57,1.25.57l.11.08.29-.87-.93-.61-.05-.02s.03-.19.06-.28c.04-.13.09-.28.11-.45.02-.15-.07-.42-.22-.81-.08-.22-.18-.51-.17-.58.12-.58-.35-1.01-.88-1.17-.13-.04-.33-.01-.51.02-.1.02-.2.03-.28.03s-.09-.02-.09-.02c-.45-.55-.9-.8-1.18-.84h-.03c-.15,0-.17.15-.17.22-.01.12-.02.14-.11.14-.1,0-.28-.05-.46-.1-.25-.07-.53-.15-.76-.15-.17,0-.29.05-.37.14-.24.31,1.54,1.97,1.56,1.99.1.09.31.03.53-.07.13-.05.27-.11.35-.11h.01s-.07.06-.07.06c-.12.09-.31.22-.32.46,0,.1.03.19.1.25.15.15.44.22.96.22.15,0,.3,0,.43-.01.1,0,.19,0,.25,0,.08,0,.1,0,.1,0,.22.11.51.56.52.79l-.02.06s-.05.02-.12.02c-.98,0-4.7-1.92-4.85-2.15-.06-.15-.35-1.76-.32-1.92.05-.19-.12-1.84-.56-2.02-.05-.02-.1-.03-.15-.03-.16,0-.26.1-.33.2-.19-.49-.7-1.67-1.07-1.77-.14-.04-.24.01-.28.05-.03.03-.04.06-.05.09-.3-.31-1.06-.84-1.41-.84-.07,0-.13.02-.17.06-.17.15.03.55.4,1.24.15.27.36.68.37.8-.07.03-.17-.02-.26-.06-.12-.06-.23-.07-.28.01-.18.34.38.74.91,1.12.2.14.46.32.54.43-.05-.01-.1-.03-.16-.03-.12,0-.26.06-.28.35-.03.43.71.76,1.54,1.08.17.07.36.14.39.16.15.2.22.36.2.39-.02,0-.05,0-.08-.01-1.14-.28-4.31-3.24-4.42-3.57-.08-.52.11-1.4.26-2.11.18-.86.26-1.24.08-1.34-.17-.09-.37-.01-.5.06-.03.02-.07.04-.09.05,0-.14.15-.53.23-.77.13-.36.18-.51.17-.59,0,0-.12-.87-.45-.94-.18-.04-.28.14-.34.26-.01.03-.03.06-.05.08-.06-.14-.1-.64-.12-.95-.03-.43-.06-.7-.11-.8-.05-.11-.12-.13-.17-.13-.07,0-.12.04-.18.08-.03.02-.07.05-.1.05-.03-.04-.09-.24-.13-.39-.12-.47-.28-1.05-.66-1-.22.03-.22.41-.2,1.07,0,.23.02.54,0,.63l-.06.02c-.22.05-.42.11-.5.22-.14.19.11.58.55,1.2.12.17.26.37.3.45-.03,0-.09,0-.14,0-.15,0-.31-.02-.4.08-.17.19.11.67,1.08,1.82.04.05.07.09.1.12-.03,0-.07,0-.09.01-.16.02-.33.03-.36.17-.09.35.36.88.75,1.35.14.16.3.36.36.46-.42-.14-1.59-1.99-2.3-3.1-.26-.41-.49-.77-.67-1.03-.29-.43-.62-2.73-.41-2.89.09-.07.19-.1.3-.1.12,0,.21.04.21.04h0c.1.07.39.08.54.08.17,0,.39-.02.51-.09.02-.01.03-.03.05-.04,0,0,.01,0,.02,0,.02,0,.05,0,.07-.03.03-.03.03-.07.02-.1.21-.3.38-.86.37-1.2,0-.18-.05-.29-.15-.35-.06-.04-.14-.05-.23-.05-.31,0-.74.2-1.01.39.09-.45-.12-1.08-.36-1.45-.11-.16-.21-.26-.3-.27h-.03c-.34,0-.82.92-.89,1.52,0,0,0,.01-.01.02,0,.02,0,.05,0,.07,0,.01,0,.02,0,.03,0,.29.17.44.43.58.05.05.12.38.09.62-.01.09-.04.13-.04.13,0,0-.02,0-.07-.04-.35-.28-.79-3.07-.69-3.36.24-.6.89-1.13,1.85-1.88.44-.34.62-.98.52-1.36-.05-.19-.17-.31-.34-.34-.06,0-.08-.03-.09-.05-.08-.15.09-.54.15-.67.03-.06.04-.09.04-.1,0-.01.02-.04.04-.08.13-.26.49-.95.23-1.42-.05-.09-.13-.22-.13-.24,0-.06,0-.15-.33-.94-.21-.49-.32-.59-.44-.59-.03,0-.08,0-.12.05-.12.12-.12.52-.12.73-.35.1-.41.45-.45.66,0,.04-.02.1-.03.13-.1,0-.15-.02-.2-.03-.09-.02-.17-.03-.31.05-.13.08-.12.31-.05,1.01.03.34.13,1.25-.01,1.27-.16.03-.23-.04-.31-.12-.05-.05-.11-.11-.19-.11-.04,0-.09.02-.13.05-.03.02-.05.05-.07.08-.04-1.7-.04-3.5.02-3.86.05-.31,1.37-1.18,2.24-1.75.99-.66,1.4-.94,1.45-1.1.04-.14.04-.24,0-.31-.05-.08-.13-.11-.22-.13-.04-.01-.08-.02-.12-.04.05-.1.26-.34.43-.54.4-.46.86-.99.82-1.33-.02-.21-.16-.24-.24-.24-.04,0-.08,0-.12.01-.03,0-.05,0-.07,0,0-.06.17-.25.28-.38.24-.27.48-.55.42-.77-.03-.1-.11-.16-.23-.2-.21-.06-.18-.34-.11-.69.04-.22.07-.39,0-.49-.04-.05-.13-.09-.29-.03-.33.13-.44.36-.52.52-.07.15-.1.18-.19.18-.04,0-.09-.01-.16-.03-.11-.04-.21-.02-.28.06-.14.14-.12.46-.11.8,0,.2.02.4-.01.53v.04c-.06,0-.17-.09-.26-.15-.16-.12-.35-.25-.53-.25-.07,0-.13.02-.18.05-.15.1-.14.44-.05,1.24.05.45.11,1.07.02,1.2-.08.12-.22.08-.41.03-.15-.05-.33-.1-.52-.07-.17.03-.18.29-.19.77,0,.37-.02.82-.13,1.09-.25.63-.5,1.03-.57,1.05,0,0-.02-.02-.04-.12-.31-1.48,2.03-6.43,2.71-7.55.74-1.22,2.05-2.81,2.2-2.9l-.03-.07.09.03s.05-.07.45-.07c.28,0,.61.03.86.06.13.01.25.02.32.03.11,0,.29.05.48.09.45.1.99.21,1.24.08.09-.05.15-.11.16-.19.03-.15-.09-.29-.23-.45-.1-.12-.21-.24-.25-.36-.03-.08-.02-.11-.02-.11,0,0,.12,0,.22.02.04,0,.09.02.13.02.07,0,.22.07.37.13.25.1.54.22.74.22.1,0,.18-.03.22-.1.1-.15.06-.28.03-.37-.03-.08-.05-.14,0-.22.04-.09.43-.15.67-.18.27-.04.5-.07.61-.16.07-.05.11-.12.11-.19.01-.13-.09-.23-.18-.34-.03-.04-.06-.07-.08-.09,0-.06.19-.24.3-.36.27-.27.52-.52.39-.71-.05-.07-.13-.11-.25-.11-.36,0-1.02.36-1.23.51-.03,0-.1-.12-.14-.18-.12-.18-.26-.41-.53-.43-.16,0-.38.24-.83.78-.25.29-.66.78-.76.8,0-.01,0-.06,0-.09,0-.11.01-.3-.18-.39-.22-.11-.55.24-1.12.98-.06.08-.11.14-.15.19-.16.19-.47.33-.56.36-.07-.02-.14-.08-.17-.12.02-.02.04-.05.07-.09,2.1-2.48,3.13-3.01,3.62-3.01h.12c1.17,0,1.5.28,1.69.44.08.07.15.13.26.14.25.03.32-.16.37-.28.02-.06.05-.12.06-.13.06,0,.3.16.47.28.35.23.7.47.9.4.33-.12.23-.61.16-.91.07.02.16.06.24.1.23.1.52.22.74.22.09,0,.16-.02.22-.06.27-.18.17-.4.11-.52-.03-.07-.06-.13-.04-.17l.05.03c.08.05.2.12.36.15h.05c.42,0,1.72-.99,1.74-1.33.01-.27-.48-.42-1.4-.62-.08-.02-.15-.03-.2-.04-.2-.05-.44.16-.7.38-.17.15-.38.33-.5.33h0c-.07-.02-.09-.09-.11-.25-.02-.16-.05-.38-.28-.41h-.04c-.25,0-.57.37-.86.75-.05.07-.11.15-.13.16-.07.05-.33.11-.47.04t-.04-.09c0-.09.02-.22-.12-.38-.05-.06-.11-.07-.15-.07-.16,0-.29.2-.46.46-.14.21-.31.47-.46.52-.09.03-.19.07-.3.11-.19.08-.41.17-.54.17-.03,0-.05,0-.06-.02,0,0-.02-.03,0-.13.08-.44,2.78-1.67,3.45-1.78h.06c.53-.1.86-.15,1.02-.09l.2.08c.44.18.55.22.87.24.1,0,.16-.04.19-.08.09-.11.05-.28.02-.44-.01-.05-.03-.12-.03-.15.03,0,.1-.02.25-.02.27,0,.64.03.89.05.13,0,.22.02.26.02.03,0,.16.06.27.1.32.14.76.31.96.19.3-.17.14-.74.09-.89h0c1.19-.14,2.25-.93,2.3-1.21.01-.07-.02-.13-.07-.15m-14.79,2.58c.17-.02.32.06.46.15.13.07.25.14.38.14.12,0,.22-.06.32-.17.14-.17.19-.49.24-.83.08-.49.15-.99.48-1.06h.03s.03,0,.05.1c.01.08.04.23.19.23.1,0,.26-.08.67-.48.21-.2.61-.23.83-.23.07,0,.14,0,.2,0-.76.31-1.35.98-1.83,1.54-.11.13-.21.24-.31.34.08-.22.2-.53.32-.72.03-.05.02-.11-.03-.14-.05-.03-.11-.02-.14.03-.22.34-.43,1-.43,1.03l-.03.09s0,0-.01,0c-.3.23-.7.99-1.02,1.69-.01-.44,0-.93.06-1.06.02-.05,0-.11-.05-.13-.05-.02-.11,0-.13.05-.11.27-.07,1.3-.06,1.55-.1.23-.19.44-.25.6,0-.08-.01-.17-.02-.28-.11-1.59-.08-2.41.08-2.43m-1.52,5.17c-.12.01-.27.02-.35.27-.02.07-.03.13-.04.18-.04-.21-.09-.39-.19-.44-.25-.13-.33-.23-.33-.4l.14.04.55-.09.25.07.28-.02s0,.04,0,.06c-.07.31-.17.31-.29.33m.11.18c-.06.07-.13.15-.2.23l-.11.11s.02-.12.04-.2c.03-.11.07-.12.17-.12.03,0,.07,0,.1-.01m-2.31,1.83c-.11-.1-.24-.21-.23-.29.01-.12.46-.42.75-.62.55-.37.94-.64.79-.87-.07-.1-.15-.15-.25-.15-.06,0-.11.01-.17.03-.09.02-.18.04-.28.03.05-.11.26-.34.4-.51.03-.04.06-.07.1-.11,0,.03,0,.06,0,.09,0,.29.17.44.43.58.05.05.11.39.13.75-1.04,1.15-1.61,2.46-1.94,3.24-.09.21-.19.43-.25.53,0-.03-.02-.08-.03-.15-.11-.77.24-1.11.55-1.4.13-.13.26-.25.33-.39.16-.32-.12-.57-.32-.76m1.54-3.27c.18-.38.38-.58.45-.58.02,0,.09.05.19.22.17.27.32.68.33,1.03l-.27.02-.25-.07-.54.09-.13-.04c.01-.07.03-.14.05-.22.12-.16.22-.32.18-.45m-5.49,12.08l-.02-.02c-.31-.22-1.27-.91-1.03-1.38.06-.12.15-.11.25-.1.03,0,.06,0,.09,0,.03,0,.14,0,.21-.08.09-.1.1-.29.05-.63-.08-.49-.23-.9-.36-1.22-.13-.33-.22-.58-.16-.71l.07.03c.06.03.12.06.2.06.27,0,.44-.34.56-1.14.22-1.39.52-1.5.6-1.5,0,0,0,0,0,0,0,.09-.13,1.37-.28,2.56-.07-.35-.12-.69-.1-.8.01-.05-.02-.11-.07-.12-.05-.01-.11.02-.12.07-.06.26.17,1.23.22,1.42h0c-.05.36-.09.68-.14.94-.3-.49-.49-.95-.44-1.04.03-.05.02-.11-.03-.14-.04-.03-.1-.02-.13.03-.17.25.32,1.08.56,1.45-.05.52,0,1.14.07,1.68-.29-.3-.56-.61-.57-.7,0-.05-.04-.1-.1-.1h0c-.05,0-.1.04-.1.1,0,.22.56.78.8,1.01h.02c.03.18.05.33.08.46-.05-.05-.09-.1-.14-.13m1.6,18.58c-.14-.12-.3-.23-.46-.34-.27-.18-.54-.36-.53-.53,0-.05,0-.05.06-.05.04,0,.09,0,.14.02.06.01.12.02.17.02.16,0,.21-.1.22-.16.04-.15-.15-.3-.69-.7-.35-.26-.88-.64-.89-.82.07-.06.13-.1.16-.1.02,0,.03,0,.06.02.03.02.07.03.12.03.09,0,.16-.06.2-.11.16-.17-.07-.38-.38-.67-.42-.4-1-.95-.9-1.54,0-.05.02-.06.09-.06.03,0,.05,0,.08,0,.03,0,.07,0,.1,0,.05,0,.22,0,.3-.17.07-.15.02-.37-.04-.64-.06-.25-.13-.57-.02-.67l.03-.02c.08,0,.21.2.3.31.12.17.21.29.32.29h.04s.02-.01.02-.01c.04-.02.08-.04.12-.07.13-.08.29-.16.4-.08.1.08.15.71.18,1.08.06.77.1,1.04.27,1.07.14.03.25-.04.35-.1.11-.07.22-.13.36-.09.1.06.05.71.03,1.02-.05.62-.08,1.02.15,1.06.19.03.3,0,.4-.01.06-.01.11-.02.19-.02.05.08.09.39.12.62.07.52.14,1.07.41,1.16.13.05.26.12.38.19.05.03.1.06.16.09-.31-.08-.7-.35-1.07-.67,0-.32-.01-.97-.11-1.17-.02-.05-.08-.07-.13-.04-.05.02-.07.08-.04.13.06.12.08.53.09.9-.26-.24-.5-.48-.69-.66-.11-.11-.2-.2-.28-.27.16-.39.18-1.74.18-1.79,0-.05-.04-.1-.1-.1h0c-.05,0-.1.04-.1.1,0,.34-.04,1.23-.13,1.62-.24-.34-.51-1-.75-1.69v-.05s.19-1.21.04-1.65c-.02-.05-.07-.08-.13-.06-.05.02-.08.07-.06.13.08.24.05.81,0,1.22-.34-1-.6-1.94-.6-1.96-.01-.05-.07-.08-.12-.07-.05.01-.08.07-.07.12.02.08.28,1.01.61,2-.41-.28-.72-.54-.73-.62.02-.05-.01-.11-.06-.13-.05-.02-.11.01-.13.06-.08.23.5.66,1.02.99.25.72.54,1.42.8,1.81-.09-.06-.2-.17-.29-.25-.17-.16-.34-.33-.52-.41-.05-.02-.11,0-.13.05-.02.05,0,.11.05.13.15.07.32.23.47.38.21.2.38.36.53.36h.04s.03-.01.04-.02c.07.07.16.16.27.26.24.24.52.52.82.78-.23.01-.83.02-1.23-.24-.05-.03-.11-.02-.14.03-.03.05-.02.11.03.14.37.24.86.28,1.17.28.17,0,.28-.01.29-.01h.09v-.02c.25.21.51.39.75.5-.17-.01-.37-.02-.61-.03-.41-.01-.97-.03-1.07-.11m.41-4c.34.85.72,1.71.93,2.02l.15.27c.27.47.81,1.41.9,1.69-.14,0-.29-.09-.45-.18-.13-.07-.26-.15-.41-.2-.15-.05-.23-.65-.27-1-.06-.49-.1-.79-.29-.79-.1,0-.18.01-.24.03-.06.01-.12.02-.19.02-.04,0-.09,0-.13,0h0c-.06-.07-.03-.54,0-.86.03-.44.06-.78,0-.99m3.15-2.9s.05.07.05.18c0,.3-.14.77-.3,1.03l-.15-.16-.11-.25-.41-.31-.07-.18s0,0,0-.01c.24-.16.61-.33.86-.33.06,0,.1,0,.13.03m-1.84-1.36s.09.05.19.22c.18.28.33.72.33,1.07l-.32.03-.25-.07-.54.09-.1-.03c.07-.57.53-1.31.69-1.31m-.69,1.51l.09.03.55-.09.25.07.32-.03s0,.01,0,.02c-.07.31-.17.31-.29.33-.12,0-.27.02-.35.27-.03.09-.04.16-.05.23-.02-.22-.08-.43-.18-.48-.22-.12-.31-.2-.33-.34m1.06.5c-.05.14-.08.28-.09.36l-.27.06s0-.13.05-.28c.03-.11.07-.12.17-.12.05,0,.09-.01.14-.02m-1.81-4.73c.02.5.02,1.06-.03,1.31-.06-.29-.1-1.01-.14-1.89.06.26.13.48.17.58m4.12-13.46s.06-.02.06-.03c.02.04-.01.21-.03.33-.06.32-.15.8.25.92.04.01.09.03.1.07.03.11-.21.39-.38.58-.22.25-.34.39-.33.52,0,.16.13.21.3.18.03,0,.06-.01.08-.01s.04,0,.05.07c.03.26-.44.79-.78,1.18-.35.41-.51.59-.48.72,0,.04.04.08.08.1.07.04.14.05.19.07.04.01.09.03.1.04,0,0,.02.03-.02.15-.05.13-.78.61-1.37,1-.32.21-.61.4-.87.58.14-.18.28-.38.42-.6.54-.49,1.06-.85,1.17-.81.05.02.11,0,.13-.05.02-.05,0-.11-.06-.13-.18-.07-.54.16-.89.43.1-.17.21-.35.32-.52.15-.25.3-.5.45-.74.36-.22,1.16-.73,1.24-.97.02-.05,0-.11-.06-.13-.05-.02-.11,0-.13.06-.03.1-.39.37-.8.64.03-.05.07-.11.1-.16.88-1.29.91-3.16.91-3.24,0-.03-.01-.05-.03-.07.06-.07.15-.13.27-.18m14.15-11.55h-.07s-.06.2-.06.2v.03c.09.23.15.61.03.68-.02.01-.05.02-.09.02-.18,0-.48-.13-.7-.22-.19-.08-.28-.12-.34-.12-.03,0-.12,0-.24-.02-.25-.02-.63-.05-.91-.05-.3,0-.38.03-.41.09-.05.08-.03.18,0,.32.02.08.05.24.02.27h-.04c-.26,0-.36-.05-.79-.22l-.2-.08c-.21-.08-.55-.03-1.13.07h-.06c-.48.09-3.49,1.31-3.61,1.95-.02.13,0,.22.05.29.03.04.08.06.13.07,0,.01,0,.02,0,.03,0,.05.05.09.1.09h0s.5-.04,1.13-.1c.12.06.75.37,1.1.48h.03s.08-.02.09-.07c.02-.05-.01-.11-.06-.12-.21-.07-.53-.21-.77-.32.36-.03.74-.07,1.09-.11.26.1.86.31,1.07.31h.03c.05-.01.09-.06.08-.12,0-.05-.06-.09-.11-.08-.06.01-.32-.06-.62-.16,1.18-.17,2.42-.93,2.47-.97.05-.03.06-.09.03-.14-.03-.05-.09-.06-.14-.03-.01,0-1.27.78-2.41.94.26-.15.56-.34.67-.48.03-.04.03-.11-.02-.14-.04-.03-.1-.03-.14.02-.14.17-.77.52-1,.64l-.03.02c-.33.03-.68.07-1.01.1.16-.13.33-.28.4-.4.03-.05.01-.11-.04-.14-.05-.03-.11-.01-.13.04-.08.14-.44.42-.6.53-.25.02-.48.04-.66.06.05-.02.09-.04.14-.06.1-.04.2-.08.28-.11.21-.07.39-.34.56-.6.09-.13.24-.36.29-.36.08.1.08.16.07.24,0,.08-.01.2.14.28.2.1.54.04.67-.05.03-.02.08-.07.17-.2.16-.2.53-.67.72-.67h0c.07.01.09.07.11.24.02.15.05.36.26.42.19.05.43-.15.68-.37.18-.15.39-.34.53-.34h0s.12.03.21.04c1,.21,1.23.34,1.24.41-.02.22-1.2,1.15-1.56,1.15h0c-.13-.02-.22-.08-.29-.12-.06-.04-.12-.07-.18-.07-.05,0-.12.02-.17.14-.04.12,0,.22.05.32.06.14.08.19-.04.28-.02.02-.06.03-.11.03-.18,0-.45-.11-.66-.2-.2-.08-.31-.13-.39-.13-.06,0-.1.03-.12.05-.02.02-.04.06-.02.12v.05c.06.21.16.65-.03.71-.14,0-.46-.22-.7-.38-.36-.24-.54-.35-.66-.29-.09.05-.13.15-.17.24-.05.12-.08.16-.16.16h0s-.08-.04-.15-.1c-.21-.18-.57-.49-1.82-.49h-.12c-.77.01-2.04,1.05-3.76,3.08-.06.07-.09.11-.1.12l-.05.06.02.06c.03.1.2.27.37.3h.03s.02,0,.02,0c.02,0,.45-.16.68-.43.04-.05.09-.11.15-.19.19-.25.71-.92.88-.92.07.03.07.09.07.21,0,.09-.01.24.13.28h.05c.2,0,.48-.32.93-.85.23-.27.58-.69.67-.71.16.02.27.19.37.34.09.15.18.27.31.27.05,0,.09-.02.13-.05.18-.13.81-.46,1.1-.46.05,0,.08.01.08.02.02.07-.24.33-.37.46-.25.25-.44.44-.33.59.03.04.07.08.1.12.06.06.13.14.13.18l-.04.05c-.07.05-.32.09-.52.12-.37.05-.73.11-.82.3-.07.16-.03.28,0,.37.03.09.04.13,0,.2,0,0-.02.01-.06.01-.15,0-.44-.11-.66-.21-.18-.07-.33-.13-.42-.14-.03,0-.07-.01-.11-.02-.17-.03-.34-.04-.42.06-.05.07-.05.16-.01.29.05.16.17.3.28.43.08.1.2.23.19.29,0,.02-.03.04-.06.05-.06.03-.14.04-.25.04-.25,0-.57-.07-.85-.14-.21-.05-.39-.09-.51-.09-.07,0-.18-.01-.31-.03-.25-.02-.6-.06-.88-.06-.34,0-.53.04-.6.14-.35.24-1.75,2.11-2.27,2.96-.62,1.01-3.07,6.1-2.74,7.7.04.18.11.27.23.27h0c.26,0,.56-.64.77-1.18.12-.3.13-.76.14-1.16,0-.21.01-.5.05-.58.13-.02.27.03.4.07.11.03.21.07.31.07.13,0,.24-.06.31-.17.12-.18.09-.62.01-1.33-.04-.39-.1-.97-.04-1.05.12-.08.32.07.49.19.14.1.26.19.37.19.05,0,.16-.02.2-.19.03-.15.02-.36.01-.58,0-.24-.02-.58.05-.66.01-.01.04-.02.08,0,.33.11.46-.04.55-.2-.04.54-.19,1.91-.86,2.89-.09.13-.18.28-.28.42-.09-.54-.17-1.27-.11-1.43.02-.05,0-.11-.06-.13-.05-.02-.11,0-.13.06-.11.27.1,1.49.14,1.73v.02c-.12.21-.25.42-.38.63-.21.35-.43.71-.64,1.03.05-.47.12-1.06.2-1.18.03-.05.01-.11-.03-.14-.05-.03-.11-.01-.14.03-.14.23-.23,1.32-.25,1.53v.09c-.33.46-.64.83-.91.98-.03.02-.05.05-.05.09-.33.27-.53.48-.55.65-.06.34-.06,2.22-.02,3.76.07,3.34.22,3.46.28,3.5,0,0,.01,0,.02.01,0,.03.01.07.04.08l.05.02s.06-.02.08-.05c.02-.04.5-.79.84-1.47.27-.11,1.28-.51,1.46-.85.03-.05,0-.11-.04-.13-.05-.03-.11,0-.13.04-.11.19-.69.49-1.17.68,0-.02.01-.03.02-.05.15-.35.18-.65.2-.93.03-.32.05-.62.27-.97,0,0,0-.01,0-.01.34-.25.98-1.08.98-1.31,0-.05-.04-.1-.1-.1h0c-.05,0-.1.04-.1.1,0,.12-.34.56-.61.87.19-.76.06-1.81.06-1.86,0-.05-.06-.09-.11-.09-.05,0-.09.06-.09.11,0,.01.18,1.43-.17,2.11-.1-.18-.3-.78-.45-1.31-.02-.05-.07-.08-.12-.07-.05.02-.08.07-.07.12.29,1.03.44,1.35.54,1.44-.18.34-.21.64-.23.93-.02.27-.05.54-.19.87-.02.03-.03.07-.05.11-.23-.47-.43-.98-.4-1.1.01-.05-.02-.11-.07-.12-.05-.01-.11.02-.12.07-.06.26.34,1.08.49,1.37-.17.33-.36.68-.52.95.03-.37.01-.83,0-1.09v-.03c-.21-.6-.41-1.52-.22-1.69l.05.05c.08.09.21.23.49.18.29-.05.26-.6.17-1.49-.03-.32-.08-.75-.05-.81.06-.04.09-.04.1-.04.01,0,.03,0,.06.01.05.02.14.04.28.04.14,0,.17-.15.19-.3.05-.26.11-.48.38-.52h.09s0-.1,0-.1c-.01-.27,0-.55.05-.64.04.04.11.14.24.45.21.5.31.79.31.86,0,.06,0,.09.16.35.21.37-.11.99-.23,1.23-.04.07-.05.1-.06.12,0,.01-.02.04-.03.07-.14.32-.25.65-.14.85.03.06.1.13.24.15.08.01.14.08.17.19.08.32-.08.87-.45,1.15-.99.76-1.65,1.31-1.92,1.96-.13.33.32,3.25.75,3.59.07.05.13.08.19.08s.18-.03.22-.23c.01-.06.02-.13.02-.21.02.05.04.08.06.09l.04.03.53-.13v-.07c.04-.2.13-.55.24-.68l.07.18.41.31.09.21.2.22s0,0,0,0c-.05.03-.18.06-.4.06s-.41-.03-.44-.06c-.01,0-.13-.07-.31-.07-.15,0-.29.05-.41.14-.38.29.11,2.78.37,3.16.18.26.4.62.66,1.03,1.12,1.77,2.02,3.13,2.46,3.2.15.02.2-.04.21-.08.02-.04.02-.07,0-.12,0,0,0,0,0-.01.04-.16.06-.41.06-.71.16-.23.58-.87.62-1.29,0-.05-.03-.1-.09-.11-.06,0-.1.04-.11.09-.03.27-.25.68-.43.96-.02-.44-.09-.93-.2-1.38.15-.44.45-1.34.37-1.54-.02-.05-.07-.08-.12-.06-.05.02-.08.07-.06.12.03.1-.11.62-.28,1.14-.04-.13-.09-.26-.15-.37-.13-.26-.27-.71-.4-1.2l.02-.06c.09-.36.29-1.21.23-1.38-.02-.05-.07-.07-.12-.06-.05.02-.08.07-.07.12.02.08-.06.52-.16.97-.26-1.05-.48-2.15-.48-2.17-.01-.05-.06-.09-.12-.08-.05.01-.09.06-.08.12.01.07.22,1.13.48,2.15-.26-.21-.57-.5-.65-.72-.02-.05-.08-.07-.13-.05-.05.02-.07.08-.05.13.14.34.7.79.92.96.15.55.3,1.06.44,1.36.05.11.1.22.14.35-.37-.36-.72-.73-.75-.83,0-.05-.04-.09-.1-.09-.05,0-.1.05-.09.1.01.2.66.82,1.05,1.18h0c.11.47.17.98.19,1.43-.23-.27-.44-.56-.45-.64,0-.05-.06-.09-.11-.08-.05,0-.09.06-.08.11.02.19.49.74.63.9l.02.02c0,.13-.01.25-.02.36-.07-.09-.16-.2-.28-.34-.31-.37-.77-.92-.72-1.15.03-.02.14-.03.2-.04.14-.01.25-.03.3-.11.02-.04.02-.08,0-.13-.01-.02-.03-.04-.18-.22-1-1.18-1.11-1.49-1.09-1.56,0,0,.03-.02.14-.02.04,0,.07,0,.11,0,.04,0,.07,0,.11,0,.07,0,.21,0,.25-.12.02-.09-.05-.21-.35-.64-.19-.28-.6-.85-.55-.97.05-.07.28-.12.39-.15.04,0,.07-.02.1-.03.14-.04.14-.27.12-.82,0-.28-.03-.8.04-.87.2,0,.34.54.43.86.08.3.12.45.21.5.11.07.24,0,.32-.05l.05-.05v.02c.05.08.08.43.1.73.06.71.09,1.04.21,1.12.03.02.07.04.1.04.11,0,.17-.11.23-.21.03-.06.09-.16.13-.16h0c.12.02.27.53.29.76,0,.05-.09.3-.16.5-.24.67-.3.89-.2.99.08.08.22.04.34-.02.07-.04.15-.08.22-.08.03,0,.06,0,.07.01.06.1-.07.67-.17,1.13-.16.72-.35,1.63-.26,2.18.06.36,3.39,3.45,4.57,3.74.21.05.3-.03.32-.09.07-.15-.09-.42-.24-.61-.04-.06-.16-.1-.48-.23-.47-.18-1.44-.56-1.42-.88.01-.17.06-.17.09-.17.04,0,.08.01.12.03.04.01.08.03.12.03.06,0,.1-.03.11-.05.04-.05.03-.12.02-.17-.04-.15-.26-.31-.65-.59-.32-.23-.84-.59-.86-.8h.02c.13.07.34.15.48.04.16-.11.01-.4-.33-1.04-.18-.33-.48-.89-.44-.99h.04c.32,0,1.23.67,1.35.87.04.06.07.12.14.12h.05s.03-.03.03-.03c.03-.04.03-.08.03-.13,0-.04,0-.12.02-.15.02-.02.05,0,.09,0,.31.08.96,1.64,1,1.82l.02.1h.09c.07,0,.09-.06.12-.11.07-.15.15-.28.31-.22.27.11.49,1.59.45,1.78-.06.21.28,1.93.33,2.05.12.28,2.18,1.25,2.2,1.26.64.3,2.21,1.01,2.84,1.01.09,0,.16-.01.22-.05.05-.03.12-.09.12-.24,0-.3-.35-.82-.63-.96-.04-.02-.09-.03-.19-.03-.07,0-.16,0-.26,0-.13,0-.28.01-.43.01-.44,0-.71-.05-.81-.16-.03-.03-.04-.07-.04-.11,0-.14.13-.23.23-.3.09-.06.17-.12.18-.21,0-.04,0-.09-.06-.14-.11-.11-.36-.04-.6.06-.12.05-.25.1-.32.11-.35-.32-1.48-1.49-1.53-1.74.11-.11.55,0,.9.09.21.06.39.11.52.11.28,0,.3-.23.31-.32v-.04c.25.05.64.27,1.04.77.07.09.2.09.24.09.09,0,.2-.02.31-.03.16-.03.34-.05.43-.02.33.1.85.41.74.94-.02.11.05.32.18.69.1.27.22.61.21.72-.01.12-.04.23-.08.33-.09-.34-.33-1.02-.74-1.35-.04-.35-.13-.96-.27-1.08-.04-.03-.11-.03-.14.02-.03.04-.03.1.02.14.05.06.13.43.18.79-.26-.11-.77-.37-1.32-.65v-.03c-.1-.28-.34-.95-.48-1.05-.04-.03-.1-.02-.13.02-.03.04-.03.1.01.14.06.05.21.43.34.79-.83-.44-1.64-.88-1.66-.89-.05-.03-.11,0-.13.04-.03.05,0,.11.04.13.05.03.72.39,1.45.78-.29.01-.54.02-.61,0-.03-.02-.07-.03-.1,0-.05.02-.07.08-.04.13.02.04.04.08.38.08.16,0,.39-.01.72-.03.47.25.93.48,1.24.63-.31.02-.64.01-.75-.08-.04-.03-.1-.03-.14.02-.03.04-.03.11.02.14.13.1.37.13.62.13s.47-.03.6-.04c.53.35.76,1.46.77,1.47,0,.03.03.05.06.07-.01.08-.01.15.02.21.02.03.05.08.12.1l.79.52-.15.47c-.24-.17-.83-.53-1.26-.53-.08,0-.16.01-.23.04-.42.19-.8.63-1.17,1.06-.37.44-.72.85-1.07.93-.19.05-.33.07-.44.07-.21,0-.26-.08-.28-.22-.02-.11.03-.19.08-.27.06-.1.15-.25-.03-.39-.04-.03-.08-.05-.14-.05-.12,0-.26.07-.43.17-.28.15-.65.33-.96.25-.62-.16-.95-.62-1-1,0-.07-.03-.24-.18-.24-.05,0-.1.02-.15.05-.08.03-.18.08-.31.08-.15,0-.32-.06-.5-.17-.81-.51-1.29-1.14-1.28-1.26.06-.12.81-.3,1.41-.44l.09-.02s.09-.02.13-.02c.24,0,.33.17.42.39.05.11.09.2.18.2.07,0,.12-.06.13-.08.08-.12.11-.25.13-.35.03-.16.05-.18.12-.19.08,0,.34.28.51.47.39.42.65.68.86.62.07-.02.14-.04.21-.07.24-.08.5-.16.82-.16.2,0,.34.16.48.32.12.14.23.27.38.29.13.02.39-.01.67-.05.21-.03.43-.06.58-.06.08,0,.12,0,.13.01l.04.02.1-.03v-.07c0-.06-.03-.08-.07-.1h0s0,0,0,0h-.02c-.6-.25-2.61-1.07-3.28-1.39-.27-.13-.59-.31-.94-.5-.72-.4-1.46-.81-1.88-.84l-.24-.02c-.54-.04-1.29-.09-1.56-.19-.06-.02-.11-.03-.17-.03-.21,0-.32.16-.41.29-.08.12-.12.18-.2.16-.13-.04-.18-.08-.22-.11-.08-.06-.14-.1-.34-.1-.15,0-.2.04-.24.11,0,.01-.03.05-.31.06h-.03c-.46,0-.73-.22-.77-.3.03-.05.08-.11.12-.16.11-.13.21-.26.17-.39-.04-.12-.18-.16-.22-.17-.13-.04-.32-.07-.51-.11-.34-.07-.76-.15-.91-.24-.24-.14-.54-.43-.56-.56h0s.06,0,.1,0c.14.03.31.05.38-.03.02-.03.05-.08.04-.17-.04-.24-.51-.5-1.36-.9l-.12-.05c-.32-.15-.58-.47-.62-.67,0-.04,0-.08,0-.1.03-.03.07-.01.13,0,.05.01.1.03.15.03.12,0,.21-.07.26-.21.08-.2-.02-.46-.12-.7-.07-.17-.16-.4-.1-.45h.04c.09-.01.25.09.37.18.17.12.31.21.42.18.25-.08.31-.25.35-.36.05-.13.06-.11.12-.1.1.01.25.41.35.68.16.43.33.87.59,1.04.36.25.4-.03.41-.14.01-.14.03-.15.09-.15.11,0,.32.51.43.78.23.56.38.9.62.9h.04c.08-.02.14-.03.19-.05.18-.04.21-.05.48.01.13.03.33.43.47.73.14.28.26.54.4.7-.1-.03-.2-.06-.3-.1-.09-.23-.42-.99-.79-1.11-.05-.02-.11.01-.12.06-.02.05.01.11.06.13.2.07.44.47.59.82-.43-.19-.86-.42-1.24-.62-.06-.03-.11-.06-.17-.09-.16-.59-.43-1.54-.57-1.65-.04-.03-.11-.03-.14.01-.03.04-.03.1.01.14.07.08.27.72.46,1.37-.16-.08-.3-.15-.42-.19-.23-.09-.65-.53-1.08-1.03v-.02c0-.05-.17-1.33-.26-1.63-.02-.05-.07-.08-.12-.06-.05.02-.08.07-.06.13.06.2.16.9.22,1.3-.38-.46-.73-.94-.93-1.21-.03-.04-.09-.05-.14-.02-.04.03-.05.09-.02.14.03.05.43.6.91,1.19-.41-.11-.98-.28-1.16-.4-.05-.03-.11-.02-.14.03-.03.05-.01.11.03.14.27.17,1.2.42,1.48.49.45.53.93,1.04,1.21,1.14.07.03.16.07.26.12-.44,0-.86-.04-.93-.1-.04-.03-.1-.03-.14.01-.03.04-.03.1.01.14.15.12.78.15,1.18.15.1,0,.19,0,.25,0,.05.03.11.06.16.09.38.21.82.44,1.26.63-.38.12-.95.29-1.15.25-.06-.01-.1.03-.11.08,0,.05.03.11.08.11.03,0,.06,0,.09,0,.39,0,1.22-.28,1.38-.34.32.12.64.21.95.23h0c.05,0,.09-.04.1-.09,0-.02,0-.03,0-.04.22.02.46.05.64.05.2,0,.33-.02.38-.13.05-.13-.1-.24-.76-.66-.55-.35-1.3-.83-1.65-1.23-.79-.92-3.34-3.4-4.17-4.19-.02-.02-.04-.03-.07-.05.02-.02.03-.04.03-.07,0,0,0-.01,0-.02.09.02.18.03.26.01l.06-.02.02-.05c.05-.12-.08-.43-.93-1.9l-.16-.27c-.38-.58-1.4-3.13-1.58-3.81,0-.03-.04-.18-.08-.37-.11-.5-.29-1.33-.4-1.68-.13-.43-.42-.6-.82-.82-.08-.05-.17-.1-.27-.16-.15-.09-.38-.18-.64-.28-.67-.25-1.49-.57-1.55-1.16-.02-.17,0-.23,0-.24.05,0,.17.12.23.17.12.11.2.18.28.18.05,0,.12-.03.13-.12.05-.28-.18-1.2-.54-1.52-.27-.25-.65-.77-.63-1,0-.03.02-.05.04-.07.1-.05.15-.02.24.06.05.05.11.1.19.1.06,0,.11-.03.16-.09.1-.12.03-.33-.07-.65-.13-.4-.3-.96-.19-1.51.04-.21.08-.21.15-.21h.06c.23,0,.42-.11.61-.64.13-.38.22-.38.22-.38.05,0,.13.1.29.6l.03.09c.04.11.1.17.19.17.05,0,.1-.02.15-.04.04-.02.09-.04.13-.04.02,0,.07,0,.14.08.09.1-.06.44-.19.71-.15.32-.28.62-.2.81.03.07.09.13.18.15.24.08.41.01.5-.03l.05-.02s.03,0,.12.11c.24.3-.19,1.04-.38,1.21-.17.15-.19.48-.19.62,0,.21.05.48.17.58.1.08.27.06.43.03.07-.02.13-.03.19-.03s.07.01.08.03c.05.07,0,.23-.05.43-.07.23-.15.52-.16.89-.01.52.29.86.5,1.03-.21-.04-.41-.17-.58-.35h0c-.05-.31-.13-1.2.02-1.52.02-.05,0-.11-.05-.13-.05-.02-.11,0-.13.05-.15.31-.11.95-.08,1.33-.45-.63-.75-1.54-.89-1.99,0-.02-.01-.03-.02-.05.16-.25.72-1.18.69-1.58,0-.05-.05-.1-.11-.09-.05,0-.1.05-.09.11.02.27-.34.92-.58,1.31-.07-.3-.15-1.14-.21-1.95.27-.37.79-1.14.75-1.36-.01-.05-.06-.09-.12-.08-.05.01-.09.06-.08.12,0,.11-.27.56-.57,1.01-.04-.71-.04-1.33.03-1.46.03-.05,0-.11-.04-.14-.05-.03-.11-.01-.13.04-.09.17-.1.83-.06,1.57-.22-.31-.45-.69-.46-.84,0-.05-.05-.09-.1-.09-.05,0-.1.05-.09.1.02.31.6,1.11.67,1.19h0c.05.8.14,1.6.21,1.93-.4-.27-.78-.57-.81-.69-.01-.05-.07-.08-.12-.07-.05.01-.08.07-.07.12.08.28.9.81,1.09.93,0,.01,0,.02.01.03.14.44.43,1.34.88,1.99-.57-.22-1.12-.46-1.17-.57-.02-.05-.07-.08-.12-.06-.05.02-.08.07-.06.12.08.25,1.11.63,1.6.81.22.24.48.41.77.46h.02s.09-.03.1-.08c0-.01,0-.03,0-.04.04.03.07.04.08.05l.16.08v-.18s-.31-4.47-.29-5.06c.02-.59-.07-3.46-.07-3.58v-.03s-.06-.19-.16-.4h0s-.11-.46-.21-1.06c.18-.27.74-1.09.77-1.37,0-.05-.03-.1-.09-.11-.05,0-.1.03-.11.09-.02.17-.34.69-.61,1.1-.07-.52-.11-1.1-.07-1.59.23-.2,1.06-.96,1.15-1.18.02-.05,0-.11-.06-.13-.05-.02-.11,0-.13.05-.05.12-.51.57-.92.94.05-.26.09-.6.14-.97.19-.32.68-1.08.92-1.21.05-.03.07-.09.04-.13-.03-.05-.09-.07-.13-.04-.21.12-.54.57-.76.92.13-1.05.24-2.2.28-2.54.02.02.03.04.05.06.05.08.11.29.17.5.17.59.29.95.51.95h0c.06,0,.11-.03.16-.08l.02-.02c.03.14-.04.57-.13.73-.05.07-.19.32-.1.49.02.04.08.11.21.11.09,0,.21-.03.36-.1h.02c-.07.24-.65,1.07-.82,1.27-.19.22-.25.36-.21.47.05.13.2.15.32.17.02,0,.05,0,.07.01,0,.2-.15.97-.54,1.15-.37.17-.31.77-.24,1.11.03.16.15.68.32.68.11,0,.13,0,.64-1.82.23-.83.5-1.78.68-2.31.24-.67.47-1.45.63-1.96.08-.25.13-.44.16-.53.05-.13-.07-.41-.33-1.02-.29-.67-.69-1.59-.71-2.21-.02-.39.01-.63.1-.71.02-.02.05-.04.13-.04.11,0,.26.05.45.12.12.04.21.02.27-.05.11-.14.04-.43-.07-.88-.08-.32-.19-.76-.1-.87,0,0,.01-.02.05-.02.36,0,.47-.36.56-.65.07-.23.12-.38.22-.38.61,0,.75-.42.83-.64.02-.05.03-.1.05-.12.24-.38.47-.41.53-.41.06,0,.08.02.09.02.09.06.06.36.04.6-.03.38-.06.77.19.9-.05.1-.08.21-.12.31-.09.12-.22.26-.33.4-.34.39-.5.58-.45.73.01.03.04.08.12.1.15.03.3,0,.41-.02.05-.01.09-.02.12-.02.03,0,.05,0,.09.05,0,.11-.46.42-.73.6-.51.34-.82.57-.84.77-.02.17.14.31.3.45.22.2.36.34.28.52-.06.11-.17.22-.29.34-.31.29-.74.7-.61,1.58.03.19.07.37.2.37s.22-.19.45-.71c.34-.78.9-2.08,1.94-3.21l.03-.03v-.04c0-.06,0-.12-.01-.19l.02.02.06.05.29-.25.04-.05c1.5-1.68,1.44-2.21,1.4-2.49,0-.04,0-.07,0-.09,0,0,0-.02,0-.03.03,0,.06-.03.07-.06.08-.2.2-.49.34-.82.2-.13,1.03-.69,1.13-.97.02-.05,0-.11-.06-.13-.05-.02-.11,0-.13.06-.05.14-.44.45-.79.7.33-.73.73-1.5,1-1.71.05-.04.1-.08.15-.13.26,0,.83-.04,1.11-.18.05-.02.07-.08.04-.13-.02-.05-.08-.07-.13-.04-.19.1-.55.13-.82.15.09-.1.19-.21.3-.33.48-.55,1.07-1.22,1.81-1.5-.14.49-.52.83-.82,1.08-.22.2-.37.32-.36.47,0,.07.05.13.12.18l.02.04c-.01.12-.29.41-1.02.72-.27.11-.39.18-.37.3.02.12.16.13.42.14.1,0,.28,0,.36.03-.09.11-.38.35-.65.57-.97.82-1.71,1.47-1.54,1.84.04.09.12.14.22.14.34,0,1.06-.62,2.24-1.95.06-.07.1-.12.11-.12.62-.45,1.54-1.55,1.66-1.75.05-.07.08-.26.14-.63.07-.4.26-1.48.46-1.49.1,0,.11.03.14.12.03.1.1.28.39.2.24-.07.37-.51.52-1.03.09-.33.25-.88.4-.88h0c.21.06.45.1.65.1.36,0,.59-.1.67-.3.06-.13.79-.26,1.45-.26.19,0,.27.01.28.01.05.04.05.07.05.08,0,.08-.1.2-.19.31-.15.18-.32.37-.25.6.06.18.15.29.23.37.09.1.1.11.04.18-.26.33-1.81.83-2.25.85-.11,0-.21.02-.25.11-.04.1.05.18.14.27.08.08.2.19.18.25-.07.12-.87.41-1.34.59-.53.19-.83.31-.91.38l-.09.09c-.38.35-.57.54-.57.69,0,.04.01.08.04.11l.05.03h.04c.33,0,3.36-1.4,4.84-2.8.2-.19.27-.21.27-.22,0,.02.02.06.03.1.02.11.07.3.28.3.17,0,.41-.14.78-.44.43-.35.71-.52.85-.52.05,0,.07.02.12.1.05.08.11.19.27.19.05,0,.11-.01.17-.04.28-.11.41-.27.51-.38.12-.14.17-.18.35-.14.4.1,1.54.81,1.78.96-.12.2-1.05.92-2.18,1.02m-10.83,42.23c-.12-.01-.22-.02-.3-.03-.13-.01-.33-.43-.47-.73-.1-.21-.19-.4-.28-.54.4.34.94.68,1.36.95.23.15.49.32.62.41-.03,0-.07,0-.13,0-.22,0-.54-.04-.79-.06m5.51-42.65l-.04-.04h.02c.35-.02,1.41-.32,2.02-.65l-.03.03c-1.34,1.27-3.97,2.52-4.59,2.72.11-.14.35-.36.45-.46l.1-.09c.06-.05.49-.21.84-.34,1.03-.38,1.41-.55,1.46-.7.06-.19-.1-.35-.23-.46m-2.96,41.79s-.06.04-.09.05c0,.02,0,.03-.02.03v-.02s0,0,0,0h-.06c-.23,0-.56-.21-.97-.49-.13-.09-.23-.16-.29-.19-.05-.02-.07-.08-.04-.13.02-.05.08-.07.13-.04.07.04.18.11.32.2.25.17.73.49.88.46.01-.02.02-.05.03-.07-.15-.24-.29-.47-.4-.64-.2-.32-.38-.59-.45-.75-.05-.11-.14-.25-.25-.42-.06.01-.12.02-.2.02-.37,0-.91-.12-1.08-.22-.05-.03-.06-.09-.04-.14.03-.05.09-.06.13-.04.19.11.78.2,1.06.19-.53-.75-1.35-1.74-1.37-1.75-.04-.04-.03-.1.01-.14.04-.04.1-.03.14.01.04.05.85,1.02,1.38,1.77.03-.19-.03-.65-.14-1.11-.01-.05.02-.11.07-.12.05-.01.11.02.12.07.09.34.25,1.1.08,1.35.11.17.2.31.26.43.06.13.19.34.35.59,0,0,0,0,.01,0,.03,0,.02,0,0,0,.03.04.06.09.08.13.1.16.2.32.3.47.04-.35.01-.84-.03-1.16,0-.05.03-.1.09-.11.06,0,.1.03.11.09.01.11.11.99,0,1.45.42.7.64,1.2.46,1.42-.02.02-.05.03-.07.03l-.06-.02s-.05-.1-.01-.14c.1-.12-.14-.59-.42-1.08m4.22,4.82c.64-.11,1.14-.26,1.21-.32.03-.05.08-.05.13-.02.05.03.05.1.02.14-.05.08-.42.2-.92.31.01.02.02.06,0,.1-.07.24-.79.94-1.15,1.01h-.02s-.09-.03-.1-.08c-.01-.05.02-.11.08-.12.26-.06.79-.56.96-.79-.06,0-.14-.02-.22-.05-.5.09-1.06.15-1.56.15-.09,0-.18,0-.27,0h-.03c-.37.14-1.21.41-1.5.41-.03,0-.05,0-.07,0-.05-.02-.08-.07-.07-.12.02-.05.07-.08.12-.07.09.02.57-.11,1.07-.27-.59-.11-1.29-.38-1.91-.65h-.04c-.18,0-.33.01-.46.01-.78,0-.83-.09-.85-.14-.03-.05,0-.11.04-.13.04-.02.09-.01.12.02.08.04.41.05.78.05-.6-.28-1.05-.53-1.09-.55-.05-.03-.06-.09-.04-.13.03-.05.09-.07.13-.04,0,0,.49.27,1.12.57-.14-.27-.28-.52-.34-.56-.05-.03-.06-.09-.04-.13.03-.05.09-.06.14-.04.13.07.39.58.53.86.63.28,1.37.57,1.97.68,0,0,.01,0,.02,0-.57-.49-1.14-.95-1.25-.98-.05,0-.09-.05-.09-.11,0-.05.05-.1.11-.09.21.02,1.14.82,1.58,1.21.47.03,1,0,1.5-.08-.14-.06-.29-.13-.46-.21-.22-.1-.49-.23-.55-.24-.05,0-.1-.05-.1-.1,0-.05.04-.1.1-.1h0c.1,0,.29.09.63.25.23.11.53.25.75.33m-3.86-45.12s-.04-.1,0-.14c.02-.03.25-.27.55-.59-.02-.15-.07-.55,0-.72.02-.05.08-.07.13-.05.05.02.07.08.05.13-.03.07-.02.26,0,.45.26-.28.56-.58.79-.83v-.02c.3-.46.75-1.29.74-1.52,0-.05.04-.1.09-.1.06,0,.1.04.1.1,0,.21-.21.67-.42,1.05.8-.68,2.27-1.42,2.34-1.45.05-.02.11,0,.13.04.02.05,0,.11-.04.13-.02,0-1.65.83-2.41,1.51-.02.02-.04.04-.07.06.43-.13,1.07-.31,1.33-.28.05,0,.09.06.09.11,0,.05-.06.09-.11.09-.3-.04-1.24.26-1.62.39-.22.23-.5.51-.75.78.19-.03.35-.07.39-.1.04-.03.1-.02.14.02.03.04.02.11-.02.14-.12.09-.55.15-.73.17-.32.33-.56.59-.57.6-.02.02-.05.03-.07.03-.02,0-.05,0-.07-.03m9.22,47.32s-.06-.07-.06-.17v-2.18c0-.81.04-1.39.06-1.71v-.04s-.09-.1-.09-.1l-.05-.05-.06.03c-.46.23-1.21.56-1.59.67l-.07.02v.07s0,.05,0,.05c0,.14.02.29.08.46l.04.11.1-.06.69-.4s0,.05,0,.07v.06s0,2.99,0,2.99c0,.1-.03.14-.06.17-.03.03-.09.05-.16.05l-.48.02v.44s.1,0,.1,0c.62,0,.86-.02,1.08-.02h0c.23,0,.46.01.95.02h.1s0-.44,0-.44l-.42-.03c-.07,0-.13-.03-.16-.05m5.34-4.08h-.02c-.53,0-1.06-.03-1.59-.04h-.04s-.08.08-.08.08l-.03.03v.04c.01.3.02.63.02.96,0,.2,0,.41,0,.6v.1s.39,0,.39,0l.05-.52h0c0-.07.01-.12.02-.16,0-.03.02-.05.02-.06.01-.02.02-.02.05-.03.03,0,.08-.02.15-.01h1.1s-1.59,3.44-1.59,3.44l.05.11.03.06h.07c.11-.01.2-.02.27-.02.09,0,.2.01.31.02h.08s.02-.07.02-.07c.08-.34.33-1.11.46-1.44l.59-1.51h0c.17-.44.35-.87.5-1.15v-.02s.01-.43.01-.43h-.1c-.25,0-.49.02-.73.02m-2,3.1h0c0,.46-.15.86-.39,1.14-.24.28-.58.45-.95.45h0c-.4,0-.7-.17-.9-.41-.19-.24-.28-.56-.28-.87h0c0-.48.24-.87.56-1.1-.13-.1-.23-.22-.31-.37-.1-.19-.15-.41-.15-.66h0c0-.39.11-.73.32-.97.21-.24.53-.38.91-.38h0c.27,0,.52.08.72.26.19.18.31.46.31.82h0c0,.37-.18.67-.43.91.12.08.25.18.35.33.14.2.24.48.24.84h0Zm-.93.86c.09-.12.14-.3.14-.48h0c0-.22-.06-.37-.14-.48-.09-.12-.22-.2-.36-.29l-.26-.15c-.09.1-.16.2-.21.31-.06.13-.09.28-.09.47h0c0,.23.07.43.17.58.11.14.25.22.42.23h0c.13,0,.25-.07.34-.19m-.75-2.98c0,.18.06.3.14.4.08.1.2.17.32.24h0s.17.09.17.09c.16-.18.24-.37.25-.59h0c0-.2-.05-.36-.13-.47-.08-.11-.18-.17-.33-.17h0c-.13,0-.22.04-.3.12-.07.08-.12.21-.12.38h0Zm7.07,2.01h0c0,.46-.11.88-.32,1.2-.21.32-.53.52-.94.52h0c-.22,0-.42-.05-.58-.15-.16-.1-.3-.25-.39-.43-.2-.36-.28-.87-.28-1.47h0s0-.01,0-.01c0-.88.27-1.65.83-2.2.18-.18.36-.3.56-.38.19-.08.4-.11.63-.11h.04s.24.21.24.21l.07.06-.17.22h-.05s-.07-.01-.1-.01c-.33,0-.69.19-.92.67-.11.23-.18.57-.21.88.05-.05.09-.1.15-.14.14-.11.31-.18.52-.18h0c.16,0,.3.04.42.12.12.08.21.19.29.31.15.25.21.58.21.92Zm-1.73.14h.09c0,.22.02.43.06.6.04.17.11.3.19.37.05.05.11.07.18.07h0c.07,0,.13-.02.17-.07.05-.04.09-.11.12-.19.06-.16.09-.39.09-.57h0c0-.14-.01-.32-.05-.48-.04-.16-.1-.3-.18-.38-.05-.05-.11-.08-.18-.08h0c-.12,0-.2.04-.28.14-.07.1-.12.29-.12.58h-.09Zm1.74-54.78l-2.07-.28v-.05s.03-.22.03-.22v-.05s.06,0,.06,0l.22.03c.06,0,.11.01.14.01.07,0,.09-.01.1-.03.01-.01.02-.05.03-.1l.28-2.06h0s0-.06,0-.06c0-.04,0-.05-.03-.07-.03-.02-.1-.04-.21-.05l-.27-.04v-.05s.04-.27.04-.27l2.07.28v.05s-.04.27-.04.27h-.05s-.22-.04-.22-.04c-.06,0-.11-.01-.14-.01-.07,0-.09.01-.1.03-.01.01-.02.04-.03.1l-.28,2.06v.06s0,.05.03.07c.03.02.1.04.21.05l.27.04v.05s-.04.27-.04.27Zm-12.49-2.64v-.05s2.06-.33,2.06-.33v.05s.05.27.05.27h-.05s-.22.05-.22.05h0c-.11.02-.18.04-.21.06-.03.02-.03.03-.03.07v.07s.26,1.58.26,1.58c.02.15.08.26.18.35.1.08.25.14.47.14.08,0,.18,0,.28-.02.23-.04.42-.11.55-.23.13-.12.21-.27.21-.47,0-.04,0-.09-.01-.14l-.19-1.17c-.02-.15-.06-.25-.11-.31-.05-.06-.13-.08-.26-.08-.06,0-.13,0-.22.02h-.05s0-.04,0-.04l-.04-.26,1.56-.25v.05s.05.26.05.26h-.05c-.18.04-.29.09-.35.16-.07.07-.09.15-.09.27,0,.05,0,.1.01.16l.18,1.14c.01.07.02.14.02.2,0,.36-.17.63-.43.81-.26.18-.59.28-.94.34-.22.04-.43.05-.61.05-.34,0-.6-.06-.8-.19-.2-.13-.32-.34-.36-.6l-.25-1.58c0-.06-.02-.09-.03-.1-.01-.01-.03-.02-.09-.02-.04,0-.09,0-.16.02l-.27.04v-.05s-.04-.22-.04-.22Zm6.91,2.21h-1.58s0-.06,0-.06v-.27s.05,0,.05,0c.24,0,.37-.04.43-.1.06-.06.09-.16.09-.35v-1.74c-.11-.12-.29-.19-.51-.19h-.05s0-.05,0-.05v-.22s0-.05,0-.05h1.4s1.92,1.81,1.92,1.81v-1.02s0,0,0,0c0-.18-.02-.29-.09-.34-.06-.06-.19-.1-.43-.1h-.05v-.32h1.59s0,.06,0,.06v.27s-.05,0-.05,0c-.24,0-.37.04-.43.1-.06.06-.09.16-.09.35v2.29s-.06,0-.06,0h-.35s-2.34-2.24-2.34-2.24v1.41s0,0,0,0c0,.18.02.28.09.34.06.06.19.1.43.11h.05s0,.05,0,.05v.27Zm-14.93.97l-.11-.25,1.59-.7,1.39,1.26v-1.86s1.63-.71,1.63-.71l.02.05.1.25-.05.02-.22.1c-.09.04-.14.07-.17.09l-.03.06s0,.05.03.09l.82,1.91s.03.07.05.08l.05.02s.1-.02.2-.06l.27-.12.02.05.1.25-1.93.84-.02-.05-.11-.25.05-.02.21-.09c.09-.04.14-.07.17-.09l.03-.06s0-.05-.03-.09l-.8-1.84v2.7s-.03.01-.03.01l-.27.12-1.98-1.81.64,1.49c.05.12.1.2.17.26.06.06.13.09.21.09.07,0,.14-.02.24-.06l.11-.05.02.05.11.25-1.44.63-.02-.05-.09-.2-.02-.05.05-.02c.23-.1.34-.21.34-.37,0-.07-.02-.15-.06-.25l-.7-1.63s-.03-.07-.05-.08l-.05-.02s-.1.02-.2.06h0s-.24.1-.24.1l-.02-.05Zm-3.13,3.26c-.29.38-.45.7-.45.99,0,.13.03.25.11.36.13.19.35.33.65.32.24,0,.52-.09.83-.3.33-.22.61-.5.78-.84h.04c.28,0,.58-.1.79-.24.35-.23.49-.51.49-.79,0-.13-.03-.26-.07-.39l-.02-.05-.28.12-.05.02.02.05c.02.06.04.12.04.18,0,.1-.04.19-.15.27-.06.04-.14.07-.26.07-.07,0-.15-.01-.24-.03.03-.15.04-.33.05-.52,0-.17.01-.27.06-.36.04-.09.12-.16.28-.28l.04-.03-.14-.21-.03-.04-.04.03-1.21.81.14.21.03.04.1-.07c.11-.07.21-.11.27-.11.05,0,.08.02.1.05.03.04.04.09.04.18,0,.06,0,.13-.02.23-.33-.09-.66-.18-.97-.28.26-.31.4-.59.4-.83,0-.1-.03-.19-.08-.27-.1-.15-.27-.23-.46-.23-.21,0-.46.09-.72.26-.39.26-.62.6-.62.93,0,.14.04.27.12.39.09.14.26.27.45.35m1.57.52c-.04.07-.12.15-.2.21-.15.1-.3.14-.45.14-.31,0-.58-.19-.65-.3-.04-.06-.06-.12-.06-.19,0-.07.03-.15.07-.23.31.14.85.3,1.29.38m-1.37-1.94c.07-.05.15-.07.21-.07.11,0,.21.06.27.15.05.08.08.16.08.24,0,.12-.06.25-.17.39-.12-.04-.23-.09-.32-.14-.1-.05-.17-.11-.19-.14-.04-.06-.05-.11-.05-.17,0-.09.05-.19.17-.27m50.78,21.9l.22-.02h.05s.21,1.94.21,1.94h-.05s-.27.03-.27.03v-.05s-.02-.11-.02-.11c0-.1-.02-.16-.04-.19l-.02-.03h0s0,0,0,0h0s-.04.02-.12.1h0s-.73.72-.73.72l.69.38c.1.06.15.07.18.07h0s.07-.03.09-.07c.02-.05.03-.12.03-.21,0-.05,0-.11-.01-.18v-.05s.04,0,.04,0l.27-.03.18,1.61h-.05s-.26.04-.26.04v-.04c-.09-.36-.2-.47-.57-.7l-.96-.57-.84.09c-.06,0-.09.02-.1.03-.01.01-.03.04-.03.12,0,.03,0,.08,0,.13l.04.32h-.05s-.27.03-.27.03l-.23-2.17h.05s.26-.03.26-.03v.05s.03.26.03.26c.01.12.03.18.05.21.02.03.03.03.07.03h.05s.79-.09.79-.09l1.11-1.11c.13-.14.16-.18.16-.31,0-.04,0-.09,0-.14v-.05s.04,0,.04,0Zm-13.75-18.14l.75-.93.03-.04.04.03.21.19v.03c-.05.15-.08.31-.08.49,0,.38.13.8.47,1.1.17.15.38.26.55.26.09,0,.17-.03.24-.11.05-.06.08-.12.08-.19,0-.11-.07-.25-.22-.43l-.34-.41c-.38-.45-.54-.83-.54-1.15,0-.2.06-.36.18-.49.17-.2.39-.29.63-.28.35,0,.74.19,1.08.49.25.22.42.47.53.76l.33.03h.01s.2.19.2.19l-.71.93-.04-.04-.22-.19v-.03c.05-.14.08-.29.08-.45,0-.35-.12-.72-.44-1.01-.16-.14-.37-.25-.53-.25-.08,0-.15.03-.2.09-.04.05-.06.1-.06.16,0,.1.06.25.23.45l.41.5c.33.41.49.74.49,1.04,0,.2-.08.38-.21.54-.16.18-.39.28-.66.28-.32,0-.68-.14-1.04-.46-.31-.27-.52-.58-.63-.9l-.39-.03h-.01s-.21-.19-.21-.19Zm5.14,1.06l-.18-.21.04-.03.2-.18,1.4,1.56-.04.03-.2.18-.03-.04-.15-.17c-.1-.12-.16-.15-.19-.15-.02,0-.05.01-.1.06l-1.54,1.39c-.05.05-.07.07-.07.1,0,.03.03.09.13.2l.18.21-.04.03-.2.18-1.4-1.56.04-.03.16-.15.04-.03.03.04.15.17c.1.12.17.15.19.15.02,0,.05-.01.1-.06l1.54-1.39c.05-.05.07-.07.07-.1,0-.03-.03-.09-.13-.2m1.25,2.74l1.03-.62,2,2.87-.93.77-.03-.04-.17-.24.03-.03c.17-.17.36-.47.36-.77,0-.14-.04-.27-.13-.4h0s-.05-.07-.07-.08l-.03-.02s-.03,0-.06.03l-1.76,1.24-.06.05-.02.04s.03.1.11.21l.19.28-.04.03-.22.15-1.27-1.82.04-.03.18-.13.04-.03.03.04.17.24c.05.07.09.11.11.14l.06.03s.05-.01.1-.05l1.76-1.24s.05-.05.05-.06c0-.01-.01-.05-.06-.12h0s0,0,0,0c-.16-.23-.39-.31-.63-.31-.2,0-.4.06-.54.13l-.04.02-.02-.03-.18-.25Zm3.36,3.4l-.02-.05.04-.02.2-.1.04-.02.87,1.75-.04.02-.24.12-.02-.05-.05-.1c-.04-.08-.07-.13-.09-.16l-.03-.03h-.01s-.04.04-.08.14l-.43.93.78.12c.06,0,.1.01.13.01.04,0,.05,0,.07-.01.04-.02.06-.05.06-.11,0-.09-.05-.22-.11-.35l-.02-.04.04-.02.24-.12.72,1.45-.04.02-.24.12-.02-.04c-.2-.3-.35-.38-.76-.46l-1.1-.2-.75.38h0s-.06.04-.08.05l-.02.04s.02.1.08.21l.15.29-.04.02-.24.12-.97-1.95.04-.02.24-.12.02.04.12.23c.04.08.07.13.1.16l.06.03s.05,0,.09-.03l.71-.36.65-1.43c.05-.1.07-.17.07-.23,0-.06-.02-.13-.08-.25M42.76,3.81h-.05s.01-.06.01-.06l.06-.21v-.05s1.91.51,1.91.51v.05s-.08.26-.08.26h-.05s-.25-.08-.25-.08c-.04-.01-.08-.02-.1-.02h-.02s0,.02,0,.02h0s0,0,0,0v.03s0,.05,0,.09l.36,1.74,1.03-1.18s.05-.08.06-.11v-.03s-.03-.1-.09-.15c-.06-.05-.14-.09-.22-.11l-.13-.03v-.05s.08-.26.08-.26l1.58.42v.05s-.08.26-.08.26h-.05c-.05-.02-.11-.03-.16-.03-.23,0-.44.11-.65.34l-1.69,1.84-.47-.12-.6-2.71c-.03-.15-.06-.22-.11-.27-.05-.05-.13-.08-.3-.13m4.03,3.63l.21.09c.1.05.17.06.2.06l.05-.02s.03-.04.04-.08l.83-1.91s.03-.07.03-.09l-.03-.06s-.08-.06-.17-.09l-.25-.11.02-.05.11-.25,3.26,1.44-.43,1.08-.05-.02-.27-.12v-.03c0-.05,0-.11,0-.16,0-.26-.04-.46-.16-.63s-.33-.32-.67-.47c-.16-.07-.26-.1-.33-.1-.04,0-.06.01-.09.03-.02.02-.05.06-.07.12l-.3.68.04.02c.12.05.23.08.32.08.21,0,.38-.11.5-.3l.02-.04.04.02.29.13-.59,1.4-.05-.02-.31-.14.02-.04c.03-.07.04-.14.04-.21,0-.24-.16-.46-.46-.59h-.01s-.35.8-.35.8c-.02.06-.04.1-.04.12,0,.03.01.06.08.1.06.05.18.1.35.18.24.11.44.16.62.16.31,0,.56-.15.83-.43l.03-.03.03.02.27.14-.53,1.05-3.29-1.45.02-.05.09-.2.02-.05.05.02Zm20.32,19.28c.07-.02.15-.03.21-.03.27,0,.5.13.68.35.18.21.31.5.4.82.04.17.07.34.07.5,0,.14-.02.28-.05.42l.25.21v.02s.07.26.07.26l-1.11.36v-.05s-.08-.28-.08-.28l.03-.02c.29-.23.55-.63.55-1.09,0-.1-.01-.21-.04-.32-.04-.14-.1-.28-.18-.39-.08-.11-.18-.17-.28-.17h-.06c-.06.03-.11.06-.15.12-.04.07-.07.17-.07.33,0,.05,0,.1,0,.16l.06.65c0,.11.01.22.01.32,0,.33-.05.59-.17.78-.11.19-.29.31-.51.37-.07.02-.13.03-.2.03-.46,0-.91-.39-1.1-1.14-.05-.21-.08-.41-.08-.6,0-.18.02-.34.07-.5l-.31-.24v-.02s-.07-.27-.07-.27l1.15-.34h.05s.01.04.01.04l.07.28-.03.02c-.32.25-.6.69-.6,1.2,0,.11.01.22.04.34.04.15.11.3.19.41.09.11.19.18.3.17h.08c.09-.03.14-.07.18-.14.04-.06.06-.16.06-.29,0-.05,0-.11,0-.17l-.05-.53c-.01-.13-.02-.25-.02-.36,0-.72.27-1.11.64-1.2m-16.15-17.37l-.14.22-.03.04.04.03,1.74,1.12.15-.23.03-.04-.26-.17c-.07-.05-.12-.08-.15-.11l-.03-.06s.01-.05.04-.1l.5-.79.18.12c.12.08.21.15.27.22.06.07.08.14.08.22,0,.12-.07.29-.22.53-.08.13-.12.27-.12.39,0,.29.2.52.47.7.2.13.4.2.59.2.23,0,.44-.11.59-.36l.03-.04-.26-.16-.04-.02-.03.04c-.13.16-.22.21-.27.21l-.07-.03h0s-.05-.04-.05-.08c0-.05.02-.14.07-.29.06-.18.09-.33.09-.47,0-.19-.06-.37-.2-.55.21.09.42.15.6.15.23,0,.43-.08.55-.27.07-.1.11-.23.11-.36,0-.32-.23-.68-.82-1.06l-2-1.29-.15.23-.03.04.23.15c.07.05.12.08.15.11l.03.06s-.01.05-.04.1l-1.12,1.75-.05.07-.04.02s-.1-.03-.21-.1l-.19-.12-.04-.03Zm2.47-.98h0s.06-.08.08-.1l.06-.03c.05,0,.16.05.34.17.27.18.41.33.41.5,0,.07-.03.15-.08.25-.1.16-.22.22-.37.22-.19,0-.44-.11-.72-.3l-.13-.08.41-.64Zm14.61,31.58l1.16.3-.59,3.45-1.2-.11v-.05s.06-.29.06-.29h.04s0,0,0,0c.18,0,.4-.04.59-.15.19-.11.34-.27.38-.52,0-.04,0-.07,0-.09,0-.04,0-.05-.01-.05,0,0-.03-.02-.07-.02l-2.12-.37h-.07s-.04,0-.07.03c-.02.03-.04.1-.06.21l-.06.33h-.05s-.26-.06-.26-.06l.38-2.19h.05s.21.04.21.04h.05s0,.06,0,.06l-.05.29c-.01.07-.02.12-.02.16,0,.06.01.07.02.09.01.01.05.02.1.03l2.11.37h.05s.04-.01.04-.01c.01-.01.02-.05.04-.12,0-.04.01-.08.01-.12,0-.43-.4-.73-.71-.84h-.04s0-.06,0-.06l.05-.3Zm-1.63,9.7l.24.13-.82,1.54-1.86-.13,1.15,1.46-.84,1.58-.04-.02-.24-.13.02-.04.11-.22c.06-.11.08-.17.08-.21l-.02-.04s-.04-.03-.07-.05l-1.82-.99s-.08-.03-.09-.03l-.06.03s-.06.08-.1.16l-.14.26-.04-.02-.24-.12.99-1.86.04.02.24.12-.02.04-.11.2c-.06.11-.08.17-.08.21l.02.04s.04.03.07.05l1.76.95-1.66-2.11.02-.03.13-.26,2.67.19-1.42-.77c-.12-.07-.23-.1-.32-.1-.13,0-.23.06-.34.26l-.06.11-.04-.02-.24-.13.74-1.39.04.02.19.1.04.02-.02.04c-.07.12-.1.23-.1.32,0,.13.07.23.27.34l1.56.84s.08.04.09.04l.06-.03s.06-.08.1-.16l.12-.23.04.02ZM14.23,14.68c0,.21-.07.35-.18.47l-.03.03.18.19.03.04.04-.03,1.13-1.05-.18-.2-.03-.04-.04.03c-.14.13-.27.21-.37.21-.05,0-.08-.02-.12-.06h0s-.09-.14-.14-.35l.91-.85.4.15c.05.02.1.04.12.07l.02.03s-.02.07-.1.13l-.12.11-.04.03.18.2.03.04,1.4-1.3-.18-.2-.03-.04-.04.03c-.15.13-.23.17-.31.17-.05,0-.11-.02-.2-.05l-2.67-.93-.33.3.63,2.52c.03.12.05.23.05.32m.83-1.72l-.64.6-.25-.93.89.33Zm-5.54,37.34l1.1,1.93-.04.03-.19.11-.04.03-.02-.04-.14-.25c-.04-.08-.08-.13-.11-.15l-.06-.03s-.05.01-.1.04l-1.86,1.07-.05.04v.02s0,.05.04.12c.16.28.43.37.7.37.16,0,.32-.03.45-.08h.04s.02.02.02.02l.15.27-1.08.52-1.73-3.04.99-.67.03.05.15.26-.03.03c-.21.17-.43.47-.43.79,0,.11.03.23.1.35.03.05.05.07.06.09l.03.02.06-.03h0s1.86-1.07,1.86-1.07c.03-.02.06-.04.07-.05l.02-.04s-.02-.1-.09-.21l-.17-.3.04-.02.23-.13Zm9.56,11.2l-1,.75.39,1.19-.99-.73-.99.73.39-1.19-1-.75h1.23l.38-1.16.36,1.16h1.24Zm37.57,0l-1,.75.39,1.19-.99-.73-.99.73.39-1.19-1.01-.75h1.23l.37-1.16.37,1.16h1.24Zm12.57-25.33c.15.25.22.58.22.94v.09c-.01.33-.09.62-.24.9l.18.27v.02s-.01.27-.01.27l-1.16.04v-.05s.01-.29.01-.29h.03c.42-.18.86-.61.88-1.22v-.04c0-.16-.03-.32-.09-.44-.06-.12-.14-.2-.26-.2h0c-.07,0-.13.02-.2.1-.06.08-.12.21-.16.43l-.12.64c-.08.42-.2.72-.37.93-.17.2-.38.3-.64.3h-.03c-.51-.02-.95-.51-.94-1.36v-.07c.01-.41.11-.77.29-1.06l-.23-.32v-.02s0-.28,0-.28h1.2s.05,0,.05,0v.05s-.01.29-.01.29h-.03c-.45.2-.94.66-.96,1.33v.04c0,.17.03.34.09.47.07.13.16.2.29.21h.01c.1,0,.17-.03.23-.11.06-.08.11-.21.14-.39l.1-.53c.08-.46.22-.79.4-1.01.17-.22.39-.32.6-.32h.02c.32,0,.55.18.7.43m-1.17,8.69l.25.09-1.12,3.39-1.11-.33.02-.05.09-.28h.03c.31-.01.54-.06.71-.2.18-.13.32-.36.45-.75.05-.15.07-.25.07-.31,0-.05-.01-.08-.03-.1-.02-.02-.06-.05-.13-.07l-.7-.23-.02.04c-.03.1-.05.19-.05.27,0,.24.12.42.35.54l.04.02v.04s-.11.3-.11.3l-1.44-.46.02-.05.11-.32h.05c.06.03.11.04.17.04.26,0,.48-.18.6-.51h0s-.83-.29-.83-.29c-.05-.02-.09-.03-.11-.03-.04,0-.06,0-.1.08-.04.07-.09.19-.15.38-.07.21-.1.38-.1.54,0,.36.17.62.51.89l.03.02v.03s-.13.29-.13.29l-1.09-.43,1.14-3.42.05.02.21.07.05.02-.02.05-.07.22c-.03.09-.05.16-.05.2,0,.03,0,.04.02.06.01.01.04.03.09.04l1.96.66s.07.02.09.02l.06-.03s.05-.09.08-.18l.09-.26.05.02ZM8.14,24.07c0,.09-.02.18-.06.26l-.02.04.24.12.04.02.02-.04.69-1.39-.24-.12-.04-.02-.02.04c-.05.1-.11.19-.16.25-.06.06-.11.09-.17.09l-.08-.02c-.06-.03-.13-.1-.25-.28l.56-1.12h.43s0,0,0,0c.05,0,.1,0,.13.02l.03.05s-.01.07-.04.14l-.07.14-.02.05.24.12.04.02.86-1.71-.24-.12-.04-.02-.02.04c-.08.14-.13.21-.19.25-.06.04-.13.05-.25.05l-2.83.07-.2.4,1.47,2.13c.15.21.2.39.2.53m-.82-2.15h.95s-.39.78-.39.78l-.55-.78Zm1.26-3.72c0-.33.14-.69.37-1.02.19-.27.42-.47.69-.62v-.33s0-.01,0-.01l.15-.22.99.61-.03.04-.17.24h-.03c-.09-.02-.18-.03-.28-.03-.39,0-.83.15-1.11.56-.11.16-.19.36-.19.51,0,.1.03.18.11.24.04.03.09.05.14.05.1,0,.25-.07.45-.28l.45-.47c.4-.41.74-.61,1.06-.61.17,0,.32.06.47.16.22.16.36.43.36.75,0,.29-.11.62-.35.97-.23.34-.52.59-.82.72l.02.4h-.01s-.16.24-.16.24l-1-.65-.04-.03.03-.04.16-.23h.03c.1.02.2.03.3.03.43,0,.91-.16,1.22-.6.12-.17.2-.37.2-.53,0-.12-.04-.21-.13-.28-.06-.04-.11-.06-.17-.06-.11,0-.25.08-.43.27l-.37.39c-.45.47-.84.67-1.17.67-.16,0-.3-.05-.41-.13-.25-.17-.36-.43-.36-.71m-4.21,9.61l-.25-.08.6-1.84.05.02.25.08-.02.05-.02.07c-.03.1-.04.17-.04.21v.03s.01,0,.01,0h0s.05,0,.09-.03h0s.7-.31.7-.31c-.12-.28-.21-.44-.26-.54-.06-.1-.09-.11-.1-.12h-.03s-.08.02-.12.08c-.05.07-.09.17-.14.31l-.02.05-.05-.02-.25-.08.53-1.62.05.02.25.08v.05c-.04.1-.06.18-.06.27,0,.14.04.29.15.51l.42.85,1.38-.61c.25-.12.3-.16.39-.4l.02-.05.05.02.25.08-.61,1.86-.05-.02-.25-.09.02-.05.04-.11c.03-.08.04-.14.04-.17v-.03s0,0,0,0h0s-.01,0-.01,0c-.02,0-.06.01-.12.04l-.75.33c.15.3.23.47.29.56.06.1.08.11.13.12h0s.03,0,.03,0c.03,0,.07-.02.11-.07.04-.05.09-.13.12-.25l.06-.18.05.02.25.08-.56,1.71-.05-.02-.21-.07h-.04s.01-.06.01-.06c.03-.1.04-.2.04-.29,0-.12-.02-.23-.07-.34l-.51-1.06-1.46.65h0c-.08.04-.12.06-.15.1-.03.04-.06.1-.1.2l-.02.04h-.04Zm.01,16.59l.06.27h-.05s-.26.06-.26.06l-.71-3.5,1.13-.27v.05s.07.29.07.29l-.03.02c-.41.26-.59.47-.59.92,0,.13.02.29.05.48.03.16.06.26.1.32.04.05.06.07.12.07.03,0,.06,0,.09-.01l.72-.15v-.05c-.09-.38-.31-.55-.62-.55h-.04s-.04,0-.04,0v-.04s-.07-.31-.07-.31l1.48-.32v.05s.08.33.08.33h-.05c-.28.08-.44.3-.44.62,0,.06,0,.13.02.2h0s.86-.16.86-.16c.07-.01.11-.03.13-.05.02-.02.03-.04.03-.12,0-.08-.02-.21-.06-.39-.07-.36-.19-.59-.36-.75-.17-.16-.4-.24-.7-.29h-.04s0-.04,0-.04l-.04-.31,1.16-.17.71,3.54h-.05s-.21.05-.21.05h-.05s-.01-.04-.01-.04l-.04-.22c-.02-.11-.04-.17-.06-.2-.02-.03-.03-.03-.06-.03h-.07s-2.03.42-2.03.42c-.05,0-.08.02-.1.03-.01.01-.02.03-.02.08,0,.04,0,.1.02.17m-.88-11.81l-.26-.04.59-3.53,1.14.15v.05s-.06.29-.06.29h-.03c-.31.07-.52.15-.68.31-.16.16-.26.41-.33.81-.02.11-.03.19-.03.26,0,.08.02.13.04.15.02.03.07.05.15.06l.73.12v-.05c.02-.06.02-.11.02-.16,0-.31-.16-.5-.43-.59h-.04s0-.06,0-.06l.05-.31,1.5.23v.05s-.07.33-.07.33h-.05s-.08-.01-.08-.01c-.3,0-.53.22-.6.61h0s.86.16.86.16c.04,0,.07.01.09,0,.06,0,.07,0,.11-.07.03-.07.06-.2.1-.42.02-.13.03-.24.03-.35,0-.49-.22-.74-.65-1l-.03-.02v-.04s.08-.3.08-.3l1.14.26-.6,3.56h-.05s-.21-.04-.21-.04h-.05s0-.06,0-.06l.04-.22c.01-.07.02-.12.02-.16,0-.06-.01-.08-.02-.09-.01-.01-.04-.02-.1-.03l-2.04-.34h-.07s-.05,0-.07.03c-.02.03-.04.1-.06.21l-.05.27h-.05Zm2.7,17.1l.1.26-.05.02-.25.09-.74-1.97.05-.02.25-.09.02.05.08.21c.03.09.06.15.09.18l.06.03s.05,0,.09-.02l.77-.29-.45-1.21-.77.29s-.07.03-.08.04l-.02.05s.02.1.05.2l.1.26-.05.02-.25.1-.74-1.97.05-.02.25-.1.02.05.08.21c.03.09.06.15.09.18l.06.03s.05,0,.09-.02l1.94-.74s.07-.03.08-.04l.02-.05s-.02-.1-.05-.2l-.1-.26.05-.02.25-.09.74,1.96-.05.02-.25.09-.02-.05-.08-.21c-.03-.09-.06-.15-.09-.18l-.06-.03s-.05,0-.09.02l-.85.33.45,1.2.85-.32s.07-.03.08-.04l.02-.05s-.02-.1-.05-.2l-.1-.26.05-.02.25-.1.74,1.96-.05.02-.2.08-.05.02-.02-.05-.08-.21c-.03-.09-.06-.15-.09-.18l-.06-.03s-.05,0-.09.02l-1.94.74s-.07.03-.08.04l-.02.05s.02.1.05.2m-1.94-12.24l-1.19-.11.07-3.5,1.2-.07v.05s0,.3,0,.3h-.04c-.18.03-.4.11-.57.24-.17.13-.3.32-.3.58v.02c0,.07.01.1.02.11,0,0,.02.02.07.02l2.15.04h.02c.07,0,.08,0,.1-.03.02-.03.03-.1.03-.23v-.34s.06,0,.06,0h.27s-.04,2.23-.04,2.23h-.05s-.22,0-.22,0h-.05s0-.05,0-.05v-.29s0-.04,0-.04c0-.12-.02-.17-.03-.19-.01-.02-.04-.03-.11-.03l-2.15-.04h-.02s-.05,0-.06.02c0,.01-.02.05-.02.13h0c0,.27.12.45.29.59.17.14.38.22.55.25h.04s0,.05,0,.05v.31Zm32,27.95c-16.09,0-29.13-13.05-29.14-29.14,0-16.09,13.04-29.14,29.14-29.14s29.14,13.04,29.14,29.14c0,16.09-13.04,29.14-29.14,29.14m0-.3c7.96,0,15.17-3.23,20.39-8.45,5.22-5.22,8.44-12.43,8.44-20.39,0-7.96-3.23-15.17-8.44-20.39-5.22-5.22-12.43-8.45-20.39-8.45-7.96,0-15.17,3.23-20.39,8.45s-8.45,12.43-8.45,20.39,3.23,15.17,8.45,20.39c5.22,5.22,12.43,8.45,20.39,8.45m28.25-28.84c0-15.66-12.67-28.4-28.25-28.4s-28.25,12.74-28.25,28.4,12.67,28.4,28.25,28.4,28.25-12.74,28.25-28.4m-.29,0c0,15.5-12.54,28.11-27.96,28.11s-27.96-12.61-27.96-28.11,12.54-28.11,27.96-28.11,27.96,12.61,27.96,28.11m-8.41,0c0-1.11.69-1.55.65-2.51-.46-3.77-1.94-7.23-4.16-10.08-.64-.7-1.44-.53-2.22-1.31-.78-.78-.6-1.59-1.3-2.23-2.84-2.23-6.27-3.72-10.03-4.18-.95-.05-1.39.65-2.5.65s-1.54-.7-2.49-.65c-3.75.46-7.19,1.95-10.03,4.18-.7.64-.52,1.45-1.3,2.23-.78.78-1.58.61-2.22,1.31-2.22,2.85-3.7,6.31-4.16,10.08-.05.96.65,1.4.65,2.51s-.69,1.55-.65,2.51c.46,3.77,1.94,7.23,4.16,10.08.64.7,1.44.53,2.22,1.31.78.78.6,1.59,1.3,2.23,2.84,2.23,6.27,3.72,10.03,4.18.95.05,1.39-.65,2.49-.65s1.54.7,2.5.65c3.75-.46,7.19-1.95,10.03-4.18.7-.64.52-1.45,1.3-2.23.78-.78,1.58-.61,2.22-1.31,2.22-2.85,3.7-6.31,4.16-10.08.04-.96-.65-1.4-.65-2.51m-19.55,19.22c-10.56,0-19.12-8.6-19.12-19.22s8.56-19.22,19.12-19.22,19.12,8.6,19.12,19.22-8.56,19.22-19.12,19.22m35.22-19.7c0-.17,0-.35,0-.52l1.03-.04v-.21s-.04-.72-.04-.72l-1.03.04c0-.17-.02-.34-.03-.52l1.03-.08-.02-.21-.06-.72-1.03.08c-.02-.17-.03-.34-.05-.51l1.03-.13-.03-.21-.09-.72-1.03.13c-.02-.17-.05-.34-.07-.51l1.02-.17-.03-.2-.12-.71-1.02.17c-.03-.17-.06-.34-.1-.51l1.01-.21-.04-.2-.15-.7-1.01.21c-.04-.17-.07-.33-.11-.5l1-.25-.05-.2-.18-.7-1,.25c-.04-.17-.09-.33-.13-.5l.99-.29-.06-.2-.2-.69-.99.29c-.05-.16-.1-.33-.16-.49l.98-.33-.07-.2-.23-.68-.98.33c-.06-.16-.12-.32-.17-.48l.96-.37-.08-.19-.26-.67-.96.37c-.06-.16-.13-.32-.19-.48l.95-.41-.08-.19-.29-.66-.95.41c-.07-.16-.14-.31-.22-.46l.93-.45-.09-.19-.31-.65-.93.45c-.08-.15-.15-.31-.23-.46l.91-.49-.1-.18-.34-.63-.91.49c-.08-.15-.16-.3-.25-.45l.89-.52-.11-.18-.37-.62-.89.52c-.09-.15-.18-.29-.27-.43l.87-.56-.11-.17-.39-.6-.87.56c-.09-.14-.19-.28-.29-.42l.84-.6-.12-.17-.41-.59-.84.6c-.1-.14-.2-.28-.3-.41l.82-.63-.13-.16-.44-.57-.82.63c-.11-.13-.21-.27-.32-.4l.79-.66-.13-.16-.46-.55-.79.66c-.11-.13-.22-.26-.34-.39l.76-.69-.14-.15-.48-.53-.76.7c-.12-.13-.23-.25-.35-.37l.74-.73-.15-.15-.5-.51-.74.72c-.12-.12-.24-.24-.37-.36l.71-.76-.15-.14-.52-.49-.71.75c-.13-.11-.25-.23-.38-.34l.68-.78-.16-.14-.55-.47-.68.78c-.13-.11-.26-.22-.39-.33l.64-.81-.16-.13-.56-.45-.65.81c-.13-.1-.27-.21-.41-.31l.61-.83-.17-.12-.58-.42-.61.84c-.14-.1-.28-.19-.42-.29l.58-.86-.17-.12-.6-.4-.58.86c-.14-.09-.29-.19-.43-.28l.54-.88-.18-.11-.61-.37-.54.88c-.15-.09-.29-.18-.44-.26l.5-.9-.18-.1-.63-.35-.5.9c-.15-.08-.3-.16-.45-.24l.47-.93-.19-.09-.64-.32-.46.92c-.15-.07-.31-.15-.46-.22l.43-.94-.19-.09-.65-.3-.43.94c-.16-.07-.31-.14-.47-.2l.39-.96-.19-.08-.67-.27-.39.96c-.16-.06-.32-.12-.48-.18l.35-.97-.19-.07-.68-.24-.35.97c-.16-.06-.32-.11-.48-.16l.31-.99-.2-.06-.68-.22-.31.99c-.16-.05-.32-.1-.49-.14l.27-1-.2-.05-.69-.19-.27,1c-.16-.04-.33-.08-.49-.12l.23-1.01-.2-.04-.7-.16-.22,1.01c-.17-.04-.33-.07-.5-.1l.18-1.02-.2-.04-.71-.13-.19,1.02c-.17-.03-.33-.06-.5-.08l.14-1.02-.2-.03-.71-.1-.14,1.02c-.17-.02-.34-.04-.5-.06l.1-1.03-.21-.02-.72-.07-.1,1.03c-.17-.01-.34-.03-.51-.04l.06-1.03h-.21s-.72-.05-.72-.05l-.06,1.03c-.17,0-.34-.01-.51-.02l.02-1.03h-.21S36.48,0,36.48,0l-.02,1.03c-.07,0-.14,0-.2,0-.1,0-.2,0-.3,0l-.02-1.03h-.21s-.72.02-.72.02l.02,1.04c-.17,0-.35.01-.52.02l-.06-1.03h-.21s-.72.06-.72.06l.06,1.03c-.17.01-.35.03-.52.05l-.11-1.03-.2.02-.71.07.1,1.03c-.17.02-.34.04-.51.06l-.15-1.02-.2.03-.71.1.15,1.02c-.17.03-.34.05-.51.08l-.19-1.02-.2.04-.71.13.19,1.02c-.17.03-.34.07-.5.11l-.23-1.01-.2.05-.7.16.23,1.01c-.17.04-.34.08-.5.12l-.27-.99-.2.05-.69.19.27,1c-.17.05-.33.1-.49.15l-.31-.99-.2.06-.69.22.31.99c-.16.05-.33.11-.49.17l-.36-.97-.19.07-.68.25.35.97c-.16.06-.32.12-.48.18l-.39-.96-.19.08-.67.28.39.96c-.16.07-.32.14-.47.21l-.43-.94-.19.09-.65.3.43.94c-.16.07-.31.15-.46.23l-.47-.92-.18.09-.64.33.47.92c-.15.08-.3.16-.45.24l-.51-.9-.18.1-.63.35.51.9c-.15.09-.3.17-.44.26l-.55-.88-.17.11-.61.38.54.88c-.14.09-.29.19-.43.28l-.58-.86-.17.12-.6.41.58.86c-.14.1-.28.2-.42.3l-.62-.83-.17.12-.58.43.61.83c-.14.1-.27.21-.41.31l-.65-.8-.16.13-.56.45.65.8c-.13.11-.26.22-.39.33l-.68-.78-.15.14-.54.48.68.78c-.13.11-.25.23-.38.35l-.71-.75-.15.14-.52.49.71.75c-.12.12-.25.24-.37.36l-.74-.72-.14.15-.5.52.74.72c-.12.12-.23.25-.35.37l-.77-.69-.14.15-.48.54.77.69c-.11.13-.22.26-.33.39l-.8-.66-.13.16-.46.56.8.66c-.11.13-.21.26-.32.4l-.82-.62-.12.16-.43.57.82.62c-.1.14-.2.27-.3.41l-.85-.59-.12.17-.41.59.85.59c-.1.14-.19.28-.28.43l-.87-.56-.11.17-.39.61.87.56c-.09.14-.18.29-.27.43l-.89-.52-.1.18-.36.62.89.52c-.08.15-.17.3-.25.45l-.91-.48-.1.18-.34.64.91.48c-.08.15-.15.3-.23.46l-.93-.45-.09.19-.31.65.94.45c-.07.15-.14.31-.21.46l-.95-.41-.08.19-.28.66.95.41c-.06.16-.13.31-.19.47l-.96-.37-.07.19-.26.67.96.37c-.06.16-.11.32-.17.48l-.98-.33-.07.2-.23.68.98.33c-.05.16-.1.32-.15.48l-1-.29-.06.2-.2.69.99.28c-.04.16-.09.33-.13.49l-1-.25-.05.2-.17.7,1,.25c-.04.16-.07.33-.11.5l-1.01-.2-.04.2-.14.71,1.01.2c-.03.17-.06.33-.09.5l-1.02-.16-.03.2-.11.71,1.02.16c-.02.17-.05.33-.07.5l-1.03-.12-.02.21-.08.71,1.02.12c-.02.17-.03.34-.05.5l-1.03-.08-.02.21-.06.72,1.03.08c-.01.17-.02.33-.03.5l-1.03-.04v.21s-.03.72-.03.72l1.03.04c0,.17,0,.34,0,.51H0s0,.21,0,.21v.72s1.04,0,1.04,0c0,.17,0,.35.01.52l-1.03.04v.21s.04.72.04.72l1.03-.04c0,.17.02.34.03.51l-1.03.09.02.21.06.72,1.03-.09c.02.17.04.34.05.51l-1.03.13.03.21.09.71,1.03-.13c.02.17.05.34.07.51l-1.02.17.04.21.12.71,1.02-.17c.03.17.06.34.1.5l-1.01.21.04.2.14.71,1.01-.21c.04.17.08.34.12.5l-1,.25.05.2.18.7,1-.25c.04.17.09.33.13.5l-.99.29.06.2.21.69.99-.3c.05.16.11.33.16.49l-.98.33.07.2.23.68.98-.33c.06.16.12.32.18.48l-.96.38.07.19.26.67.96-.38c.06.16.13.32.19.48l-.95.41.08.19.29.66.95-.41c.07.16.14.31.22.47l-.93.45.09.19.31.65.93-.45c.08.15.16.31.23.46l-.91.49.1.18.34.63.91-.49c.08.15.17.3.25.45l-.89.53.11.18.37.62.89-.53c.09.15.18.29.27.43l-.87.56.11.17.39.6.87-.56c.09.14.19.28.29.42l-.84.6.12.17.41.59.84-.6c.1.14.2.28.3.41l-.82.63.13.16.44.57.82-.63c.11.13.21.27.32.4l-.79.66.13.16.46.55.79-.67c.11.13.22.26.34.38l-.76.7.14.15.49.53.76-.69c.12.12.23.25.35.37l-.73.73.15.15.5.51.74-.73c.12.12.24.24.37.36l-.7.76.15.14.53.49.7-.75c.13.11.26.23.38.34l-.67.78.16.14.54.47.67-.78c.13.11.26.22.39.33l-.64.81.16.13.56.45.64-.81c.13.1.27.21.41.31l-.6.84.17.12.58.42.61-.83c.14.1.28.19.42.29l-.57.86.17.11.6.4.57-.86c.14.09.29.18.43.27l-.54.88.18.11.61.38.54-.89c.15.09.29.17.44.26l-.5.9.18.1.63.35.5-.91c.15.08.3.16.45.24l-.47.92.19.09.64.33.46-.92c.15.07.31.15.46.22l-.43.94.19.08.65.29.42-.94c.16.07.31.14.47.2l-.39.96.19.08.67.27.38-.96c.16.06.32.12.48.18l-.35.97.19.07.68.24.35-.97c.16.05.32.11.48.16l-.31.99.2.06.69.21.31-.99c.16.05.33.1.49.14l-.26,1,.2.05.69.19.27-1c.16.04.33.08.49.12l-.23,1.01.2.05.7.16.23-1.01c.17.03.33.07.5.1l-.18,1.02.2.04.71.13.19-1.02c.17.03.33.06.5.08l-.14,1.02.2.03.71.1.14-1.02c.17.02.34.04.51.06l-.1,1.03.2.02.72.07.1-1.03c.17.01.34.03.51.04l-.06,1.03h.21s.72.05.72.05l.06-1.03c.17,0,.34.01.5.02l-.02,1.03h.21s.72.02.72.02l.02-1.03s.09,0,.14,0c.08,0,.16,0,.24,0l.02,1.03h.21s.72-.02.72-.02l-.02-1.03c.17,0,.35-.01.52-.02l.06,1.03h.2s.72-.05.72-.05l-.06-1.03c.17-.01.34-.03.52-.04l.11,1.03.2-.02.72-.07-.11-1.03c.17-.02.34-.04.52-.06l.14,1.02.2-.03.71-.1-.14-1.02c.17-.03.34-.06.51-.08l.18,1.02.2-.04.71-.13-.19-1.02c.17-.03.34-.07.51-.1l.23,1.01.2-.05.7-.16-.23-1.01c.17-.04.34-.08.5-.12l.27.99.2-.05.69-.19-.27-1c.17-.05.33-.1.49-.15l.31.99.2-.06.69-.22-.31-.99c.16-.05.33-.11.49-.17l.35.97.19-.07.68-.24-.35-.98c.16-.06.32-.12.48-.18l.39.95.19-.08.67-.27-.39-.96c.16-.07.31-.14.47-.21l.43.94.19-.08.65-.3-.43-.94c.16-.07.31-.15.46-.23l.47.92.18-.09.64-.33-.47-.92c.15-.08.3-.16.45-.24l.51.9.18-.1.63-.35-.51-.9c.15-.09.3-.17.44-.26l.54.88.17-.11.61-.38-.54-.88c.14-.09.29-.19.43-.28l.58.86.17-.11.6-.4-.58-.86c.14-.1.28-.2.42-.29l.61.83.17-.12.58-.43-.61-.83c.14-.1.27-.21.41-.31l.64.81.16-.13.57-.45-.65-.81c.13-.11.26-.22.39-.33l.68.78.15-.14.54-.47-.68-.78c.13-.11.25-.23.38-.34l.71.75.15-.14.52-.49-.71-.75c.12-.12.25-.24.37-.36l.74.72.14-.15.5-.52-.74-.72c.12-.12.23-.25.35-.37l.77.69.14-.15.48-.54-.77-.69c.11-.13.22-.26.33-.39l.8.66.13-.16.46-.56-.8-.66c.11-.13.21-.26.32-.4l.82.63.12-.16.44-.57-.82-.63c.1-.14.2-.27.3-.41l.85.59.12-.17.42-.59-.85-.59c.1-.14.19-.28.28-.43l.87.56.11-.17.39-.61-.87-.56c.09-.14.18-.29.27-.43l.89.52.1-.18.37-.62-.89-.52c.08-.15.17-.3.25-.44l.91.49.1-.18.34-.64-.91-.48c.08-.15.15-.3.23-.46l.93.45.09-.19.31-.65-.93-.45c.07-.15.14-.31.21-.46l.95.41.08-.19.29-.66-.95-.41c.07-.16.13-.31.19-.47l.96.37.07-.19.26-.67-.96-.37c.06-.16.11-.32.17-.48l.98.33.07-.19.23-.68-.98-.33c.05-.16.1-.32.15-.48l.99.29.06-.2.21-.69-.99-.29c.05-.16.09-.33.13-.49l1,.25.05-.2.17-.7-1-.25c.04-.16.07-.33.11-.5l1.01.21.04-.2.15-.71-1.01-.21c.03-.17.06-.33.09-.5l1.02.16.03-.2.12-.71-1.02-.17c.02-.17.05-.33.07-.5l1.03.12.02-.21.08-.71-1.02-.13c.02-.17.03-.33.05-.5l1.03.08.02-.21.06-.72-1.03-.08c.01-.17.02-.33.03-.5l1.03.04v-.21s.04-.72.04-.72l-1.03-.04c0-.17,0-.34,0-.51h1.03v-.93h-1.03Zm-35.22,35.48C17.03,71.27,1.44,55.6,1.44,36.27S17.03,1.26,36.26,1.26s34.82,15.67,34.82,35-15.59,35-34.82,35m.61-3.14l.99.75h-1.23l-.37,1.15-.37-1.15h-1.23l1-.75-.39-1.19.99.73.99-.73-.39,1.19Z"/></g></g></svg>