<?xml version="1.0" encoding="UTF-8"?><svg id="a" xmlns="http://www.w3.org/2000/svg" viewBox="0 0 323.15 48.41"><defs><style>.b{fill:#4b1111;stroke-width:0px;}</style></defs><path class="b" d="M6.26,9.41c0,1.54,0,2.8.08,3.47.05.46.14.82.62.88.22.03.58.06.72.06.1,0,.13.05.13.1,0,.08-.08.13-.26.13-.88,0-1.89-.05-1.97-.05s-1.09.05-1.57.05c-.18,0-.26-.03-.26-.13,0-.05.03-.1.13-.1.14,0,.34-.03.48-.06.32-.06.4-.42.46-.88.08-.67.08-1.94.08-3.47V2.64l-2.37.03c-.99.02-1.38.13-1.63.51-.18.27-.22.38-.27.5-.05.13-.1.16-.16.16-.05,0-.08-.05-.08-.14,0-.16.32-1.54.35-1.66.03-.1.1-.3.16-.3.11,0,.27.16.7.19.46.05,1.07.08,1.26.08h6c.51,0,.88-.03,1.14-.08.24-.03.38-.08.45-.08.08,0,.08.1.08.19,0,.48-.05,1.58-.05,1.76,0,.14-.05.21-.11.21-.08,0-.11-.05-.13-.27l-.02-.18c-.05-.48-.43-.85-1.97-.88l-2.02-.03v6.77Z"/><path class="b" d="M22.93,10.09c0,1.31.02,2.38.08,2.95.05.4.08.66.51.72.19.03.51.06.62.06.1,0,.13.06.13.11,0,.06-.08.11-.24.11-.77,0-1.66-.05-1.74-.05-.06,0-.98.05-1.39.05-.16,0-.22-.03-.22-.11,0-.05.03-.11.11-.11.13,0,.29-.03.42-.06.29-.06.34-.34.38-.74.06-.56.06-1.58.06-2.9v-1.36c0-.06-.03-.08-.08-.08h-5.87s-.08.02-.08.08v1.36c0,1.31,0,2.35.06,2.91.05.4.1.66.51.72.21.03.51.06.64.06.08,0,.11.06.11.11,0,.06-.06.11-.22.11-.78,0-1.68-.05-1.75-.05-.08,0-.98.05-1.41.05-.14,0-.22-.03-.22-.11,0-.05.03-.11.11-.11.13,0,.3-.03.43-.06.27-.06.3-.32.37-.72.08-.56.08-1.63.08-2.95v-2.4c0-2.11,0-2.5-.03-2.93-.03-.46-.11-.69-.58-.75-.11-.02-.35-.03-.48-.03-.05,0-.11-.06-.11-.11,0-.08.06-.11.22-.11.64,0,1.54.03,1.62.03.06,0,.96-.03,1.39-.03.16,0,.22.03.22.11,0,.05-.06.11-.11.11-.1,0-.19,0-.35.03-.38.08-.46.27-.5.75-.02.43-.02.85-.02,2.96v.29c0,.08.03.08.08.08h5.87s.08,0,.08-.08v-.29c0-2.11-.02-2.53-.03-2.96-.03-.46-.1-.69-.56-.75-.11-.02-.35-.03-.48-.03-.06,0-.11-.06-.11-.11,0-.08.06-.11.22-.11.62,0,1.54.03,1.6.03.08,0,.98-.03,1.39-.03.16,0,.24.03.24.11,0,.05-.06.11-.13.11-.1,0-.18,0-.35.03-.37.08-.45.27-.48.75-.03.43-.03.82-.03,2.93v2.4Z"/><path class="b" d="M28.69,7.69c0-2.11,0-2.5-.03-2.93-.03-.46-.11-.69-.58-.75-.11-.02-.35-.03-.48-.03-.05,0-.11-.06-.11-.11,0-.08.06-.11.22-.11.64,0,1.55.03,1.63.03.1,0,3.04.02,3.36,0,.27-.02.53-.06.64-.08.06-.02.13-.06.19-.06.05,0,.06.06.06.13,0,.1-.08.26-.11.64-.02.13-.05.74-.08.9-.02.06-.06.14-.13.14-.08,0-.11-.06-.11-.18,0-.1-.02-.32-.08-.48-.1-.22-.24-.32-1.01-.42-.24-.03-1.87-.05-2.03-.05-.06,0-.08.05-.08.14v3.7c0,.1,0,.14.08.14.18,0,2.03,0,2.35-.03.34-.03.54-.05.69-.19.1-.1.16-.18.21-.18s.08.03.08.11-.08.3-.11.75c-.03.27-.06.78-.06.88,0,.11-.03.26-.13.26-.06,0-.1-.05-.1-.13,0-.13,0-.27-.06-.45-.05-.19-.18-.35-.72-.42-.38-.05-1.89-.06-2.13-.06-.08,0-.1.05-.1.1v1.14c0,.46-.02,2.05,0,2.32.03.91.29,1.09,1.68,1.09.37,0,1.04,0,1.41-.14.37-.16.56-.4.64-.94.03-.16.06-.21.14-.21s.1.11.1.21-.11,1.02-.19,1.31c-.1.35-.24.35-.78.35-1.06,0-1.87-.03-2.45-.05-.59-.03-.96-.03-1.17-.03-.03,0-.3,0-.61.02-.27.02-.59.03-.82.03-.14,0-.22-.03-.22-.11,0-.05.03-.11.11-.11.13,0,.3-.05.43-.06.27-.05.3-.32.37-.72.08-.56.08-1.63.08-2.95v-2.4Z"/><path class="b" d="M48.08,9.41c0,1.54,0,2.8.08,3.47.05.46.14.82.62.88.22.03.58.06.72.06.1,0,.13.05.13.1,0,.08-.08.13-.26.13-.88,0-1.89-.05-1.97-.05s-1.09.05-1.57.05c-.18,0-.26-.03-.26-.13,0-.05.03-.1.13-.1.14,0,.34-.03.48-.06.32-.06.4-.42.46-.88.08-.67.08-1.94.08-3.47V2.64l-2.37.03c-.99.02-1.38.13-1.63.51-.18.27-.22.38-.27.5-.05.13-.1.16-.16.16-.05,0-.08-.05-.08-.14,0-.16.32-1.54.35-1.66.03-.1.1-.3.16-.3.11,0,.27.16.7.19.46.05,1.07.08,1.26.08h6c.51,0,.88-.03,1.14-.08.24-.03.38-.08.45-.08.08,0,.08.1.08.19,0,.48-.05,1.58-.05,1.76,0,.14-.05.21-.11.21-.08,0-.11-.05-.13-.27l-.02-.18c-.05-.48-.43-.85-1.97-.88l-2.02-.03v6.77Z"/><path class="b" d="M56.16,7.69c0-2.11,0-2.5-.03-2.93-.03-.46-.11-.69-.58-.75-.11-.02-.35-.03-.48-.03-.05,0-.11-.06-.11-.11,0-.08.06-.11.22-.11.64,0,1.55.03,1.63.03.1,0,3.04.02,3.36,0,.27-.02.53-.06.64-.08.06-.02.13-.06.19-.06.05,0,.06.06.06.13,0,.1-.08.26-.11.64-.02.13-.05.74-.08.9-.02.06-.06.14-.13.14-.08,0-.11-.06-.11-.18,0-.1-.02-.32-.08-.48-.1-.22-.24-.32-1.01-.42-.24-.03-1.87-.05-2.03-.05-.06,0-.08.05-.08.14v3.7c0,.1,0,.14.08.14.18,0,2.03,0,2.35-.03.34-.03.54-.05.69-.19.1-.1.16-.18.21-.18s.08.03.08.11-.08.3-.11.75c-.03.27-.06.78-.06.88,0,.11-.03.26-.13.26-.06,0-.1-.05-.1-.13,0-.13,0-.27-.06-.45-.05-.19-.18-.35-.72-.42-.38-.05-1.89-.06-2.13-.06-.08,0-.1.05-.1.1v1.14c0,.46-.02,2.05,0,2.32.03.91.29,1.09,1.68,1.09.37,0,1.04,0,1.41-.14.37-.16.56-.4.64-.94.03-.16.06-.21.14-.21s.1.11.1.21-.11,1.02-.19,1.31c-.1.35-.24.35-.78.35-1.06,0-1.87-.03-2.45-.05-.59-.03-.96-.03-1.17-.03-.03,0-.3,0-.61.02-.27.02-.59.03-.82.03-.14,0-.22-.03-.22-.11,0-.05.03-.11.11-.11.13,0,.3-.05.43-.06.27-.05.3-.32.37-.72.08-.56.08-1.63.08-2.95v-2.4Z"/><path class="b" d="M67.55,8.78l-2.24-3.65c-.32-.53-.59-.91-1.07-1.06-.22-.06-.51-.1-.59-.1s-.13-.08-.13-.13c0-.06.06-.1.24-.1.4,0,1.54.03,1.65.03.13,0,.9-.03,1.38-.03.19,0,.24.03.24.1s-.05.13-.13.13c-.1,0-.27,0-.38.03-.13.02-.18.11-.18.21,0,.13.06.3.14.45.59,1.07,1.12,2.05,1.86,3.22.42-.59,1.91-2.88,2.03-3.17.11-.19.14-.32.14-.48,0-.1-.1-.18-.24-.22-.14-.03-.3-.03-.38-.03s-.13-.06-.13-.13.06-.1.24-.1c.53,0,1.12.03,1.25.03s.7-.03,1.18-.03c.16,0,.22.03.22.1,0,.05-.05.13-.14.13-.11,0-.32.02-.48.06-.4.13-.66.48-1.06,1.07l-2.26,3.3c.27.42,2.67,4.37,2.98,4.74.22.29.38.48.8.59.19.05.4.08.48.08s.11.05.11.11-.06.11-.19.11c-.86,0-1.54,0-2.3-.03-.37-.02-.43-.05-.43-.11,0-.05.03-.1.08-.11.08-.02.21-.16.08-.38-.77-1.33-1.54-2.64-2.38-4.02l-2.16,3.57c-.13.22-.18.46-.18.61,0,.13.1.19.22.22.08.02.19.03.26.03.08,0,.13.06.13.13s-.08.1-.18.1c-.34,0-1.26-.05-1.39-.05-.11,0-.82.05-1.28.05-.11,0-.13-.05-.13-.1,0-.06.03-.13.11-.13.11,0,.32-.03.53-.08.42-.11.7-.37,1.15-1.06l2.53-3.91Z"/><path class="b" d="M78.5,4.03c.18-.45.24-.53.34-.53.14,0,.19.19.34.5.26.58,2.51,6.19,3.38,8.26.51,1.22.9,1.39,1.2,1.49.21.06.42.08.56.08.08,0,.18.03.18.11s-.16.11-.32.11c-.21,0-1.25,0-2.22-.03-.27-.02-.5-.02-.5-.1,0-.06.03-.06.1-.1.08-.03.22-.14.13-.37l-1.26-3.12c-.03-.06-.05-.08-.13-.08h-3.25c-.06,0-.11.03-.14.11l-.8,2.18c-.13.34-.21.67-.21.91,0,.27.24.37.48.37h.13c.11,0,.14.05.14.11,0,.08-.08.11-.21.11-.34,0-1.1-.05-1.26-.05-.14,0-.85.05-1.42.05-.18,0-.27-.03-.27-.11,0-.06.06-.11.13-.11.1,0,.3-.02.42-.03.64-.08.91-.56,1.18-1.25l3.31-8.51ZM80.07,9.69c.06,0,.06-.03.05-.1l-1.39-3.73c-.08-.21-.16-.21-.24,0l-1.31,3.73c-.02.06,0,.1.05.1h2.85Z"/><path class="b" d="M85.95,13.86c-.19-.1-.21-.14-.21-.51,0-.67.06-1.22.08-1.44,0-.14.03-.22.11-.22s.13.05.13.16,0,.3.05.5c.22.99,1.28,1.34,2.22,1.34,1.39,0,2.11-.78,2.11-1.81s-.53-1.44-1.78-2.37l-.64-.48c-1.52-1.14-2.02-1.97-2.02-2.91,0-1.6,1.26-2.56,3.12-2.56.56,0,1.12.08,1.46.16.27.06.38.06.5.06s.14.02.14.1c0,.06-.06.51-.06,1.44,0,.21-.02.3-.11.3s-.11-.06-.13-.18c-.02-.16-.13-.53-.21-.67-.1-.16-.56-.67-1.82-.67-1.02,0-1.87.51-1.87,1.47,0,.86.43,1.36,1.82,2.3l.4.27c1.71,1.17,2.3,2.11,2.3,3.28,0,.8-.3,1.67-1.31,2.32-.59.38-1.47.48-2.24.48-.66,0-1.47-.1-2.05-.37Z"/><path class="b" d="M104.99,2.35c.19-.53.26-.62.35-.62s.16.08.35.58c.24.61,2.75,7.22,3.73,9.65.58,1.42,1.04,1.68,1.38,1.78.24.08.48.1.64.1.1,0,.16.02.16.1,0,.1-.14.13-.32.13-.24,0-1.41,0-2.51-.03-.3-.02-.48-.02-.48-.11,0-.06.05-.1.11-.11.1-.03.19-.18.1-.43l-1.49-3.94c-.03-.06-.06-.1-.14-.1h-3.44c-.08,0-.13.05-.16.13l-.96,2.83c-.14.4-.22.78-.22,1.07,0,.32.34.46.61.46h.16c.11,0,.16.03.16.1,0,.1-.1.13-.24.13-.38,0-1.07-.05-1.25-.05s-1.06.05-1.81.05c-.21,0-.3-.03-.3-.13,0-.06.06-.1.14-.1.11,0,.34-.02.46-.03.74-.1,1.06-.7,1.34-1.5l3.63-9.94ZM106.66,8.75c.08,0,.08-.05.06-.11l-1.52-4.32c-.08-.24-.16-.24-.24,0l-1.41,4.32c-.03.08,0,.11.05.11h3.06Z"/><path class="b" d="M112.64,10.73c0-1.87,1.2-3.12,2.45-3.86-.59-.83-.78-1.49-.78-2.21,0-1.26,1.3-2.95,3.44-2.95.82,0,1.5.16,1.94.4.19.11.21.21.21.4,0,.48-.06,1.6-.11,1.84s-.1.27-.16.27c-.08,0-.1-.06-.1-.3,0-.42-.1-.94-.5-1.36-.35-.37-.9-.7-1.6-.7-.96,0-2.03.59-2.03,2.1,0,1.25.86,2.29,2.53,4.1.54.59,2.51,2.43,3.03,2.87.45-.61.82-1.68.82-2.66,0-.24-.06-.54-.3-.78-.21-.21-.54-.26-.78-.26-.1,0-.19-.03-.19-.11s.13-.11.26-.11c.38,0,1.02.02,1.92.11.24.03.29.16.29.32,0,1.3-.88,2.91-1.58,3.78,1.06.9,1.76,1.33,2.21,1.58.51.3,1.33.62,1.91.62.14,0,.22.02.22.11,0,.06-.13.11-.27.11h-1.57c-1.18,0-1.57-.11-3.33-1.5-.37.37-1.63,1.73-4,1.73-2.8,0-3.89-2.15-3.89-3.54ZM120.11,12.24c-.9-.74-2.48-2.26-2.9-2.71s-1.44-1.58-1.89-2.24c-.83.54-1.44,1.41-1.44,2.69,0,2,1.41,3.44,3.2,3.44,1.49,0,2.48-.62,3.03-1.18Z"/><path class="b" d="M139.8,11.98c.06.58.18,1.47.86,1.7.46.14.88.14,1.04.14.08,0,.13.02.13.08,0,.1-.14.14-.34.14-.35,0-2.08-.05-2.67-.1-.37-.03-.45-.08-.45-.16,0-.06.03-.1.11-.11.08-.02.1-.29.06-.58l-.77-8.26h-.05l-3.92,8.32c-.34.7-.38.85-.53.85-.11,0-.19-.16-.5-.74-.42-.78-1.79-3.55-1.87-3.71-.14-.29-1.94-4.13-2.11-4.56h-.06l-.64,7.43c-.02.26-.02.54-.02.82,0,.24.18.45.42.5.27.06.51.08.61.08.06,0,.13.03.13.08,0,.11-.1.14-.29.14-.59,0-1.36-.05-1.49-.05-.14,0-.91.05-1.34.05-.16,0-.27-.03-.27-.14,0-.05.08-.08.16-.08.13,0,.24,0,.48-.05.53-.1.58-.72.64-1.33l1.15-10.44c.02-.18.08-.29.18-.29s.16.06.24.24l4.9,10.07,4.71-10.05c.06-.14.13-.26.24-.26s.16.13.19.43l1.07,9.83Z"/><path class="b" d="M150.56,6.59c0-2.5,0-2.95-.03-3.46-.03-.54-.16-.8-.69-.91-.13-.03-.4-.05-.54-.05-.06,0-.13-.03-.13-.1,0-.1.08-.13.26-.13.72,0,1.7.05,1.84.05s1.1-.05,1.58-.05c.18,0,.26.03.26.13,0,.06-.06.1-.13.1-.11,0-.21.02-.4.05-.43.06-.56.35-.59.91-.03.51-.03.96-.03,3.46v2.24c0,2.3.51,3.3,1.2,3.95.78.74,1.5.88,2.42.88.98,0,1.94-.46,2.51-1.15.74-.91.93-2.27.93-3.92v-2c0-2.5,0-2.95-.03-3.46-.03-.54-.16-.8-.69-.91-.13-.03-.4-.05-.54-.05-.06,0-.13-.03-.13-.1,0-.1.08-.13.26-.13.72,0,1.6.05,1.7.05.11,0,.86-.05,1.34-.05.18,0,.26.03.26.13,0,.06-.06.1-.13.1-.11,0-.21.02-.4.05-.43.1-.56.35-.59.91-.03.51-.03.96-.03,3.46v1.71c0,1.73-.19,3.65-1.47,4.79-1.15,1.02-2.35,1.18-3.3,1.18-.54,0-2.16-.06-3.3-1.14-.78-.75-1.39-1.87-1.39-4.21v-2.34Z"/><path class="b" d="M165.79,12.19c.03,1.12.16,1.46.54,1.55.26.06.58.08.7.08.06,0,.11.05.11.11,0,.08-.1.11-.26.11-.8,0-1.36-.05-1.49-.05s-.72.05-1.36.05c-.14,0-.22-.02-.22-.11,0-.06.05-.11.11-.11.11,0,.37-.02.58-.08.35-.1.4-.46.4-1.7v-7.79c0-.54.08-.69.19-.69.16,0,.4.27.54.42.22.22,2.27,2.4,4.45,4.64,1.39,1.44,2.9,3.06,3.33,3.5l-.14-6.82c-.02-.88-.1-1.18-.53-1.26-.26-.05-.58-.06-.69-.06-.1,0-.11-.08-.11-.13,0-.08.11-.1.27-.1.64,0,1.31.03,1.47.03s.62-.03,1.2-.03c.14,0,.26.02.26.1,0,.05-.06.13-.16.13-.06,0-.18,0-.34.03-.46.1-.5.37-.5,1.18l-.03,7.97c0,.9-.02.98-.11.98-.14,0-.29-.11-1.07-.83-.14-.13-2.18-2.13-3.67-3.68-1.63-1.71-3.22-3.38-3.65-3.86l.16,6.42Z"/><path class="b" d="M180.61,10.09c0,1.31,0,2.38.06,2.95.05.4.1.66.51.72.21.03.51.06.64.06.08,0,.11.06.11.11,0,.06-.06.11-.22.11-.78,0-1.7-.05-1.76-.05-.08,0-.96.05-1.39.05-.14,0-.22-.03-.22-.11,0-.05.03-.11.11-.11.13,0,.3-.03.43-.06.27-.06.32-.32.37-.72.06-.56.08-1.63.08-2.95v-2.4c0-2.11,0-2.5-.03-2.93-.03-.46-.14-.67-.45-.74-.16-.03-.34-.05-.43-.05-.06,0-.11-.06-.11-.11,0-.08.06-.11.22-.11.46,0,1.34.03,1.42.03.06,0,.98-.03,1.41-.03.16,0,.22.03.22.11,0,.05-.06.11-.11.11-.1,0-.19,0-.35.03-.38.08-.46.27-.5.75-.02.43-.02.82-.02,2.93v2.4Z"/><path class="b" d="M189.44,12.27c.82-1.83,2.66-6.47,2.96-7.44.06-.21.13-.4.13-.51s-.05-.24-.19-.29c-.16-.05-.32-.05-.48-.05-.08,0-.16-.05-.16-.11,0-.08.1-.11.32-.11.56,0,1.2.03,1.38.03.08,0,.69-.03,1.1-.03.14,0,.22.03.22.1s-.05.13-.16.13c-.1,0-.42,0-.67.16-.19.13-.42.32-.79,1.25-.16.38-.85,2.02-1.57,3.68-.86,1.98-1.49,3.46-1.81,4.13-.38.82-.46,1.02-.61,1.02-.16,0-.26-.18-.53-.83l-3.46-8.34c-.32-.77-.51-.91-.98-1.02-.22-.05-.46-.05-.54-.05s-.11-.08-.11-.13c0-.08.14-.1.37-.1.67,0,1.47.03,1.65.03.14,0,.77-.03,1.31-.03.26,0,.38.03.38.1s-.05.13-.14.13c-.16,0-.38.02-.51.06-.14.06-.16.14-.16.24,0,.18.18.59.38,1.14l2.66,6.85Z"/><path class="b" d="M197.6,7.69c0-2.11,0-2.5-.03-2.93-.03-.46-.11-.69-.58-.75-.11-.02-.35-.03-.48-.03-.05,0-.11-.06-.11-.11,0-.08.06-.11.22-.11.64,0,1.55.03,1.63.03.1,0,3.04.02,3.36,0,.27-.02.53-.06.64-.08.06-.02.13-.06.19-.06.05,0,.06.06.06.13,0,.1-.08.26-.11.64-.02.13-.05.74-.08.9-.02.06-.06.14-.13.14-.08,0-.11-.06-.11-.18,0-.1-.02-.32-.08-.48-.1-.22-.24-.32-1.01-.42-.24-.03-1.87-.05-2.03-.05-.06,0-.08.05-.08.14v3.7c0,.1,0,.14.08.14.18,0,2.03,0,2.35-.03.34-.03.54-.05.69-.19.1-.1.16-.18.21-.18s.08.03.08.11-.08.3-.11.75c-.03.27-.06.78-.06.88,0,.11-.03.26-.13.26-.06,0-.1-.05-.1-.13,0-.13,0-.27-.06-.45-.05-.19-.18-.35-.72-.42-.38-.05-1.89-.06-2.13-.06-.08,0-.1.05-.1.1v1.14c0,.46-.02,2.05,0,2.32.03.91.29,1.09,1.68,1.09.37,0,1.04,0,1.41-.14.37-.16.56-.4.64-.94.03-.16.06-.21.14-.21s.1.11.1.21-.11,1.02-.19,1.31c-.1.35-.24.35-.78.35-1.06,0-1.87-.03-2.45-.05-.59-.03-.96-.03-1.17-.03-.03,0-.3,0-.61.02-.27.02-.59.03-.82.03-.14,0-.22-.03-.22-.11,0-.05.03-.11.11-.11.13,0,.3-.05.43-.06.27-.05.3-.32.37-.72.08-.56.08-1.63.08-2.95v-2.4Z"/><path class="b" d="M207.22,7.69c0-2.11,0-2.5-.03-2.93-.03-.46-.11-.69-.58-.75-.11-.02-.35-.03-.48-.03-.05,0-.11-.06-.11-.11,0-.08.06-.11.22-.11.64,0,1.58.03,1.66.03.14,0,1.33-.03,1.76-.03.9,0,1.89.08,2.62.59.35.26.98.91.98,1.86,0,1.01-.42,1.98-1.73,3.11,1.15,1.44,2.13,2.67,2.95,3.52.75.77,1.22.9,1.57.95.27.05.42.05.5.05s.13.06.13.11c0,.08-.08.11-.34.11h-.88c-.8,0-1.15-.08-1.5-.27-.61-.32-1.12-.98-1.92-2-.59-.74-1.22-1.62-1.52-1.99-.06-.06-.1-.08-.19-.08l-1.79-.03c-.06,0-.1.03-.1.11v.32c0,1.31,0,2.37.06,2.93.05.4.13.66.56.72.19.03.5.06.62.06.1,0,.11.06.11.11,0,.06-.06.11-.22.11-.77,0-1.67-.05-1.73-.05-.02,0-.96.05-1.39.05-.14,0-.22-.03-.22-.11,0-.05.03-.11.11-.11.13,0,.3-.03.43-.06.27-.06.3-.32.37-.72.08-.56.08-1.63.08-2.95v-2.4ZM208.43,8.85c0,.08.03.13.1.18.21.11.93.21,1.55.21.34,0,.72-.02,1.06-.24.48-.32.85-1.04.85-2.08,0-1.7-.93-2.67-2.43-2.67-.42,0-.87.05-1.01.08-.06.03-.11.08-.11.16v4.37Z"/><path class="b" d="M217.58,13.86c-.19-.1-.21-.14-.21-.51,0-.67.06-1.22.08-1.44,0-.14.03-.22.11-.22s.13.05.13.16,0,.3.05.5c.22.99,1.28,1.34,2.22,1.34,1.39,0,2.11-.78,2.11-1.81s-.53-1.44-1.78-2.37l-.64-.48c-1.52-1.14-2.02-1.97-2.02-2.91,0-1.6,1.26-2.56,3.12-2.56.56,0,1.12.08,1.46.16.27.06.38.06.5.06s.14.02.14.1c0,.06-.06.51-.06,1.44,0,.21-.02.3-.11.3s-.11-.06-.13-.18c-.02-.16-.13-.53-.21-.67-.1-.16-.56-.67-1.82-.67-1.02,0-1.87.51-1.87,1.47,0,.86.43,1.36,1.82,2.3l.4.27c1.71,1.17,2.3,2.11,2.3,3.28,0,.8-.3,1.67-1.31,2.32-.59.38-1.47.48-2.24.48-.66,0-1.47-.1-2.05-.37Z"/><path class="b" d="M229.23,10.09c0,1.31,0,2.38.06,2.95.05.4.1.66.51.72.21.03.51.06.64.06.08,0,.11.06.11.11,0,.06-.06.11-.22.11-.78,0-1.7-.05-1.76-.05-.08,0-.96.05-1.39.05-.14,0-.22-.03-.22-.11,0-.05.03-.11.11-.11.13,0,.3-.03.43-.06.27-.06.32-.32.37-.72.06-.56.08-1.63.08-2.95v-2.4c0-2.11,0-2.5-.03-2.93-.03-.46-.14-.67-.45-.74-.16-.03-.34-.05-.43-.05-.06,0-.11-.06-.11-.11,0-.08.06-.11.22-.11.46,0,1.34.03,1.42.03.06,0,.98-.03,1.41-.03.16,0,.22.03.22.11,0,.05-.06.11-.11.11-.1,0-.19,0-.35.03-.38.08-.46.27-.5.75-.02.43-.02.82-.02,2.93v2.4Z"/><path class="b" d="M238.05,10.09c0,1.31,0,2.38.06,2.95.05.4.11.66.54.72.19.03.51.06.64.06.1,0,.11.06.11.11,0,.06-.06.11-.22.11-.77,0-1.66-.05-1.74-.05-.06,0-1.04.05-1.46.05-.16,0-.22-.03-.22-.11,0-.05.03-.1.11-.1.13,0,.29-.03.42-.06.29-.06.37-.34.42-.74.06-.56.06-1.63.06-2.95v-5.71l-2.03.03c-.88.02-1.22.11-1.42.43-.16.24-.18.34-.22.43-.03.11-.08.13-.14.13-.03,0-.1-.03-.1-.11,0-.14.29-1.36.3-1.47.03-.08.1-.26.14-.26.1,0,.24.11.62.16.4.05.94.06,1.1.06h5.31c.46,0,.79-.03,1.01-.06.21-.03.34-.06.4-.06s.06.08.06.16c0,.42-.05,1.39-.05,1.55,0,.11-.06.18-.13.18s-.1-.05-.11-.24l-.02-.14c-.05-.42-.35-.72-1.7-.75l-1.76-.03v5.71Z"/><path class="b" d="M247.14,10.51c0-.74-.1-1.01-.3-1.39-.11-.21-2.02-3.23-2.5-3.95-.34-.51-.67-.82-.93-.99-.21-.13-.48-.19-.59-.19-.08,0-.14-.06-.14-.13s.05-.1.18-.1c.27,0,1.33.03,1.39.03.1,0,.67-.03,1.22-.03.16,0,.19.03.19.1,0,.05-.1.1-.22.14-.11.05-.18.11-.18.22,0,.19.1.35.19.53l2.56,4.24c.29-.58,2.05-3.49,2.3-3.94.18-.3.24-.53.24-.71,0-.19-.06-.3-.22-.35-.13-.03-.21-.1-.21-.16,0-.05.08-.08.22-.08.37,0,.86.03.98.03.1,0,1.1-.03,1.38-.03.1,0,.18.03.18.08,0,.06-.06.14-.18.14-.16,0-.43.05-.66.18-.27.16-.4.3-.7.67-.46.54-2.45,3.75-2.74,4.32-.24.48-.18.91-.18,1.36v1.17c0,.22,0,.8.05,1.36.03.4.13.66.54.72.19.03.51.06.64.06.08,0,.11.06.11.11,0,.06-.08.11-.22.11-.78,0-1.7-.05-1.78-.05-.06,0-.96.05-1.38.05-.16,0-.22-.03-.22-.11,0-.05.03-.11.11-.11.13,0,.29-.03.42-.06.29-.06.38-.32.42-.72.03-.56.03-1.14.03-1.36v-1.17Z"/><path class="b" d="M260.89,13.84c-.22-.11-.24-.18-.24-.61,0-.8.06-1.44.08-1.7.02-.18.05-.26.13-.26.1,0,.11.05.11.18,0,.14,0,.37.05.59.24,1.18,1.3,1.63,2.37,1.63,1.54,0,2.29-1.1,2.29-2.13,0-1.1-.46-1.74-1.84-2.88l-.72-.59c-1.7-1.39-2.08-2.38-2.08-3.47,0-1.71,1.28-2.88,3.31-2.88.62,0,1.09.06,1.49.16.3.06.43.08.56.08s.16.03.16.11-.06.61-.06,1.7c0,.26-.03.37-.11.37-.1,0-.11-.08-.13-.21-.02-.19-.11-.62-.21-.8-.1-.18-.53-.85-2-.85-1.1,0-1.97.69-1.97,1.86,0,.91.42,1.49,1.95,2.69l.45.35c1.89,1.49,2.34,2.48,2.34,3.76,0,.66-.26,1.87-1.36,2.66-.69.48-1.55.67-2.42.67-.75,0-1.49-.11-2.14-.43Z"/><path class="b" d="M273.07,10.51c0-.74-.1-1.01-.3-1.39-.11-.21-2.02-3.23-2.5-3.95-.34-.51-.67-.82-.93-.99-.21-.13-.48-.19-.59-.19-.08,0-.14-.06-.14-.13s.05-.1.18-.1c.27,0,1.33.03,1.39.03.1,0,.67-.03,1.22-.03.16,0,.19.03.19.1,0,.05-.1.1-.22.14-.11.05-.18.11-.18.22,0,.19.1.35.19.53l2.56,4.24c.29-.58,2.05-3.49,2.3-3.94.18-.3.24-.53.24-.71,0-.19-.06-.3-.22-.35-.13-.03-.21-.1-.21-.16,0-.05.08-.08.22-.08.37,0,.86.03.98.03.1,0,1.1-.03,1.38-.03.1,0,.18.03.18.08,0,.06-.06.14-.18.14-.16,0-.43.05-.66.18-.27.16-.4.3-.7.67-.46.54-2.45,3.75-2.74,4.32-.24.48-.18.91-.18,1.36v1.17c0,.22,0,.8.05,1.36.03.4.13.66.54.72.19.03.51.06.64.06.08,0,.11.06.11.11,0,.06-.08.11-.22.11-.78,0-1.7-.05-1.78-.05-.06,0-.96.05-1.38.05-.16,0-.22-.03-.22-.11,0-.05.03-.11.11-.11.13,0,.29-.03.42-.06.29-.06.38-.32.42-.72.03-.56.03-1.14.03-1.36v-1.17Z"/><path class="b" d="M280.3,13.86c-.19-.1-.21-.14-.21-.51,0-.67.06-1.22.08-1.44,0-.14.03-.22.11-.22s.13.05.13.16,0,.3.05.5c.22.99,1.28,1.34,2.22,1.34,1.39,0,2.11-.78,2.11-1.81s-.53-1.44-1.78-2.37l-.64-.48c-1.52-1.14-2.02-1.97-2.02-2.91,0-1.6,1.26-2.56,3.12-2.56.56,0,1.12.08,1.46.16.27.06.38.06.5.06s.14.02.14.1c0,.06-.06.51-.06,1.44,0,.21-.02.3-.11.3s-.11-.06-.13-.18c-.02-.16-.13-.53-.21-.67-.1-.16-.56-.67-1.82-.67-1.02,0-1.87.51-1.87,1.47,0,.86.43,1.36,1.82,2.3l.4.27c1.71,1.17,2.3,2.11,2.3,3.28,0,.8-.3,1.67-1.31,2.32-.59.38-1.47.48-2.24.48-.66,0-1.47-.1-2.05-.37Z"/><path class="b" d="M293.74,10.09c0,1.31,0,2.38.06,2.95.05.4.11.66.54.72.19.03.51.06.64.06.1,0,.11.06.11.11,0,.06-.06.11-.22.11-.77,0-1.66-.05-1.74-.05-.06,0-1.04.05-1.46.05-.16,0-.22-.03-.22-.11,0-.05.03-.1.11-.1.13,0,.29-.03.42-.06.29-.06.37-.34.42-.74.06-.56.06-1.63.06-2.95v-5.71l-2.03.03c-.88.02-1.22.11-1.42.43-.16.24-.18.34-.22.43-.03.11-.08.13-.14.13-.03,0-.1-.03-.1-.11,0-.14.29-1.36.3-1.47.03-.08.1-.26.14-.26.1,0,.24.11.62.16.4.05.94.06,1.1.06h5.31c.46,0,.79-.03,1.01-.06.21-.03.34-.06.4-.06s.06.08.06.16c0,.42-.05,1.39-.05,1.55,0,.11-.06.18-.13.18s-.1-.05-.11-.24l-.02-.14c-.05-.42-.35-.72-1.7-.75l-1.76-.03v5.71Z"/><path class="b" d="M301.23,7.69c0-2.11,0-2.5-.03-2.93-.03-.46-.11-.69-.58-.75-.11-.02-.35-.03-.48-.03-.05,0-.11-.06-.11-.11,0-.08.06-.11.22-.11.64,0,1.55.03,1.63.03.1,0,3.04.02,3.36,0,.27-.02.53-.06.64-.08.06-.02.13-.06.19-.06.05,0,.06.06.06.13,0,.1-.08.26-.11.64-.02.13-.05.74-.08.9-.02.06-.06.14-.13.14-.08,0-.11-.06-.11-.18,0-.1-.02-.32-.08-.48-.1-.22-.24-.32-1.01-.42-.24-.03-1.87-.05-2.03-.05-.06,0-.08.05-.08.14v3.7c0,.1,0,.14.08.14.18,0,2.03,0,2.35-.03.34-.03.54-.05.69-.19.1-.1.16-.18.21-.18s.08.03.08.11-.08.3-.11.75c-.03.27-.06.78-.06.88,0,.11-.03.26-.13.26-.06,0-.1-.05-.1-.13,0-.13,0-.27-.06-.45-.05-.19-.18-.35-.72-.42-.38-.05-1.89-.06-2.13-.06-.08,0-.1.05-.1.1v1.14c0,.46-.02,2.05,0,2.32.03.91.29,1.09,1.68,1.09.37,0,1.04,0,1.41-.14.37-.16.56-.4.64-.94.03-.16.06-.21.14-.21s.1.11.1.21-.11,1.02-.19,1.31c-.1.35-.24.35-.78.35-1.06,0-1.87-.03-2.45-.05-.59-.03-.96-.03-1.17-.03-.03,0-.3,0-.61.02-.27.02-.59.03-.82.03-.14,0-.22-.03-.22-.11,0-.05.03-.11.11-.11.13,0,.3-.05.43-.06.27-.05.3-.32.37-.72.08-.56.08-1.63.08-2.95v-2.4Z"/><path class="b" d="M321.39,12.29c.05.48.14,1.22.72,1.41.4.13.77.13.91.13.06,0,.11.03.11.1,0,.08-.13.13-.29.13-.32,0-1.89-.03-2.4-.08-.34-.03-.4-.08-.4-.14,0-.05.03-.1.1-.11.08-.02.1-.22.06-.48l-.67-6.88h-.03l-3.39,6.95c-.29.59-.37.72-.5.72s-.21-.13-.48-.62c-.37-.67-1.3-2.42-1.65-3.15-.42-.86-1.55-3.15-1.79-3.71h-.06l-.54,6.15c-.02.21-.02.46-.02.69,0,.21.13.34.34.38.24.06.45.08.54.08.05,0,.11.05.11.1,0,.1-.1.13-.26.13-.53,0-1.2-.05-1.31-.05-.13,0-.8.05-1.18.05-.14,0-.24-.03-.24-.13,0-.05.06-.1.14-.1.11,0,.21-.02.42-.05.46-.08.48-.58.54-1.09l1.02-8.88c.02-.14.08-.24.16-.24.1,0,.21.05.29.21l4.26,8.45,4.1-8.44c.06-.13.13-.22.22-.22s.18.11.21.37l.96,8.36Z"/><path class="b" d="M13.2,34.02l4.65,1.41c-.31,1.3-.8,2.39-1.48,3.27s-1.51,1.54-2.5,1.98-2.26.67-3.8.67c-1.87,0-3.39-.27-4.58-.81-1.18-.54-2.21-1.5-3.06-2.86s-1.29-3.12-1.29-5.25c0-2.84.76-5.03,2.27-6.55,1.51-1.53,3.65-2.29,6.42-2.29,2.16,0,3.87.44,5.1,1.31,1.24.88,2.16,2.22,2.76,4.03l-4.69,1.04c-.16-.52-.34-.91-.52-1.15-.3-.41-.66-.72-1.09-.94s-.91-.33-1.44-.33c-1.2,0-2.12.48-2.77,1.45-.48.72-.73,1.85-.73,3.38,0,1.9.29,3.21.87,3.92s1.39,1.06,2.44,1.06,1.78-.29,2.3-.86.9-1.4,1.13-2.48Z"/><path class="b" d="M18.69,23.87h5.9l3.46,5.8,3.47-5.8h5.87l-6.68,9.98v7.2h-5.32v-7.2l-6.69-9.98Z"/><path class="b" d="M39.11,23.87h9.94c1.66,0,2.93.41,3.81,1.23.89.82,1.33,1.84,1.33,3.05,0,1.02-.32,1.89-.95,2.61-.42.48-1.04.87-1.85,1.15,1.23.3,2.14.81,2.72,1.53s.87,1.63.87,2.72c0,.89-.21,1.69-.62,2.4s-.98,1.27-1.7,1.69c-.45.26-1.12.45-2.02.56-1.2.16-1.99.23-2.38.23h-9.16v-17.18ZM44.46,30.61h2.31c.83,0,1.4-.14,1.73-.43s.49-.7.49-1.24c0-.5-.16-.89-.49-1.17s-.89-.42-1.69-.42h-2.34v3.26ZM44.46,37.36h2.71c.91,0,1.56-.16,1.93-.49s.56-.76.56-1.31c0-.51-.19-.92-.56-1.22s-1.02-.46-1.95-.46h-2.7v3.48Z"/><path class="b" d="M57.75,23.87h14.23v3.67h-8.91v2.73h8.26v3.5h-8.26v3.39h9.16v3.89h-14.48v-17.18Z"/><path class="b" d="M75.16,41.05v-17.18h8.85c1.64,0,2.89.14,3.76.42s1.57.8,2.1,1.56c.53.76.8,1.69.8,2.78,0,.95-.2,1.78-.61,2.47-.41.69-.97,1.25-1.68,1.68-.45.27-1.08.5-1.86.68.63.21,1.09.42,1.38.63.19.14.48.44.85.9.37.46.62.82.74,1.07l2.57,4.98h-6l-2.84-5.25c-.36-.68-.68-1.12-.96-1.32-.38-.27-.82-.4-1.3-.4h-.47v6.97h-5.33ZM80.5,30.83h2.24c.24,0,.71-.08,1.41-.23.35-.07.64-.25.86-.54s.33-.62.33-1c0-.55-.18-.98-.53-1.28s-1.01-.45-1.98-.45h-2.33v3.49Z"/><path class="b" d="M92.84,35.37l5.05-.32c.11.82.33,1.45.67,1.88.55.7,1.33,1.04,2.34,1.04.76,0,1.34-.18,1.75-.53s.62-.77.62-1.24-.2-.84-.59-1.2-1.3-.68-2.72-1c-2.33-.52-3.99-1.22-4.98-2.09-1-.87-1.5-1.97-1.5-3.32,0-.88.26-1.72.77-2.5.51-.79,1.28-1.4,2.31-1.85s2.44-.67,4.22-.67c2.2,0,3.87.41,5.02,1.22,1.15.82,1.84,2.12,2.06,3.9l-5,.29c-.13-.77-.41-1.34-.84-1.69s-1.01-.53-1.76-.53c-.62,0-1.08.13-1.39.39s-.47.58-.47.96c0,.27.13.52.39.74.25.23.84.44,1.78.63,2.32.5,3.98,1.01,4.99,1.52s1.73,1.15,2.19,1.9.69,1.61.69,2.54c0,1.1-.3,2.12-.91,3.05s-1.46,1.63-2.55,2.12-2.47.72-4.14.72c-2.92,0-4.95-.56-6.07-1.69s-1.76-2.55-1.91-4.29Z"/><path class="b" d="M111.08,23.87h14.23v3.67h-8.91v2.73h8.26v3.5h-8.26v3.39h9.16v3.89h-14.48v-17.18Z"/><path class="b" d="M139.86,34.02l4.65,1.41c-.31,1.3-.8,2.39-1.48,3.27s-1.51,1.54-2.5,1.98-2.26.67-3.8.67c-1.87,0-3.39-.27-4.58-.81-1.18-.54-2.21-1.5-3.06-2.86s-1.29-3.12-1.29-5.25c0-2.84.76-5.03,2.27-6.55,1.51-1.53,3.65-2.29,6.42-2.29,2.16,0,3.87.44,5.1,1.31,1.24.88,2.16,2.22,2.76,4.03l-4.69,1.04c-.16-.52-.34-.91-.52-1.15-.3-.41-.66-.72-1.09-.94s-.91-.33-1.44-.33c-1.2,0-2.12.48-2.77,1.45-.48.72-.73,1.85-.73,3.38,0,1.9.29,3.21.87,3.92s1.39,1.06,2.44,1.06,1.78-.29,2.3-.86.9-1.4,1.13-2.48Z"/><path class="b" d="M158.27,23.87h5.3v10.24c0,1.01-.16,1.97-.47,2.88s-.81,1.69-1.49,2.37c-.68.67-1.38,1.15-2.13,1.42-1.03.38-2.27.57-3.71.57-.84,0-1.75-.06-2.74-.18s-1.81-.35-2.48-.7c-.66-.35-1.27-.84-1.82-1.48-.55-.64-.93-1.3-1.13-1.98-.33-1.09-.49-2.06-.49-2.9v-10.24h5.3v10.48c0,.94.26,1.67.78,2.2.52.53,1.24.79,2.16.79s1.63-.26,2.15-.78c.52-.52.78-1.25.78-2.21v-10.48Z"/><path class="b" d="M167.16,41.05v-17.18h8.85c1.64,0,2.89.14,3.76.42s1.57.8,2.1,1.56c.53.76.8,1.69.8,2.78,0,.95-.2,1.78-.61,2.47-.41.69-.97,1.25-1.68,1.68-.45.27-1.08.5-1.86.68.63.21,1.09.42,1.38.63.19.14.48.44.85.9.37.46.62.82.74,1.07l2.57,4.98h-6l-2.84-5.25c-.36-.68-.68-1.12-.96-1.32-.38-.27-.82-.4-1.3-.4h-.47v6.97h-5.33ZM172.49,30.83h2.24c.24,0,.71-.08,1.41-.23.35-.07.64-.25.86-.54s.33-.62.33-1c0-.55-.18-.98-.53-1.28s-1.01-.45-1.98-.45h-2.33v3.49Z"/><path class="b" d="M185.96,23.87h5.32v17.18h-5.32v-17.18Z"/><path class="b" d="M193.89,23.87h16.14v4.24h-5.41v12.94h-5.31v-12.94h-5.41v-4.24Z"/><path class="b" d="M210.69,23.87h5.9l3.46,5.8,3.47-5.8h5.87l-6.68,9.98v7.2h-5.32v-7.2l-6.69-9.98Z"/></svg>